<svg xmlns="http://www.w3.org/2000/svg" width="1920" height="565" viewBox="0 0 1920 565"><defs><style>.a{fill:#000c36;}.b,.c{fill:#525d7d;}.c{stroke:rgba(0,0,0,0);stroke-miterlimit:10;}.d{fill:#48506a;}</style></defs><g transform="translate(0 -109)"><rect class="a" width="1920" height="565" transform="translate(0 109)"/><g transform="translate(-583 7561)"><path class="b" d="M201.651,149.663c2.235,0,4.686-.121,7.493-.371,2.376-.21,4.837-.359,7.217-.5,8.3-.5,16.891-1.019,24.952-4.244,5.045-2.017,6.15-8.6,6.15-10.96,0-10.386-8.959-17.362-17.326-17.362a11.207,11.207,0,0,0-7.146,2.338c-1.111-8.662-4.965-10.588-8.173-10.588-.359,0-.757-.014-1.169-.026-.476-.015-.968-.031-1.444-.031-8.752,0-19.854,8.458-19.854,17.964,0,.474.01.927.031,1.355a15.442,15.442,0,0,0-3.648-.388c-4.868,0-8.982,3.81-8.982,8.32C179.752,149.663,196.235,149.663,201.651,149.663Zm-12.917-19.816a9.4,9.4,0,0,1,4.158.737c.542,1.709,1.432,2.073,2.09,2.073a1.66,1.66,0,0,0,1.637-1.714,3.013,3.013,0,0,0-1.068-2.131,17.85,17.85,0,0,1-.2-2.932c0-6.534,8.173-14.964,16.854-14.964.445,0,.9.015,1.348.029s.877.028,1.265.028c3.271,0,5.1,3.628,5.436,10.783.016.329.03.563.044.678a1.5,1.5,0,0,0,2.786.566,7.726,7.726,0,0,1,7.053-3.777c8.442,0,14.326,7.569,14.326,14.362,0,1.367-.723,6.759-4.264,8.175-7.612,3.044-15.952,3.548-24.018,4.034-2.4.145-4.884.295-7.3.51-2.718.242-5.083.359-7.228.359-13.07,0-18.9-3.545-18.9-11.5C182.752,131.984,185.846,129.847,188.734,129.847Z" transform="translate(809.96 -7386.916)"/></g><path class="c" d="M0,47.043C0,37.016,9.556,29.821,18.411,28.905a20.649,20.649,0,0,1,7.863.707c-.072.089-.148.172-.219.265a1.491,1.491,0,0,0-.316.927,1.491,1.491,0,0,1,.316-.927c.071-.093.147-.175.219-.265a26.816,26.816,0,0,1,5.5-4.8q.7-.5,1.406-1.026c.248-.185.5-.369.748-.563-.249.194-.5.378-.748.563A212.613,212.613,0,0,1,17.316,6.324c-.233,7.006-.448,14.161-.448,21.124a1.5,1.5,0,1,1-3,0c0-7.989.278-16.215.547-24.17l.048-1.426A1.5,1.5,0,0,1,14.942.8,1.52,1.52,0,0,1,16.023.4c2.393.1,4.839.11,7.126.11l3.06,0A117.986,117.986,0,0,1,38.855.981a50.773,50.773,0,0,0,5.508.27c3.682,0,6.842-.27,10.187-.557C58.547.353,62.681,0,68.393,0c5.477,0,11.07.276,16.48.544l2.493.122A1.5,1.5,0,0,1,88.794,2.15q.041,4.236.07,8.482c.1,13.019.2,26.481.982,39.627a1.5,1.5,0,0,1-1.463,1.589c-.26.006-.527.009-.8.009-2.454,0-4.919-.22-7.3-.432-2.318-.206-4.714-.42-7.036-.42-1.491,0-3.038.141-5,.319C65.1,51.609,60.8,52,54.116,52c-2.308,0-10.354-.185-14.923-.537A19.576,19.576,0,0,1,19.936,65.536C8.756,65.536,0,57.413,0,47.043ZM18.719,31.889C11.128,32.674,3,38.952,3,47.043c0,8.688,7.439,15.493,16.936,15.493,8.17,0,16.917-6.309,16.917-15.7,0-8.433-7.173-15.039-16.33-15.039A17.7,17.7,0,0,0,18.719,31.889ZM54.116,49a137.219,137.219,0,0,0,13.859-.665c2.033-.185,3.639-.331,5.266-.331,2.455,0,4.918.22,7.3.432,2.046.183,4.154.37,6.216.411-.7-12.715-.8-25.659-.9-38.193q-.027-3.534-.057-7.061l-.544-.027a1.472,1.472,0,0,0-.278-.462,1.472,1.472,0,0,1,.278.462,1.5,1.5,0,0,1-.375,1.657c-2.249,2.05-5.125,4.981-8.167,8.083-4.059,4.136-8.34,8.5-12.442,12.2-.129-.122-.259-.239-.387-.36.128.122.258.239.387.36,1.1,1.038,2.205,2.063,3.308,3.078,4.833,4.448,9.831,9.048,13.576,14.792a1.5,1.5,0,1,1-2.513,1.638c-3.541-5.428-8.182-9.7-13.1-14.222-1.183-1.089-2.368-2.184-3.545-3.3-4.959,4.216-9.53,7.167-12.953,7.167-3.157,0-8.333-3.839-13.668-8.78-.624.474-1.247.928-1.862,1.369a28.338,28.338,0,0,0-4.262,3.522A17.958,17.958,0,0,1,39.853,46.835a16.173,16.173,0,0,1-.087,1.665C44.282,48.829,51.894,49,54.116,49ZM18.513,2.988c.067.107.2.282.35.488C22.052,7.7,43,31.657,49.056,31.657c5.455,0,17.052-11.821,25.521-20.452,2.878-2.933,5.6-5.705,7.834-7.777.15-.14.307-.287.454-.421-.147.134-.3.281-.454.421C77.764,3.2,73.025,3,68.393,3c-5.584,0-9.652.347-13.587.684-3.411.292-6.632.567-10.443.567a53.265,53.265,0,0,1-5.786-.283A115.311,115.311,0,0,0,26.209,3.51l-3.06,0c-1.383,0-2.829-.012-4.286-.037-.155-.206-.283-.381-.35-.488A1.5,1.5,0,0,0,17.218,2.2,1.5,1.5,0,0,1,18.513,2.988ZM61.77,25.2a1.492,1.492,0,0,0-.412,1.035A1.492,1.492,0,0,1,61.77,25.2l.028-.029Zm2.026-.138-.045-.035Zm-.047-.036a1.5,1.5,0,0,0-.856-.294A1.5,1.5,0,0,1,63.749,25.023Zm-.93-.293h0ZM36.035,23.483a1.5,1.5,0,0,1,.316.928,1.5,1.5,0,0,0-.316-.928Zm-.059-.071a1.5,1.5,0,0,0-1.105-.507A1.5,1.5,0,0,1,35.976,23.412ZM34.835,22.9h0ZM16.524,2.361a1.5,1.5,0,0,0-.83,1.347,1.5,1.5,0,0,1,.83-1.347Zm68.432.714a1.494,1.494,0,0,0-1.061-.459A1.494,1.494,0,0,1,84.956,3.075Zm-2.058-.1.033-.028Zm.075-.061,0,0Zm.852-.3h0ZM17.172,2.2h0Zm1.577,52.513a62.114,62.114,0,0,1-.383-6.734c-1.5.022-3.015.059-4.532.148a1.5,1.5,0,0,1-2.007-.187l-.212-.232a1.5,1.5,0,0,1,1-2.507c1.931-.139,3.868-.2,5.763-.222,1.016-.014,2.021-.022,3-.022h.089l4.134.007a1.5,1.5,0,1,1,0,3l-4.134-.007h-.1a59.365,59.365,0,0,0,.364,6.406,1.5,1.5,0,0,1-1.315,1.665,1.3,1.3,0,0,1-.177.011A1.5,1.5,0,0,1,18.749,54.716ZM18.4,42.876c.018-1.288.037-2.574.037-3.861a1.5,1.5,0,0,1,3,0c0,1.3-.02,2.6-.039,3.9-.01.68-.013,1.36-.02,2.039-.978,0-1.984.008-3,.022C18.382,44.279,18.386,43.577,18.4,42.876Z" transform="matrix(0.966, 0.259, -0.259, 0.966, 1233.959, 527.7)"/><path class="b" d="M193.338,554.626a7.043,7.043,0,0,0-5.736,6.924c0,4.718,4.645,6.258,6.247,6.258,2.65,0,6.012-3.1,6.012-6.587C199.861,557.963,196.936,554.138,193.338,554.626Zm.513,10.182c-.033,0-3.249-.5-3.249-3.258a4.013,4.013,0,0,1,3.141-3.951,1.553,1.553,0,0,1,.212-.015c1.469,0,2.906,2.083,2.906,3.637C196.861,563.074,194.789,564.808,193.851,564.808Z" transform="translate(152.96 -49.916)"/><path class="b" d="M193.338,554.626a7.043,7.043,0,0,0-5.736,6.924c0,4.718,4.645,6.258,6.247,6.258,2.65,0,6.012-3.1,6.012-6.587C199.861,557.963,196.936,554.138,193.338,554.626Zm.513,10.182c-.033,0-3.249-.5-3.249-3.258a4.013,4.013,0,0,1,3.141-3.951,1.553,1.553,0,0,1,.212-.015c1.469,0,2.906,2.083,2.906,3.637C196.861,563.074,194.789,564.808,193.851,564.808Z" transform="translate(645.96 -107.916)"/><path class="b" d="M193.338,554.626a7.043,7.043,0,0,0-5.736,6.924c0,4.718,4.645,6.258,6.247,6.258,2.65,0,6.012-3.1,6.012-6.587C199.861,557.963,196.936,554.138,193.338,554.626Zm.513,10.182c-.033,0-3.249-.5-3.249-3.258a4.013,4.013,0,0,1,3.141-3.951,1.553,1.553,0,0,1,.212-.015c1.469,0,2.906,2.083,2.906,3.637C196.861,563.074,194.789,564.808,193.851,564.808Z" transform="translate(874.96 25.084)"/><path class="b" d="M193.338,554.626a7.043,7.043,0,0,0-5.736,6.924c0,4.718,4.645,6.258,6.247,6.258,2.65,0,6.012-3.1,6.012-6.587C199.861,557.963,196.936,554.138,193.338,554.626Zm.513,10.182c-.033,0-3.249-.5-3.249-3.258a4.013,4.013,0,0,1,3.141-3.951,1.553,1.553,0,0,1,.212-.015c1.469,0,2.906,2.083,2.906,3.637C196.861,563.074,194.789,564.808,193.851,564.808Z" transform="translate(1255.96 -341.916)"/><g transform="translate(-2292.451 7619.392)"><path class="b" d="M1552.92,207.859a2.972,2.972,0,0,0,3.973-.394c5.893-6.52,10.516-12.058,14.554-17.433a2.97,2.97,0,0,0-.536-4.115,140.464,140.464,0,0,1-14.8-14.143,2.919,2.919,0,0,0-2.284-.936,2.97,2.97,0,0,0-2.2,1.116c-2.737,3.436-5.35,7.047-7.88,10.538-2.054,2.836-4.178,5.77-6.358,8.595a2.97,2.97,0,0,0,.352,4.008A197.154,197.154,0,0,0,1552.92,207.859Zm-4.363-21.884c1.825-2.52,3.7-5.1,5.61-7.617a142.022,142.022,0,0,0,10.8,10.37c-3.08,3.967-6.54,8.1-10.665,12.728-3.725-2.9-7.243-5.948-10.552-8.925C1545.4,190.34,1547,188.129,1548.557,185.975Z" transform="translate(812.96 -7434.916)"/></g><g transform="translate(-5413.471 5080.804) rotate(34)"><path class="b" d="M1549.392,199.77a2.323,2.323,0,0,0,3.1-.308c4.6-5.1,8.219-9.424,11.374-13.624a2.321,2.321,0,0,0-.419-3.216,109.75,109.75,0,0,1-11.565-11.053,2.282,2.282,0,0,0-1.785-.732,2.321,2.321,0,0,0-1.72.872c-2.139,2.685-4.181,5.507-6.158,8.236-1.606,2.217-3.266,4.509-4.969,6.717a2.321,2.321,0,0,0,.275,3.132A154.073,154.073,0,0,0,1549.392,199.77Zm-3.409-17.1c1.426-1.969,2.888-3.989,4.384-5.952a110.99,110.99,0,0,0,8.443,8.1c-2.407,3.1-5.111,6.327-8.335,9.947-2.911-2.263-5.66-4.648-8.247-6.975C1543.513,186.078,1544.763,184.35,1545.982,182.667Z" transform="translate(812.96 -7434.916)"/></g><path class="c" d="M9.552,18.037l-.091-1.61c-.112-1.944-.222-3.933-.284-5.928a67,67,0,0,0-7.5.4,1.291,1.291,0,0,1-.176.012,1.5,1.5,0,0,1-.174-2.99,69.347,69.347,0,0,1,7.8-.425c.142,0,.274,0,.418,0,.832,0,1.7.014,2.583.035,1.693.039,3.5.113,5.546.235a1.5,1.5,0,1,1-.177,2.993c-1.963-.116-3.693-.188-5.317-.227.062,1.918.168,3.841.277,5.723l.091,1.616a1.5,1.5,0,0,1-1.414,1.58l-.085,0A1.5,1.5,0,0,1,9.552,18.037ZM9.545,7.5c-.143,0-.275,0-.418,0a56.754,56.754,0,0,1,.319-6.167,1.5,1.5,0,1,1,2.982.332,53.676,53.676,0,0,0-.3,5.865C11.242,7.509,10.377,7.5,9.545,7.5Z" transform="translate(346.444 413.871)"/><path class="c" d="M9.552,18.037l-.091-1.61c-.112-1.944-.222-3.933-.284-5.928a67,67,0,0,0-7.5.4,1.291,1.291,0,0,1-.176.012,1.5,1.5,0,0,1-.174-2.99,69.347,69.347,0,0,1,7.8-.425c.142,0,.274,0,.418,0,.832,0,1.7.014,2.583.035,1.693.039,3.5.113,5.546.235a1.5,1.5,0,1,1-.177,2.993c-1.963-.116-3.693-.188-5.317-.227.062,1.918.168,3.841.277,5.723l.091,1.616a1.5,1.5,0,0,1-1.414,1.58l-.085,0A1.5,1.5,0,0,1,9.552,18.037ZM9.545,7.5c-.143,0-.275,0-.418,0a56.754,56.754,0,0,1,.319-6.167,1.5,1.5,0,1,1,2.982.332,53.676,53.676,0,0,0-.3,5.865C11.242,7.509,10.377,7.5,9.545,7.5Z" transform="translate(1253.705 212.506) rotate(17)"/><path class="c" d="M9.552,18.037l-.091-1.61c-.112-1.944-.222-3.933-.284-5.928a67,67,0,0,0-7.5.4,1.291,1.291,0,0,1-.176.012,1.5,1.5,0,0,1-.174-2.99,69.347,69.347,0,0,1,7.8-.425c.142,0,.274,0,.418,0,.832,0,1.7.014,2.583.035,1.693.039,3.5.113,5.546.235a1.5,1.5,0,1,1-.177,2.993c-1.963-.116-3.693-.188-5.317-.227.062,1.918.168,3.841.277,5.723l.091,1.616a1.5,1.5,0,0,1-1.414,1.58l-.085,0A1.5,1.5,0,0,1,9.552,18.037ZM9.545,7.5c-.143,0-.275,0-.418,0a56.754,56.754,0,0,1,.319-6.167,1.5,1.5,0,1,1,2.982.332,53.676,53.676,0,0,0-.3,5.865C11.242,7.509,10.377,7.5,9.545,7.5Z" transform="translate(702.705 277.506) rotate(17)"/><path class="c" d="M48.192,48.629c-1.947-1.164-8.412-5.321-12.542-11.4-5.566.5-12.025.743-19.7.743C5.628,37.972,0,27.785,0,22.551,0,8.646,10.791,1.292,32.072.692,33.911.64,35.783.509,37.764.37,40.355.188,43.035,0,45.687,0c17.4,0,21.049,8.867,21.049,16.306,0,9.534-5.34,15.457-16.783,18.574-.068,1.3-.1,2.58-.1,3.817a56.859,56.859,0,0,0,.6,8.42,1.5,1.5,0,0,1-2.254,1.511ZM37.68,34.853a36.088,36.088,0,0,0,9.413,9.471c-.162-1.815-.245-3.7-.245-5.627,0-1.642.059-3.356.176-5.094a1.5,1.5,0,0,1,1.133-1.355c10.919-2.722,15.578-7.49,15.578-15.942C63.736,7.353,57.832,3,45.687,3c-2.547,0-5.173.184-7.713.364-1.925.135-3.915.274-5.818.328C12.537,4.244,3,10.413,3,22.551c0,3.6,4.536,12.421,12.946,12.421,8,0,14.648-.266,20.321-.815.049,0,.1-.005.145-.005A1.5,1.5,0,0,1,37.68,34.853ZM16.646,19.875c0-2.025,2.327-4,4.065-4,.182,0,.377.014.555.029.072.005.139.013.194.013a1.509,1.509,0,0,1,1.481,1.344,1.626,1.626,0,0,1,.381.045,3.31,3.31,0,0,1,2.416,3.4A3.771,3.771,0,0,1,21.9,24.566C19.417,24.566,16.646,22.559,16.646,19.875Zm3,.022c0,.9,1.382,1.669,2.251,1.669a.786.786,0,0,0,.842-.867.778.778,0,0,0-.126-.482,1.512,1.512,0,0,1-1.136-1.3c-.133,0-.28-.01-.451-.023-.1-.007-.21-.018-.313-.018A2.131,2.131,0,0,0,19.644,19.9Zm9.318-1.134a3.806,3.806,0,0,1,3.767-3.825,4.526,4.526,0,0,1,.9.092,3.815,3.815,0,0,1,2.53,1.945,4.051,4.051,0,0,1,.546,2,3.539,3.539,0,0,1-3.637,3.6A3.925,3.925,0,0,1,28.962,18.762Zm3,0c0,.392.422.815,1.1.815a.558.558,0,0,0,.637-.6,1.049,1.049,0,0,0-.151-.516.95.95,0,0,0-.518-.491,1.458,1.458,0,0,0-.3-.033C32.019,17.937,31.962,18.754,31.962,18.762Zm10.393-.952a4.857,4.857,0,0,1,4.612-4.731,3.984,3.984,0,0,1,1.085.151,1.5,1.5,0,0,1,.837.612c.084.125.172.251.261.377a5.3,5.3,0,0,1,1.241,3.109A3.929,3.929,0,0,1,46.262,21.5,3.64,3.64,0,0,1,42.355,17.81Zm3,0c0,.224,0,.691.907.691.586,0,1.129-.142,1.129-1.174a2.542,2.542,0,0,0-.591-1.235A1.916,1.916,0,0,0,45.355,17.81Z" transform="translate(1647.459 163.835)"/><g transform="translate(-790 7805)"><path class="b" d="M1664.436,151.487a18.137,18.137,0,0,0-6.272-2.67,8.6,8.6,0,0,0-2.247-.3c-5.806,0-9.51,5.68-9.51,9.591,0,.392.03.772.063,1.163.028.33.058.67.058,1.043,0,3.257,3.308,9.334,9.632,9.334,4.319,0,10.744-2.991,10.744-11.228C1666.9,155.75,1666.6,153.065,1664.436,151.487Zm-8.276,15.158c-4.9,0-6.632-5.045-6.632-6.334,0-.463-.034-.885-.069-1.294-.025-.307-.052-.6-.052-.912,0-2.655,2.733-6.591,6.51-6.591a5.547,5.547,0,0,1,1.458.2,15.444,15.444,0,0,1,5.3,2.2c.887.646,1.233,1.908,1.233,4.5C1663.9,164.925,1658.838,166.645,1656.16,166.645Z" transform="translate(812.96 -7434.916)"/><path class="b" d="M1659.4,138a21.353,21.353,0,0,1,3.666.693,1.515,1.515,0,0,0,.408.057,1.5,1.5,0,0,0,.406-2.944,24.257,24.257,0,0,0-4.184-.792,1.5,1.5,0,1,0-.3,2.986Z" transform="translate(812.96 -7434.916)"/><path class="b" d="M1657.78,176.762a26.5,26.5,0,0,1-3.779-.034,1.5,1.5,0,0,0-.265,2.988c.723.064,1.464.1,2.2.1q1.023,0,2.009-.055a1.5,1.5,0,0,0,1.414-1.582A1.518,1.518,0,0,0,1657.78,176.762Z" transform="translate(812.96 -7434.916)"/><path class="b" d="M1679.81,151.68a1.5,1.5,0,0,0-2.888.814,23.332,23.332,0,0,1,.718,3.682,1.5,1.5,0,0,0,1.488,1.33,1.432,1.432,0,0,0,.173-.01,1.5,1.5,0,0,0,1.32-1.66A26.383,26.383,0,0,0,1679.81,151.68Z" transform="translate(812.96 -7434.916)"/><path class="b" d="M1642.029,143.56a1.493,1.493,0,0,0,1.021-.4,15.918,15.918,0,0,1,2.934-2.164,1.36,1.36,0,0,1,1.582-.831,23.51,23.51,0,0,1,3.5-1.356,1.5,1.5,0,1,0-.853-2.876,26.46,26.46,0,0,0-3.949,1.528,1.656,1.656,0,0,1-1.77.931,18.956,18.956,0,0,0-3.489,2.571,1.5,1.5,0,0,0,1.022,2.6Z" transform="translate(812.96 -7434.916)"/><path class="b" d="M1678.852,163.473a1.5,1.5,0,0,0-1.907.928,15.921,15.921,0,0,1-1.579,3.285,1.5,1.5,0,0,0,2.538,1.6,18.878,18.878,0,0,0,1.877-3.9A1.5,1.5,0,0,0,1678.852,163.473Z" transform="translate(812.96 -7434.916)"/><path class="b" d="M1646.047,174.33a17.913,17.913,0,0,1-3.018-2.11,1.5,1.5,0,1,0-1.965,2.267,21.029,21.029,0,0,0,3.523,2.464,1.5,1.5,0,0,0,1.46-2.621Z" transform="translate(812.96 -7434.916)"/><path class="b" d="M1669.446,173.4a21.7,21.7,0,0,1-3.354,1.641,1.5,1.5,0,1,0,1.087,2.8,24.684,24.684,0,0,0,3.819-1.87,1.5,1.5,0,0,0-1.552-2.568Z" transform="translate(812.96 -7434.916)"/><path class="b" d="M1637.274,161.975a1.5,1.5,0,0,0-2.951.541,21.867,21.867,0,0,0,1.178,4.122,1.5,1.5,0,0,0,2.788-1.11A18.8,18.8,0,0,1,1637.274,161.975Z" transform="translate(812.96 -7434.916)"/><path class="b" d="M1675.4,143.21a22.375,22.375,0,0,0-3.04-3.014,1.5,1.5,0,0,0-1.9,2.324,19.286,19.286,0,0,1,2.63,2.607,1.5,1.5,0,0,0,2.308-1.917Z" transform="translate(812.96 -7434.916)"/><path class="b" d="M1637.611,148.079a1.5,1.5,0,0,0-1.945.844,24.748,24.748,0,0,0-1.213,4.077,1.5,1.5,0,0,0,1.166,1.772,1.44,1.44,0,0,0,.3.032,1.5,1.5,0,0,0,1.468-1.2,21.679,21.679,0,0,1,1.065-3.583A1.5,1.5,0,0,0,1637.611,148.079Z" transform="translate(812.96 -7434.916)"/><path class="b" d="M1656.918,156.294a2.577,2.577,0,0,0-.807-.135c-1.716,0-2.666,1.842-2.666,3.115a2.923,2.923,0,0,0,1.175,2.581,1.5,1.5,0,0,0,1.842-2.36,1.093,1.093,0,0,1-.017-.212.315.315,0,0,1,.012-.065,1.5,1.5,0,0,0,.461-2.924Z" transform="translate(812.96 -7434.916)"/></g><g transform="translate(-1785 7848)"><path class="b" d="M1664.436,151.487a18.137,18.137,0,0,0-6.272-2.67,8.6,8.6,0,0,0-2.247-.3c-5.806,0-9.51,5.68-9.51,9.591,0,.392.03.772.063,1.163.028.33.058.67.058,1.043,0,3.257,3.308,9.334,9.632,9.334,4.319,0,10.744-2.991,10.744-11.228C1666.9,155.75,1666.6,153.065,1664.436,151.487Zm-8.276,15.158c-4.9,0-6.632-5.045-6.632-6.334,0-.463-.034-.885-.069-1.294-.025-.307-.052-.6-.052-.912,0-2.655,2.733-6.591,6.51-6.591a5.547,5.547,0,0,1,1.458.2,15.444,15.444,0,0,1,5.3,2.2c.887.646,1.233,1.908,1.233,4.5C1663.9,164.925,1658.838,166.645,1656.16,166.645Z" transform="translate(812.96 -7434.916)"/><path class="b" d="M1659.4,138a21.353,21.353,0,0,1,3.666.693,1.515,1.515,0,0,0,.408.057,1.5,1.5,0,0,0,.406-2.944,24.257,24.257,0,0,0-4.184-.792,1.5,1.5,0,1,0-.3,2.986Z" transform="translate(812.96 -7434.916)"/><path class="b" d="M1657.78,176.762a26.5,26.5,0,0,1-3.779-.034,1.5,1.5,0,0,0-.265,2.988c.723.064,1.464.1,2.2.1q1.023,0,2.009-.055a1.5,1.5,0,0,0,1.414-1.582A1.518,1.518,0,0,0,1657.78,176.762Z" transform="translate(812.96 -7434.916)"/><path class="b" d="M1679.81,151.68a1.5,1.5,0,0,0-2.888.814,23.332,23.332,0,0,1,.718,3.682,1.5,1.5,0,0,0,1.488,1.33,1.432,1.432,0,0,0,.173-.01,1.5,1.5,0,0,0,1.32-1.66A26.383,26.383,0,0,0,1679.81,151.68Z" transform="translate(812.96 -7434.916)"/><path class="b" d="M1642.029,143.56a1.493,1.493,0,0,0,1.021-.4,15.918,15.918,0,0,1,2.934-2.164,1.36,1.36,0,0,1,1.582-.831,23.51,23.51,0,0,1,3.5-1.356,1.5,1.5,0,1,0-.853-2.876,26.46,26.46,0,0,0-3.949,1.528,1.656,1.656,0,0,1-1.77.931,18.956,18.956,0,0,0-3.489,2.571,1.5,1.5,0,0,0,1.022,2.6Z" transform="translate(812.96 -7434.916)"/><path class="b" d="M1678.852,163.473a1.5,1.5,0,0,0-1.907.928,15.921,15.921,0,0,1-1.579,3.285,1.5,1.5,0,0,0,2.538,1.6,18.878,18.878,0,0,0,1.877-3.9A1.5,1.5,0,0,0,1678.852,163.473Z" transform="translate(812.96 -7434.916)"/><path class="b" d="M1646.047,174.33a17.913,17.913,0,0,1-3.018-2.11,1.5,1.5,0,1,0-1.965,2.267,21.029,21.029,0,0,0,3.523,2.464,1.5,1.5,0,0,0,1.46-2.621Z" transform="translate(812.96 -7434.916)"/><path class="b" d="M1669.446,173.4a21.7,21.7,0,0,1-3.354,1.641,1.5,1.5,0,1,0,1.087,2.8,24.684,24.684,0,0,0,3.819-1.87,1.5,1.5,0,0,0-1.552-2.568Z" transform="translate(812.96 -7434.916)"/><path class="b" d="M1637.274,161.975a1.5,1.5,0,0,0-2.951.541,21.867,21.867,0,0,0,1.178,4.122,1.5,1.5,0,0,0,2.788-1.11A18.8,18.8,0,0,1,1637.274,161.975Z" transform="translate(812.96 -7434.916)"/><path class="b" d="M1675.4,143.21a22.375,22.375,0,0,0-3.04-3.014,1.5,1.5,0,0,0-1.9,2.324,19.286,19.286,0,0,1,2.63,2.607,1.5,1.5,0,0,0,2.308-1.917Z" transform="translate(812.96 -7434.916)"/><path class="b" d="M1637.611,148.079a1.5,1.5,0,0,0-1.945.844,24.748,24.748,0,0,0-1.213,4.077,1.5,1.5,0,0,0,1.166,1.772,1.44,1.44,0,0,0,.3.032,1.5,1.5,0,0,0,1.468-1.2,21.679,21.679,0,0,1,1.065-3.583A1.5,1.5,0,0,0,1637.611,148.079Z" transform="translate(812.96 -7434.916)"/><path class="b" d="M1656.918,156.294a2.577,2.577,0,0,0-.807-.135c-1.716,0-2.666,1.842-2.666,3.115a2.923,2.923,0,0,0,1.175,2.581,1.5,1.5,0,0,0,1.842-2.36,1.093,1.093,0,0,1-.017-.212.315.315,0,0,1,.012-.065,1.5,1.5,0,0,0,.461-2.924Z" transform="translate(812.96 -7434.916)"/></g><path class="c" d="M.507,24.864A1.5,1.5,0,0,1,0,23.752v-.387c0-1.058.019-2.117.039-3.166.019-1.01.039-2.011.039-2.993a1.5,1.5,0,1,1,3,0c0,1-.019,2.02-.038,3.049q-.019.906-.031,1.819c3.433-.332,6.873-.49,10.236-.631-.088-1.335-.182-2.672-.285-4.031-.277-3.631-.564-7.385-.564-10.985a1.5,1.5,0,0,1,3,0c0,3.487.282,7.182.555,10.757.106,1.392.2,2.765.292,4.13.023.348.054.706.074,1.051q0,.048,0,.1,0-.048,0-.1c-.02-.345-.051-.7-.074-1.051,3.191-.139,6.436-.31,9.644-.647A127.389,127.389,0,0,1,24.714,1.5a1.5,1.5,0,1,1,3,0A119.179,119.179,0,0,0,29.1,21.723,1.5,1.5,0,0,1,27.8,23.469c-4.532.557-9.112.748-13.54.932-4.135.173-8.413.35-12.592.83-.059.005-.115.01-.171.01A1.5,1.5,0,0,1,.507,24.864Z" transform="translate(415.377 542.485)"/><path class="c" d="M.472,23.879A1.459,1.459,0,0,1,0,22.811v-.372c0-1.016.018-2.033.036-3.041.018-.97.036-1.931.036-2.874a1.419,1.419,0,0,1,1.4-1.441,1.42,1.42,0,0,1,1.4,1.441c0,.961-.018,1.94-.035,2.928q-.018.87-.028,1.747c3.2-.319,6.4-.471,9.533-.606-.082-1.282-.169-2.566-.266-3.871-.258-3.487-.526-7.093-.526-10.55a1.4,1.4,0,1,1,2.795,0c0,3.348.262,6.9.517,10.331.1,1.337.189,2.655.272,3.966.021.334.05.679.069,1.01q0,.047,0,.093,0-.046,0-.093c-.018-.331-.048-.675-.069-1.01,2.972-.134,5.994-.3,8.982-.621A126.109,126.109,0,0,1,23.017,1.441a1.4,1.4,0,1,1,2.794,0A117.969,117.969,0,0,0,27.1,20.863a1.476,1.476,0,0,1-.253,1.105,1.394,1.394,0,0,1-.952.571c-4.221.535-8.486.718-12.61.9-3.851.166-7.835.336-11.727.8-.054.005-.107.01-.159.01A1.372,1.372,0,0,1,.472,23.879Z" transform="translate(903.34 233.604) rotate(40)"/><path class="c" d="M.82,39.64A2.375,2.375,0,0,1,0,37.867V37.25c0-1.687.031-3.375.063-5.048.031-1.61.063-3.205.063-4.771a2.409,2.409,0,0,1,2.426-2.392,2.41,2.41,0,0,1,2.428,2.392c0,1.6-.031,3.22-.061,4.861q-.031,1.444-.05,2.9c5.554-.529,11.122-.782,16.563-1.006-.143-2.128-.294-4.26-.462-6.427-.449-5.788-.913-11.774-.913-17.514a2.428,2.428,0,0,1,4.855,0c0,5.559.456,11.45.9,17.149.172,2.22.328,4.408.472,6.584.036.555.087,1.126.119,1.676q0,.077,0,.154,0-.076,0-.154c-.032-.55-.083-1.121-.119-1.676,5.164-.222,10.414-.494,15.606-1.032a200.138,200.138,0,0,1-1.9-30.556,2.427,2.427,0,0,1,4.854,0c0,9.656.268,21.039,2.24,32.241a2.366,2.366,0,0,1-.44,1.835,2.444,2.444,0,0,1-1.654.948c-7.334.888-14.744,1.192-21.909,1.486-6.692.275-13.614.558-20.375,1.323-.095.009-.186.016-.277.016A2.447,2.447,0,0,1,.82,39.64Z" transform="matrix(0.848, 0.53, -0.53, 0.848, 1477.277, 407.687)"/><path class="c" d="M.507,24.864A1.5,1.5,0,0,1,0,23.752v-.387c0-1.058.019-2.117.039-3.166.019-1.01.039-2.011.039-2.993a1.5,1.5,0,1,1,3,0c0,1-.019,2.02-.038,3.049q-.019.906-.031,1.819c3.433-.332,6.873-.49,10.236-.631-.088-1.335-.182-2.672-.285-4.031-.277-3.631-.564-7.385-.564-10.985a1.5,1.5,0,0,1,3,0c0,3.487.282,7.182.555,10.757.106,1.392.2,2.765.292,4.13.023.348.054.706.074,1.051q0,.048,0,.1,0-.048,0-.1c-.02-.345-.051-.7-.074-1.051,3.191-.139,6.436-.31,9.644-.647A127.389,127.389,0,0,1,24.714,1.5a1.5,1.5,0,1,1,3,0A119.179,119.179,0,0,0,29.1,21.723,1.5,1.5,0,0,1,27.8,23.469c-4.532.557-9.112.748-13.54.932-4.135.173-8.413.35-12.592.83-.059.005-.115.01-.171.01A1.5,1.5,0,0,1,.507,24.864Z" transform="matrix(0.848, 0.53, -0.53, 0.848, 1822.277, 275.687)"/><g transform="translate(-668 7138)"><path class="b" d="M128.135,487.906a52.452,52.452,0,0,1-8.8-9.527,1.542,1.542,0,0,0-1.219-.588,1.5,1.5,0,0,0-1.195.633,77.084,77.084,0,0,1-9.32,11.042,1.5,1.5,0,0,0-.045,2.12,122.107,122.107,0,0,0,9.938,9.6,1.5,1.5,0,0,0,2.111-.194c2.127-2.551,4.218-5.2,6.24-7.765q1.268-1.605,2.538-3.2a1.5,1.5,0,0,0-.249-2.116Zm-4.643,3.462c-1.7,2.157-3.452,4.375-5.225,6.534-2.687-2.344-5.215-4.923-7.519-7.323a79.876,79.876,0,0,0,7.439-8.786,53.393,53.393,0,0,0,6.932,7.516Q124.3,490.336,123.492,491.368Z" transform="translate(812.96 -7434.916)"/></g><g transform="translate(-4930.538 5145.758) rotate(40)"><path class="b" d="M128.135,487.906a52.452,52.452,0,0,1-8.8-9.527,1.542,1.542,0,0,0-1.219-.588,1.5,1.5,0,0,0-1.195.633,77.084,77.084,0,0,1-9.32,11.042,1.5,1.5,0,0,0-.045,2.12,122.107,122.107,0,0,0,9.938,9.6,1.5,1.5,0,0,0,2.111-.194c2.127-2.551,4.218-5.2,6.24-7.765q1.268-1.605,2.538-3.2a1.5,1.5,0,0,0-.249-2.116Zm-4.643,3.462c-1.7,2.157-3.452,4.375-5.225,6.534-2.687-2.344-5.215-4.923-7.519-7.323a79.876,79.876,0,0,0,7.439-8.786,53.393,53.393,0,0,0,6.932,7.516Q124.3,490.336,123.492,491.368Z" transform="translate(812.96 -7434.916)"/></g><path class="b" d="M1915.264,724.918a49.135,49.135,0,0,1-9.893-9.084,1.5,1.5,0,0,0-2.079-.214c-3.576,2.824-7.4,5.578-11.153,8.254a126.73,126.73,0,0,1-9.031-9.918,1.5,1.5,0,0,0-2-.281c-2.137,1.456-4.37,2.862-6.528,4.222-2.025,1.276-4.109,2.588-6.159,3.968q-1.441-1.618-2.9-3.222c-2.016-2.224-4.1-4.523-6.046-6.852a1.5,1.5,0,0,0-1.95-.307c-13.2,8.309-13.149,8.484-12.757,9.845a1.6,1.6,0,0,0,1.5,1.111,1.5,1.5,0,0,0,1.354-.852c.646-.52,2.858-2.106,10.4-6.87,1.731,2.026,3.53,4.012,5.278,5.939,1.26,1.39,2.518,2.778,3.753,4.183a1.5,1.5,0,0,0,1.979.244c2.349-1.623,4.791-3.161,7.153-4.648,1.807-1.139,3.665-2.309,5.49-3.523a121.691,121.691,0,0,0,9.291,9.993,1.513,1.513,0,0,0,1.915.127c3.7-2.64,7.517-5.363,11.142-8.171a52.319,52.319,0,0,0,9.547,8.529,1.5,1.5,0,1,0,1.7-2.473Z" transform="translate(1866.374 -1015.127) rotate(111)"/><g transform="translate(-1030 6941)"><path class="d" d="M311.464,698.929a1.5,1.5,0,0,1-.746,1.947c.066,5.277.139,10.62.259,15.993.087-.017.17-.03.267-.054a1.5,1.5,0,1,1,.728,2.91,6.85,6.85,0,0,1-.923.162c.191,7.312.488,14.662,1.014,21.958a1.5,1.5,0,0,0,1.5,1.392c18.149-.174,18.915-2.551,20.424-16.843.091-.872,4.858-1.06,8.344-1.116.016-.507.044-1.019.044-1.52a1.5,1.5,0,0,1,1.488-1.5c-7.256.067-12.475.169-12.861,3.82-1.095,10.384-1.382,13.1-9.207,13.855.02.19.035.378.055.568a1.5,1.5,0,0,1-1.331,1.652c-.055.005-.108.008-.162.008a1.5,1.5,0,0,1-1.489-1.34c-.025-.233-.043-.463-.068-.7-1.155.047-2.427.075-3.84.094-.917-13.469-1.086-27.147-1.251-40.389-.082-6.555-.166-13.317-.339-20,.652-.019,1.3-.046,1.937-.072l.635-.024,0-.139-.005-.244a1.5,1.5,0,0,1,3-.054l0,.244,0,.131c9.776.1,10.05,3.945,10.42,9.25.4,5.772.9,12.956,15.9,12.956a100.943,100.943,0,0,0,10.994-.8c2.834-.311,5.765-.633,8.618-.743l.262-.005c5.186,0,5.589,6.638,5.589,8.672,0,8.391-5.848,11.459-14.31,12.594a1.5,1.5,0,0,1,1.077,1.432c0,.485.007.972.015,1.459,8.576-1.321,16.218-5,16.218-15.485,0-7.2-3.291-11.672-8.589-11.672-.121,0-.245,0-.374.007-2.963.114-5.948.442-8.834.759a98.74,98.74,0,0,1-10.666.785c-12.2,0-12.516-4.486-12.911-10.165-.374-5.367-.839-12.046-13.783-12.046-1.123,0-2.274.048-3.386.094-1.1.045-2.227.092-3.337.092a1.4,1.4,0,0,0-1.093.454,1.5,1.5,0,0,0-.423,1.088c.184,6.578.275,13.252.356,19.756A1.492,1.492,0,0,1,311.464,698.929Z" transform="translate(814.96 -7390.916)"/><path class="d" d="M318.934,679.539l0-.244a1.5,1.5,0,0,0-3,.054l.005.244,0,.139c.367,20.631.726,40.141,2.858,60.4.025.232.043.462.068.7a1.5,1.5,0,0,0,1.489,1.34c.054,0,.107,0,.162-.008a1.5,1.5,0,0,0,1.331-1.652c-.02-.19-.035-.378-.055-.568-2.13-20.171-2.487-39.656-2.855-60.264Z" transform="translate(814.96 -7390.916)"/><path class="d" d="M356.413,721.591a1.5,1.5,0,0,0-1.923,1.432c0,.535.008,1.071.016,1.608,0,.073,0,.145,0,.218.007.45.014.9.014,1.35,0,7.2-4.074,23.561-10.784,23.561a8.75,8.75,0,0,1-3.779-1c3.448-8.936,5.157-16.463,5.369-23.515.015-.5.042-1,.042-1.487a1.5,1.5,0,0,0-3,0c0,.5-.028,1.013-.044,1.52-.224,6.8-1.929,14.125-5.362,22.907a1.846,1.846,0,0,0-.124.671c0,3.225,5.763,3.9,6.9,3.9,10.337,0,13.784-20.937,13.784-26.561,0-.538-.009-1.077-.017-1.615,0-.034,0-.068,0-.1-.008-.487-.015-.974-.015-1.459A1.5,1.5,0,0,0,356.413,721.591Z" transform="translate(814.96 -7390.916)"/><path class="d" d="M310.465,719.927a5.381,5.381,0,0,0,.584-.04,6.85,6.85,0,0,0,.923-.162,1.5,1.5,0,1,0-.728-2.91c-.1.024-.18.037-.267.054a2.9,2.9,0,0,1-.512.058c-1.006,0-5.026-3.005-5.026-7.759a8.774,8.774,0,0,1,5.237-8.269,1.514,1.514,0,0,0,.788-1.97,1.511,1.511,0,0,0-1.969-.788,11.732,11.732,0,0,0-7.056,11.027C302.439,715.49,307.646,719.927,310.465,719.927Z" transform="translate(814.96 -7390.916)"/><path class="d" d="M295.789,687.849a21.223,21.223,0,0,0,3.76,4.721,1.5,1.5,0,0,0,1.977-2.258,18.588,18.588,0,0,1-3.218-4.093,21.245,21.245,0,0,0-3.76-4.721,1.5,1.5,0,1,0-1.976,2.258A18.638,18.638,0,0,1,295.789,687.849Z" transform="translate(814.96 -7390.916)"/><path class="d" d="M288.418,706.529H295.4a1.5,1.5,0,0,0,0-3h-6.978a1.5,1.5,0,0,0,0,3Z" transform="translate(814.96 -7390.916)"/><path class="d" d="M298.206,720.756a1.5,1.5,0,1,0-2.683-1.342,8.708,8.708,0,0,1-2.518,2.6,14.932,14.932,0,0,0-2.453,2.276,1.5,1.5,0,0,0,2.344,1.874,12.43,12.43,0,0,1,1.976-1.8A11.214,11.214,0,0,0,298.206,720.756Z" transform="translate(814.96 -7390.916)"/></g><path class="b" d="M362.216,661.543c1.776-.969,3.551-1.919,5.321-2.867,2.955-1.582,6-3.211,8.984-4.9a102.351,102.351,0,0,0,9.977,9.945,1.5,1.5,0,0,0,1.766.12c3.519-2.22,7.155-4.574,10.823-7,1.687,1.517,3.23,3.071,4.729,4.582a65.34,65.34,0,0,0,4.9,4.628,1.5,1.5,0,0,0,1.824.048q1.334-.966,2.679-1.923c2.809-2.006,5.7-4.073,8.427-6.29a51.244,51.244,0,0,0,8.895,6.584,1.5,1.5,0,0,0,1.471-2.615,52.145,52.145,0,0,1-9.325-7.061,1.5,1.5,0,0,0-1.97-.033c-2.919,2.458-6.134,4.754-9.242,6.975q-.87.621-1.74,1.245c-1.181-1.046-2.454-2.329-3.786-3.671-1.7-1.717-3.636-3.663-5.748-5.49a1.5,1.5,0,0,0-1.813-.115c-3.648,2.428-7.272,4.783-10.788,7.011a113.725,113.725,0,0,1-9.653-9.84,1.5,1.5,0,0,0-1.86-.3c-3.283,1.877-6.678,3.7-9.963,5.453-1.777.952-3.559,1.906-5.34,2.878a1.5,1.5,0,0,0,1.435,2.634Z" transform="translate(563.96 -265.916)"/><g transform="translate(-658 7059)"><path class="b" d="M437.22,503.213a3.1,3.1,0,0,0-.758.1,1.116,1.116,0,0,1-.5-.038,4.818,4.818,0,0,0-.9-.1c-2.093,0-6.168,2.583-6.168,7.319a7.578,7.578,0,0,0,7.381,7.566c4.26,0,6.907-2.73,6.907-7.122C443.188,505.435,438.976,503.213,437.22,503.213Zm-.939,11.845a4.545,4.545,0,0,1-4.381-4.566,4.45,4.45,0,0,1,3.168-4.319,1.906,1.906,0,0,1,.358.05,4.316,4.316,0,0,0,1.756,0c.472.039,3.006,1.119,3.006,4.714C440.188,513.671,438.873,515.058,436.281,515.058Z" transform="translate(851.96 -7373.916)"/><path class="b" d="M426.573,519.834a15.592,15.592,0,0,1-2.631-2.515,1.5,1.5,0,0,0-2.323,1.9,18.552,18.552,0,0,0,3.137,3,1.5,1.5,0,1,0,1.817-2.387Z" transform="translate(851.96 -7373.916)"/><path class="b" d="M435.6,493.806a1.6,1.6,0,0,0,.227-.017,17.809,17.809,0,0,1,3.676-.176c.451.025.9.062,1.348.114a1.5,1.5,0,1,0,.343-2.981q-.755-.086-1.522-.129a21.025,21.025,0,0,0-4.3.206,1.5,1.5,0,0,0,.223,2.983Z" transform="translate(851.96 -7373.916)"/><path class="b" d="M447.7,518.984a15.469,15.469,0,0,1-2.617,2.524A1.5,1.5,0,0,0,446.9,523.9a18.514,18.514,0,0,0,3.126-3.017,1.5,1.5,0,0,0-2.323-1.9Z" transform="translate(851.96 -7373.916)"/><path class="b" d="M437.773,524.112a19.425,19.425,0,0,1-3.648-.65,1.5,1.5,0,1,0-.786,2.9,22.307,22.307,0,0,0,4.228.747c.035,0,.07,0,.1,0a1.5,1.5,0,0,0,.1-3Z" transform="translate(851.96 -7373.916)"/><path class="b" d="M448.992,498.02a12.246,12.246,0,0,1,.939,1.691,1.5,1.5,0,1,0,2.728-1.25,15.456,15.456,0,0,0-1.171-2.105,11.674,11.674,0,0,0-1.311-1.631,1.5,1.5,0,0,0-2.157,2.086A8.576,8.576,0,0,1,448.992,498.02Z" transform="translate(851.96 -7373.916)"/><path class="b" d="M421.477,506.394a1.5,1.5,0,1,0-2.919-.692,15.953,15.953,0,0,0-.433,3.658c0,.242,0,.482.015.719a1.5,1.5,0,0,0,1.5,1.436h.066a1.5,1.5,0,0,0,1.434-1.564c-.009-.194-.012-.391-.012-.59A12.906,12.906,0,0,1,421.477,506.394Z" transform="translate(851.96 -7373.916)"/><path class="b" d="M452.949,506.363a1.5,1.5,0,0,0-1.511,1.488,20.886,20.886,0,0,1-.35,3.707,1.5,1.5,0,0,0,1.2,1.752,1.481,1.481,0,0,0,.28.026,1.5,1.5,0,0,0,1.472-1.221,23.867,23.867,0,0,0,.4-4.241A1.5,1.5,0,0,0,452.949,506.363Z" transform="translate(851.96 -7373.916)"/><path class="b" d="M426.461,494.406a20.949,20.949,0,0,0-3.248,2.821,1.5,1.5,0,0,0,2.19,2.049,17.956,17.956,0,0,1,2.783-2.415,1.5,1.5,0,1,0-1.725-2.455Z" transform="translate(851.96 -7373.916)"/></g><g transform="translate(277.149 7119.086)"><path class="b" d="M442.192,503.237a4.948,4.948,0,0,0-1.211.155,1.783,1.783,0,0,1-.794-.061,7.7,7.7,0,0,0-1.433-.158c-3.344,0-9.854,4.127-9.854,11.693a12.107,12.107,0,0,0,11.792,12.088c6.806,0,11.035-4.362,11.035-11.378C451.727,506.787,445,503.237,442.192,503.237Zm-1.5,18.924a7.261,7.261,0,0,1-7-7.295c0-4.652,4.06-6.891,5.061-6.9a3.046,3.046,0,0,1,.572.08,6.9,6.9,0,0,0,2.805,0c.754.062,4.8,1.788,4.8,7.531C446.934,519.945,444.833,522.161,440.692,522.161Z" transform="translate(858.4 -7366.393)"/><path class="b" d="M429.736,521.667a24.91,24.91,0,0,1-4.2-4.018,2.4,2.4,0,0,0-3.711,3.032,29.642,29.642,0,0,0,5.012,4.8,2.4,2.4,0,1,0,2.9-3.814Z" transform="translate(853.846 -7358.268)"/><path class="b" d="M436.492,495.731a2.562,2.562,0,0,0,.363-.027,28.455,28.455,0,0,1,5.873-.281c.721.04,1.439.1,2.154.182a2.4,2.4,0,1,0,.548-4.763q-1.205-.137-2.432-.206a33.593,33.593,0,0,0-6.862.329,2.4,2.4,0,0,0,.356,4.766Z" transform="translate(861.507 -7373.916)"/><path class="b" d="M449.62,519.313a24.712,24.712,0,0,1-4.181,4.032,2.4,2.4,0,0,0,2.9,3.82,29.583,29.583,0,0,0,4.994-4.82,2.4,2.4,0,1,0-3.711-3.032Z" transform="translate(867.717 -7357.273)"/><path class="b" d="M441.085,524.532a31.03,31.03,0,0,1-5.828-1.039A2.4,2.4,0,1,0,434,528.119a35.637,35.637,0,0,0,6.755,1.193c.056,0,.112.006.166.006a2.4,2.4,0,0,0,.163-4.786Z" transform="translate(860.391 -7354.299)"/><path class="b" d="M449.825,500.262a19.561,19.561,0,0,1,1.5,2.7,2.4,2.4,0,1,0,4.358-2,24.7,24.7,0,0,0-1.871-3.363A18.645,18.645,0,0,0,451.718,495a2.4,2.4,0,0,0-3.446,3.333A13.7,13.7,0,0,1,449.825,500.262Z" transform="translate(869.575 -7371.715)"/><path class="b" d="M423.48,507.5a2.4,2.4,0,1,0-4.663-1.106,25.487,25.487,0,0,0-.692,5.844c0,.387.006.77.024,1.149a2.4,2.4,0,0,0,2.392,2.294c.035,0,.07,0,.105,0a2.4,2.4,0,0,0,2.291-2.5c-.014-.31-.019-.625-.019-.943A20.621,20.621,0,0,1,423.48,507.5Z" transform="translate(851.96 -7365.572)"/><path class="b" d="M454.077,506.363a2.4,2.4,0,0,0-2.414,2.377,33.368,33.368,0,0,1-.559,5.922,2.4,2.4,0,0,0,1.911,2.8,2.364,2.364,0,0,0,.447.042,2.4,2.4,0,0,0,2.352-1.951,38.137,38.137,0,0,0,.642-6.776A2.394,2.394,0,0,0,454.077,506.363Z" transform="translate(871.645 -7364.487)"/><path class="b" d="M428.644,494.569a33.473,33.473,0,0,0-5.189,4.507,2.4,2.4,0,0,0,3.5,3.274,28.684,28.684,0,0,1,4.446-3.858,2.4,2.4,0,1,0-2.756-3.922Z" transform="translate(854.759 -7371.795)"/></g><path class="b" d="M151.616,166.931a1.5,1.5,0,0,0,2.07-.309l.786-1.037c1.674-2.21,3.4-4.5,5.269-6.567a1.5,1.5,0,0,0-.134-2.138c-1.427-1.235-2.825-2.541-4.178-3.8-.727-.678-1.451-1.353-2.177-2.017a1.5,1.5,0,0,0-2.1.076c-1.6,1.69-3.055,3.531-4.463,5.311-.782.989-1.563,1.977-2.369,2.94a1.5,1.5,0,0,0,.18,2.107C146.777,163.426,149.165,165.168,151.616,166.931Zm-2.575-8.623c1.061-1.343,2.151-2.721,3.291-4.016q.525.487,1.05.978c1.017.95,2.06,1.923,3.131,2.881-1.525,1.79-2.948,3.662-4.331,5.489-1.576-1.144-3.119-2.291-4.605-3.493C148.068,159.538,148.555,158.923,149.041,158.308Z" transform="translate(1542.96 225.084)"/><path class="b" d="M156.578,177.484a2.476,2.476,0,0,0,3.413-.509l1.3-1.71c2.76-3.644,5.614-7.413,8.688-10.828a2.477,2.477,0,0,0-.221-3.525c-2.353-2.036-4.658-4.19-6.889-6.271-1.2-1.118-2.392-2.231-3.59-3.326a2.475,2.475,0,0,0-3.464.125c-2.638,2.787-5.037,5.822-7.359,8.757-1.289,1.631-2.577,3.26-3.906,4.848a2.473,2.473,0,0,0,.3,3.474C148.6,171.7,152.537,174.577,156.578,177.484Zm-4.246-14.218c1.749-2.214,3.547-4.487,5.426-6.622q.866.8,1.731,1.613c1.677,1.566,3.4,3.171,5.163,4.75-2.514,2.951-4.861,6.038-7.141,9.051-2.6-1.886-5.143-3.778-7.593-5.759C150.728,165.294,151.531,164.28,152.332,163.266Z" transform="matrix(0.966, -0.259, 0.259, 0.966, 1597.004, 448.852)"/><g transform="translate(-1735 8043)"><path class="b" d="M158.034,200.831a1.524,1.524,0,0,0-1.1.438,1.5,1.5,0,0,0-.439,1.1c.086,3.372.152,6.745.218,10.118.114,5.812.232,11.822.453,17.74a1.5,1.5,0,0,0,1.271,1.426,14.137,14.137,0,0,0,2.153.161,29.15,29.15,0,0,0,6.695-1.03c.84-.2,1.681-.4,2.527-.563a1.5,1.5,0,0,0,1.211-1.525c-.313-8.786-.368-17.529-.381-25.669a1.5,1.5,0,0,0-1.466-1.5c-1.866-.043-3.754-.2-5.58-.347C161.788,201.035,159.92,200.881,158.034,200.831Zm9.947,26.711c-.463.1-.924.213-1.385.321a26.457,26.457,0,0,1-6.007.951c-.16,0-.318,0-.473-.009-.19-5.468-.3-11.007-.4-16.377q-.082-4.266-.178-8.533c1.282.07,2.565.175,3.817.277,1.4.116,2.838.233,4.294.3C167.661,211.836,167.722,219.657,167.981,227.542Z" transform="translate(2622.96 -8035.916)"/><path class="b" d="M178.129,230.275a1.5,1.5,0,0,0,1.472,1.413c.806.014,1.608.035,2.409.056,1.391.036,2.777.071,4.166.071a50.48,50.48,0,0,0,5.4-.251,1.5,1.5,0,0,0,1.341-1.557c-.151-3.434-.36-6.919-.561-10.29-.39-6.525-.794-13.272-.794-19.885,0-1.824.029-3.519.088-5.186a1.5,1.5,0,0,0-.435-1.11,1.451,1.451,0,0,0-1.108-.442c-3.166.093-6.388.384-9.505.666l-2.228.2a1.5,1.5,0,0,0-1.368,1.562c.237,5.138.354,10.418.467,15.524C177.614,217.354,177.758,223.877,178.129,230.275Zm2.744-33.527c2.545-.23,5.161-.467,7.732-.593-.028,1.187-.042,2.4-.042,3.677,0,6.7.406,13.5.8,20.064.173,2.889.351,5.862.493,8.807-1.114.076-2.314.112-3.679.112s-2.724-.035-4.089-.07l-1.039-.027c-.312-5.9-.446-11.913-.575-17.739-.1-4.651-.209-9.446-.406-14.16Z" transform="translate(2622.96 -8035.916)"/><path class="b" d="M211.089,229.863c1.8,0,3.182-.023,4.484-.073a1.5,1.5,0,0,0,1.439-1.6c-.939-14.353-1.855-29.693-1.855-45.553a1.5,1.5,0,0,0-2.437-1.171c-2.234,1.787-4.994,2.1-7.916,2.43a31.206,31.206,0,0,0-4.7.778,1.5,1.5,0,0,0-1.105,1.483c.1,4.025.168,8.027.24,12.016.178,9.919.363,20.177.927,30.355a1.5,1.5,0,0,0,1.5,1.417l.071,0c1.826-.086,3.622-.1,4.984-.1q1.09,0,2.18.006C209.625,229.859,210.356,229.863,211.089,229.863Zm-8.011-2.969c-.5-9.642-.674-19.36-.844-28.772q-.1-5.386-.212-10.811c.991-.19,2.033-.309,3.119-.431a22.775,22.775,0,0,0,7.024-1.584c.091,14.435.9,28.392,1.752,41.541-.839.017-1.757.026-2.828.026-.728,0-1.454,0-2.18-.007s-1.463-.007-2.195-.007C205.69,226.849,204.426,226.855,203.078,226.894Z" transform="translate(2622.96 -8035.916)"/></g><g transform="translate(1759.15 8505.911) rotate(-30)"><path class="b" d="M157.7,200.831a1.2,1.2,0,0,0-.865.344,1.181,1.181,0,0,0-.345.864c.068,2.649.119,5.3.171,7.949.09,4.566.182,9.288.356,13.937a1.178,1.178,0,0,0,1,1.12,11.108,11.108,0,0,0,1.691.126,22.9,22.9,0,0,0,5.26-.809c.66-.156,1.321-.312,1.985-.442a1.178,1.178,0,0,0,.951-1.2c-.246-6.9-.289-13.771-.3-20.167a1.178,1.178,0,0,0-1.152-1.176c-1.466-.034-2.949-.156-4.384-.273S159.186,200.87,157.7,200.831Zm7.815,20.985c-.364.082-.726.167-1.088.252a20.786,20.786,0,0,1-4.719.747c-.126,0-.25,0-.372-.007-.149-4.3-.235-8.648-.318-12.866q-.065-3.352-.14-6.7c1.007.055,2.015.137,3,.218,1.1.091,2.23.183,3.374.239C165.267,209.477,165.315,215.621,165.519,221.816Z" transform="translate(2622.96 -8040.137)"/><path class="b" d="M177.888,222.3a1.178,1.178,0,0,0,1.156,1.11c.633.011,1.263.027,1.893.044,1.093.028,2.182.056,3.273.056a39.658,39.658,0,0,0,4.243-.2,1.177,1.177,0,0,0,1.054-1.223c-.119-2.7-.283-5.436-.441-8.084-.306-5.126-.624-10.427-.624-15.622,0-1.433.023-2.765.069-4.074a1.181,1.181,0,0,0-.342-.872,1.14,1.14,0,0,0-.87-.347c-2.487.073-5.019.3-7.468.523l-1.75.156A1.178,1.178,0,0,0,177.007,195c.186,4.037.278,8.185.367,12.2C177.484,212.153,177.6,217.278,177.888,222.3Zm2.156-26.34c2-.181,4.055-.367,6.075-.466-.022.933-.033,1.887-.033,2.889,0,5.266.319,10.6.628,15.763.136,2.27.276,4.605.387,6.919-.875.06-1.818.088-2.89.088s-2.14-.028-3.212-.055l-.816-.021c-.245-4.637-.35-9.359-.452-13.936-.081-3.654-.164-7.421-.319-11.125Z" transform="translate(2618.563 -8038.478)"/><path class="b" d="M208.5,219.419c1.413,0,2.5-.018,3.523-.057a1.179,1.179,0,0,0,1.131-1.255c-.738-11.276-1.457-23.328-1.457-35.788a1.178,1.178,0,0,0-1.915-.92c-1.755,1.4-3.923,1.649-6.219,1.909a24.519,24.519,0,0,0-3.7.611,1.177,1.177,0,0,0-.868,1.165c.075,3.162.132,6.306.189,9.44.14,7.793.285,15.852.728,23.848a1.178,1.178,0,0,0,1.176,1.113l.056,0c1.435-.068,2.846-.076,3.916-.076q.857,0,1.713,0C207.346,219.416,207.921,219.419,208.5,219.419Zm-6.294-2.333c-.392-7.575-.53-15.21-.663-22.6q-.075-4.232-.167-8.494c.779-.149,1.6-.243,2.45-.339a17.892,17.892,0,0,0,5.518-1.244c.072,11.341.706,22.306,1.376,32.636-.659.013-1.38.02-2.222.02-.572,0-1.142,0-1.713-.005s-1.149-.005-1.724-.005C204.255,217.051,203.262,217.056,202.2,217.086Z" transform="translate(2613.849 -8035.916)"/></g><path class="c" d="M8.127,17.534,8.08,16.88c-.141-1.969-.272-3.9-.389-5.816-2.068.032-4.137.067-6.191.067a1.5,1.5,0,1,1,0-3c2,0,4.016-.032,6.03-.065.317,0,.631,0,.948-.01.686-.011,1.368-.012,2.053-.022,1.661-.025,3.324-.054,4.973-.054a1.5,1.5,0,0,1,0,3c-1.595,0-3.2.029-4.81.052.114,1.858.241,3.725.378,5.634l.046.655a1.5,1.5,0,0,1-1.389,1.6c-.036,0-.072,0-.108,0A1.5,1.5,0,0,1,8.127,17.534ZM7.356,1.5a1.5,1.5,0,0,1,3,0c0,2.215.073,4.376.175,6.533-.685.01-1.367.011-2.053.022-.317.005-.631.005-.948.01C7.428,5.9,7.356,3.734,7.356,1.5Z" transform="translate(1366.087 262.128)"/><path class="c" d="M8.127,17.534,8.08,16.88c-.141-1.969-.272-3.9-.389-5.816-2.068.032-4.137.067-6.191.067a1.5,1.5,0,1,1,0-3c2,0,4.016-.032,6.03-.065.317,0,.631,0,.948-.01.686-.011,1.368-.012,2.053-.022,1.661-.025,3.324-.054,4.973-.054a1.5,1.5,0,0,1,0,3c-1.595,0-3.2.029-4.81.052.114,1.858.241,3.725.378,5.634l.046.655a1.5,1.5,0,0,1-1.389,1.6c-.036,0-.072,0-.108,0A1.5,1.5,0,0,1,8.127,17.534ZM7.356,1.5a1.5,1.5,0,0,1,3,0c0,2.215.073,4.376.175,6.533-.685.01-1.367.011-2.053.022-.317.005-.631.005-.948.01C7.428,5.9,7.356,3.734,7.356,1.5Z" transform="translate(885.712 514.919) rotate(47)"/><path class="c" d="M16.73,36.062l-.1-1.346c-.291-4.05-.56-8.011-.8-11.961-4.258.067-8.517.137-12.745.137a3.086,3.086,0,1,1,0-6.171c4.119,0,8.267-.067,12.413-.133.652-.009,1.3-.009,1.951-.02,1.412-.022,2.816-.024,4.226-.044,3.42-.052,6.842-.111,10.238-.111a3.085,3.085,0,1,1,0,6.169c-3.283,0-6.594.059-9.9.107.235,3.822.5,7.661.778,11.587l.094,1.348a3.085,3.085,0,0,1-2.859,3.3c-.074.006-.148.007-.222.007A3.085,3.085,0,0,1,16.73,36.062ZM15.142,3.086a3.089,3.089,0,0,1,6.177,0c0,4.555.15,9,.359,13.437-1.41.02-2.814.022-4.226.044-.652.011-1.3.011-1.951.02C15.291,12.143,15.142,7.68,15.142,3.086Z" transform="translate(1449.339 537.279) rotate(47)"/><path class="c" d="M0,108.354C0,94.334,9.188,77.828,26.767,72.84c.56-10.4.821-19.2.821-27.6q0-.427,0-.856c-7.348-.542-9.415-2.9-9.415-10.1l0-.584a1.5,1.5,0,0,1,1.858-1.441A57.489,57.489,0,0,0,33.91,33.7c1.28,0,9.922-.157,17.377-.85a1.507,1.507,0,0,1,1.624,1.292,20.4,20.4,0,0,1,.215,2.758c0,6.15-4.52,7.828-7.72,8.59-.006,1.318-.024,2.99-.047,5.081C45.3,55.905,45.221,63.9,45.2,75.7c1.227.588,2.437,1.156,3.63,1.718,14.227,6.693,26.514,12.475,26.514,31.952,0,9.595-5.07,18.5-14.277,25.058-7.614,5.427-17.511,8.8-25.828,8.8A35.1,35.1,0,0,1,0,108.354Zm3,0a32.092,32.092,0,0,0,32.242,31.868c15.129,0,37.105-12.02,37.105-30.856a32.176,32.176,0,0,0-1.1-8.8,1.481,1.481,0,0,1-.713.188h-.5a7.78,7.78,0,0,0-5.273,1.8,9.142,9.142,0,0,1-5.872,2.084c-6.089,0-9.655-4.079-11.292-6.351-4.075,3.893-8.113,5.942-11.74,5.942-6.622,0-11.032-4.975-12.862-7.15-1.808,1.14-5.715,3.523-9.953,3.523A17.248,17.248,0,0,1,4.62,98.316,33.086,33.086,0,0,0,3,108.354Zm46.455-12.66c1.088,1.624,3.98,5.941,9.434,5.941a6.2,6.2,0,0,0,4.144-1.535,10.753,10.753,0,0,1,7-2.347l.214,0h.283a1.5,1.5,0,0,1,1.5,1.5,1.5,1.5,0,0,0-1.5-1.5h-.283c-3.731-8.7-12.136-12.659-22.694-17.626-1.474-.694-2.979-1.4-4.507-2.141a1.5,1.5,0,0,1-.846-1.352c.015-12.331.1-20.615.159-26.1.029-2.778.05-4.812.05-6.254A1.5,1.5,0,0,1,43.6,42.818c4.235-.9,6.529-2.111,6.529-5.919,0-.29-.011-.6-.036-.934-7.259.6-14.891.734-16.181.734a63.758,63.758,0,0,1-12.72-1.111c.139,4.536,1.267,5.6,7.952,5.874a1.5,1.5,0,0,1,1.439,1.489q.007,1.143.006,2.284c0,8.752-.281,17.921-.884,28.855a1.5,1.5,0,0,1-1.131,1.372A33.669,33.669,0,0,0,5.639,95.549l-.059-.01.059.01a1.461,1.461,0,0,1,.464.162A14.233,14.233,0,0,0,13.042,97.6c3.512,0,6.9-2.141,8.527-3.17.838-.531,1.184-.75,1.721-.75.775,0,1.163.463,1.8,1.229,1.446,1.727,5.284,6.317,10.764,6.317,3.065,0,6.845-2.158,10.643-6.078a1.682,1.682,0,0,1,1.289-.666C48.641,94.48,49.037,95.069,49.455,95.693Zm-45.4.589a1.489,1.489,0,0,0-.193.725,1.489,1.489,0,0,1,.193-.725q.023-.041.048-.079Q4.083,96.241,4.06,96.282ZM5.5,95.529q-.063-.006-.127-.006C5.417,95.524,5.459,95.526,5.5,95.529Zm-.187-.006h0Zm28.7-9.172a4.174,4.174,0,0,1,3.623-4.228,1.5,1.5,0,0,1,1.318-.3l.473.113c1.636.388,4.374,1.036,4.374,4.309a5.025,5.025,0,0,1-4.546,4.464C36.648,90.714,34.011,89.216,34.011,86.352Zm3,0c0,1.118,1.618,1.362,2.243,1.362A2.3,2.3,0,0,0,40.8,86.25c0-.627-.114-.861-1.252-1.183a2.916,2.916,0,0,1-.765.017c-.139-.008-.293-.017-.435-.017A1.26,1.26,0,0,0,37.011,86.352Zm34.9-25.111c0-1.932,1.055-4.631,6.085-6.515a1.5,1.5,0,0,1,1.426.2,7.862,7.862,0,0,1,3.127,4.738,7.553,7.553,0,0,1,.158,1.46c0,2.534-2.525,5.766-4.5,5.766C75.288,66.894,71.906,64.424,71.906,61.241Zm3,0c0,1.221,1.61,2.56,3.135,2.648A4.357,4.357,0,0,0,79.7,61.128a4.654,4.654,0,0,0-.1-.874,4.562,4.562,0,0,0-1.36-2.394C76.573,58.593,74.906,59.708,74.906,61.241Zm5.408-30.91a1.5,1.5,0,0,1-1.017-.578L73,21.542a1.5,1.5,0,0,1,.3-2.119c2.292-1.695,4.989-3.722,7.609-5.9a1.5,1.5,0,0,1,2.2.3,95.876,95.876,0,0,0,6.024,8.131,1.5,1.5,0,0,1-.248,2.18c-2.529,1.876-4.961,3.847-7.438,5.872a1.5,1.5,0,0,1-.95.338A1.632,1.632,0,0,1,80.314,30.332ZM76.3,20.924,80.738,26.7c1.686-1.372,3.365-2.719,5.086-4.03-1.543-1.914-2.965-3.92-4.271-5.808C79.75,18.324,77.953,19.694,76.3,20.924ZM28.635,15.492a5.352,5.352,0,0,1,4.158-4.9,1.5,1.5,0,0,1,1.036.113c.256.129.538.238.821.351,1.224.486,2.9,1.151,3.464,3.135a5.649,5.649,0,0,1,.181,1.49c0,3.039-2.1,4.681-4.084,4.681C32.625,20.364,28.635,18.915,28.635,15.492Zm3,0c0,1.157,2.043,1.868,2.576,1.872.044,0,1.084-.019,1.084-1.68a2.689,2.689,0,0,0-.067-.667c-.146-.511-.625-.75-1.687-1.17-.157-.063-.313-.125-.466-.189A2.365,2.365,0,0,0,31.635,15.492Zm26.438-3.22A3.047,3.047,0,0,1,55.536,10.5a3.377,3.377,0,0,0-.34-.492,4.286,4.286,0,0,1-1.609-3.482C53.587,2.5,56.606,0,61.461,0c2.426,0,6.144,3.594,6.144,6.7,0,5.571-6.16,5.571-8.791,5.571ZM56.588,6.524a1.329,1.329,0,0,0,.53,1.178,4.786,4.786,0,0,1,.967,1.213c.068.108.158.253.231.355h.5c4.868,0,5.791-.9,5.791-2.57,0-1.467-2.346-3.67-3.145-3.7C59.238,3,56.588,3.611,56.588,6.524Z" transform="translate(1775.38 398.669) rotate(-20)"/><path class="c" d="M193.181,167.955a1.522,1.522,0,0,1-.027-.273,51.992,51.992,0,0,0-.46-6.965,31.274,31.274,0,0,1-6.584,2.984c-1,.364-2.025.741-2.99,1.145.207,1.082.381,2.122.532,3.109h-3.035c-.951-6.064-2.722-13.73-7.872-19.3a1.485,1.485,0,0,1-.981.388,1.5,1.5,0,0,1-1.4-2.027c.055-.147.122-.286.181-.428-3.971-3.239-9.518-5.381-17.383-5.381-.275,0-.531,0-.78.006a1.4,1.4,0,0,1-.3.048,1.49,1.49,0,0,1-.2-.032c-3.924.135-4.461.993-4.48,3.647.316,1.473,2.66,12.6,3.806,23.084h-3.017c-1.215-10.909-3.724-22.467-3.756-22.607a1.522,1.522,0,0,1-.033-.32c0-5.273,2.9-6.5,6.549-6.758-.094.339-.184.679-.294,1.012a1.522,1.522,0,0,0-.077.482,1.522,1.522,0,0,1,.077-.482c.111-.333.2-.672.294-1.012a46.722,46.722,0,0,0,1.021-5.157,41.157,41.157,0,0,1,1.433-6.65,1.5,1.5,0,1,1,2.845.95,38.46,38.46,0,0,0-1.315,6.169c-.242,1.531-.5,3.1-.87,4.644,7.927.157,13.691,2.339,17.9,5.6q.227-.381.454-.754c1.246-2.053,2.424-3.992,2.424-6.52a1.5,1.5,0,1,1,3,0c0,3.367-1.518,5.869-2.858,8.077-.25.412-.491.815-.722,1.218,4.577,4.587,6.9,10.57,8.216,16.025-.258.1-.52.2-.776.311a1.5,1.5,0,0,0-.909,1.386,1.5,1.5,0,0,1,.909-1.386c.256-.109.518-.207.776-.311.868-.346,1.745-.677,2.607-.991a28.386,28.386,0,0,0,5.99-2.686,1.485,1.485,0,0,1,1.159-.214,37.021,37.021,0,0,0-10.48-19.742c-12-11.732-29.548-13.64-33.745-13.927-.248,0-.45-.009-.61-.014-1.574-.051-1.9-.859-1.9-1.527a1.511,1.511,0,0,1,1.609-1.507c.02,0,.374.008,1.007.049.081,0,.172,0,.269,0a2.708,2.708,0,0,1,1.028.107,65.713,65.713,0,0,1,23.1,6.617c10.786,5.541,23.647,16.918,23.647,39.65a1.522,1.522,0,0,1-.028.273Zm-105.047,0a26.651,26.651,0,0,1-.322-4.226c0-2.125.2-4.266.383-6.337.182-2.011.371-4.09.371-6.093,0-3.721-.407-5.844-1.243-6.491-1.026-.8-3.916-.046-7.573.9a90.01,90.01,0,0,1-24.18,3.416c-35.468,0-38.109-21.681-39.856-36.028-.2-1.674-.4-3.254-.626-4.7a1.4,1.4,0,0,1-.013-.211h0a7.009,7.009,0,0,1-2.82-4.5c-2.293,4.194-5.039,6.778-6.556,6.778-1.859,0-5.7-2.617-5.7-10.7,0-9.091,4.656-14.1,13.112-14.1a19.094,19.094,0,0,1,2.166.124c-.033.1-.065.209-.1.3a1.5,1.5,0,0,0-.107.549,1.5,1.5,0,0,1,.107-.549c.037-.09.068-.2.1-.3a32.565,32.565,0,0,0,.9-6.5C16.7,72.685,17.35,64.455,23.9,64.455c3.691,0,4.089,6.4,4.089,9.155a60.3,60.3,0,0,1-.433,6.235,59.5,59.5,0,0,0-.424,6.074c0,4.945,1.292,5.444,2.93,6.077,2.1.81,3.981,1.893,3.981,6.175,0,2.156-1.207,3.834-2.374,5.456a13.58,13.58,0,0,0-1.666,2.756c-.01-.189-.028-.374-.036-.566a1.487,1.487,0,0,0-1.526-1.438,1.489,1.489,0,0,1,1.525,1.438c.008.192.026.377.036.566.982,17.209,13.518,26.491,24.964,26.491,9.794,0,14.238-2.459,19.384-5.308a55.034,55.034,0,0,1,20.619-7.3,1.484,1.484,0,0,1-.027-.27c0-1.111-.055-2.356-.108-3.56-.055-1.237-.111-2.516-.107-3.731-14.44-1.393-23.564-3.907-29.607-7.846-10.9-7.109-11.72-18.8-11.72-35.833,0-12.626,10-20.163,26.744-20.163,1.417,0,2.956.039,4.7.12,3.239.152,6.588.225,10.237.225,1.613,0,3.236-.025,4.859-.052-.122-2.474-.239-5-.239-7.51,0-15.839,5.869-23.871,17.445-23.871,10.157,0,16.222,10.708,16.222,28.644l0,1.464c3.874-.127,7.763-.217,11.633-.217h.668c14.852.029,23.813,0,29.5,3.813,6.381,4.281,7.663,13.185,7.663,26.163V79.4c.014,11.908.022,20.511-5.646,26.186-5.534,5.539-16.258,8.021-37.388,8.446a1.523,1.523,0,0,1-.112.305,4.228,4.228,0,0,0-.452,1.957,12.692,12.692,0,0,0,.274,2.211c.1.542.192,1.1.257,1.679q2.07.119,4.145.224a1.5,1.5,0,1,1-.146,3c-3.151-.153-6.288-.346-9.419-.537-6.773-.414-13.776-.842-20.666-.842-23.117,0-30.956,4.341-37.874,8.169a52.485,52.485,0,0,1-7.184,3.5,1.48,1.48,0,0,0-.609.187c-.028.015-.049.038-.076.055a38.327,38.327,0,0,1-12.968,1.943,26.521,26.521,0,0,1-4.878-.458,1.494,1.494,0,0,0-1.23-1.258,1.366,1.366,0,0,0-.233-.02,1.366,1.366,0,0,1,.233.02,1.494,1.494,0,0,1,1.23,1.258,1.457,1.457,0,0,1,0,.468c-.048.289-.094.588-.14.895-.436,2.825-.976,6.342-3.977,8.343a1.486,1.486,0,0,1-.748.239,64.884,64.884,0,0,0,10.341.769,80.544,80.544,0,0,0,14.811-1.338,24,24,0,0,0-2.926-8.869,1.5,1.5,0,0,1,.482-1.992c.026-.017.048-.04.076-.055a1.48,1.48,0,0,1,.609-.187,1.5,1.5,0,0,1,1.438.746,26.768,26.768,0,0,1,3.264,9.762c2.11-.464,3.989-.95,5.672-1.388,4.8-1.245,7.969-2.068,10.162-.373,1.732,1.34,2.407,3.824,2.407,8.863,0,2.138-.194,4.287-.383,6.365-.183,2-.371,4.076-.371,6.065a23.118,23.118,0,0,0,.354,4.226ZM23.2,131.034c3.375,6.611,9.523,12.178,21.442,14.24a1.48,1.48,0,0,1-.742-.568,1.5,1.5,0,0,1,.416-2.081c1.9-1.267,2.313-3.942,2.675-6.3.05-.319.1-.631.148-.932a1.466,1.466,0,0,1,.268-.628,26.594,26.594,0,0,1-12.521-8.247c-.467-.544-.911-1.112-1.342-1.693A31.787,31.787,0,0,1,23.2,131.034Zm-5.147-23.1c.056.349.1.724.155,1.084.171,1.187.329,2.417.488,3.723.6,4.9,1.274,10.429,3.278,15.558.026-.01.049-.025.076-.034a29.324,29.324,0,0,0,9.818-5.949A34.892,34.892,0,0,1,27.046,107.1v0a1.479,1.479,0,0,1-.1-1.069c.007-.026.019-.049.027-.075v-.007a1.5,1.5,0,0,1,.413-1.094l0,0a18.127,18.127,0,0,1,1.85-2.969c.969-1.35,1.809-2.516,1.809-3.705,0-2.579-.646-2.83-2.062-3.377a8.527,8.527,0,0,1-2.3-1.234,6.216,6.216,0,0,1-2.111-3.527,6.311,6.311,0,0,0,2.108,3.54c-.318.876-.622,1.792-.932,2.726-1.51,4.554-3.222,9.716-7.4,12.641-.044.031-.093.049-.139.076-.051-.36-.1-.735-.155-1.084a1.5,1.5,0,0,0-1.718-1.245,1.481,1.481,0,0,0-.426.135,1.54,1.54,0,0,1,.666-.154A1.5,1.5,0,0,1,18.05,107.932ZM34.189,122.3a1.492,1.492,0,0,1,.361.983,1.492,1.492,0,0,0-.361-.983c-.018-.022-.037-.042-.056-.062C34.152,122.258,34.171,122.279,34.189,122.3Zm-.086-.094a1.5,1.5,0,0,0-1.033-.431A1.5,1.5,0,0,1,34.1,122.207Zm104.787-2.077L136.715,120Zm-4.361-.26,2.185.131c-.048-.319-.1-.638-.16-.967a15.325,15.325,0,0,1-.32-2.743,7.3,7.3,0,0,1,.342-2.216c-1.255.013-2.533.02-3.856.02-14.116,0-25.6-.349-34.988-1.12.006,1.055.054,2.208.1,3.333.052,1.19.1,2.413.108,3.552a131.525,131.525,0,0,1,15.737-.837C120.661,119.021,127.711,119.452,134.529,119.869Zm2.048-5.8a7.3,7.3,0,0,1,.427-1.083A7.114,7.114,0,0,0,136.577,114.074Zm-38.849-1.327c0-.02,0-.039,0-.058C97.727,112.708,97.727,112.727,97.727,112.747Zm-3-.039a1.5,1.5,0,0,1,1.5-1.462h0A1.5,1.5,0,0,0,94.731,112.708Zm44.262-.4-.053-.024Zm-.635-.147h0ZM56.4,69.029c0,33.344,3.026,42.065,76.316,42.065,24.659,0,36.927-2.212,42.344-7.634,4.788-4.794,4.78-12.458,4.768-24.062V77.647c0-14.157-1.717-20.573-6.335-23.673-4.925-3.3-13.589-3.315-27.825-3.3H145c-4.338,0-8.709.106-13.059.262a1.5,1.5,0,0,0,1.191-.7,1.5,1.5,0,0,1-1.648.655,1.514,1.514,0,0,0,.377.049h.031c-3.992.142-7.965.327-11.875.508-6.032.279-12.215.564-18.383.694l-.043,0c-.025,0-.05,0-.09,0a1.5,1.5,0,0,1-1.482-1.423l-.03-.584c-.015-.3-.027-.609-.042-.912.015.3.027.613.042.913l.029.583A1.5,1.5,0,0,0,101.5,52.14q-3.214.067-6.416.072c-3.7,0-7.091-.076-10.376-.229-1.7-.079-3.193-.117-4.564-.117C58.719,51.866,56.4,63.868,56.4,69.029ZM3,99.769c0,5.261,1.833,7.212,2.593,7.628,1.352-.944,5.9-6.07,7.206-14.565a1.5,1.5,0,0,1,2.975.378c-.071.711-.185,1.509-.306,2.356a37.728,37.728,0,0,0-.5,5.192c0,3.415,1.105,4.681,2.273,5.251,2.935-2.447,4.317-6.616,5.657-10.656.231-.7.46-1.386.693-2.056a13.092,13.092,0,0,0-10.48-4.627C6.307,88.672,3,92.3,3,99.769ZM19.164,79.534a37.765,37.765,0,0,1-.925,6.852,15.435,15.435,0,0,1,6.3,3.522,17.076,17.076,0,0,1-.4-3.988,61.476,61.476,0,0,1,.441-6.385,57.35,57.35,0,0,0,.416-5.924c0-3.256-.664-5.724-1.162-6.154C20.389,67.527,19.7,72.738,19.164,79.534Zm-2.6,8.618a1.486,1.486,0,0,1-.52-.1A1.486,1.486,0,0,0,16.561,88.151Zm85.2-36.032a1.5,1.5,0,0,0,1.137-.885A1.512,1.512,0,0,1,101.76,52.12Zm28.6-2.691a1.5,1.5,0,0,0,.5,1.119,1.5,1.5,0,0,1-.5-1.119l0-1.435.005-1.571c0-23.8-10.121-25.644-13.222-25.644-9.72,0-14.445,6.826-14.445,20.87,0,2.468.117,4.984.24,7.448h0c5.679-.141,11.371-.4,16.934-.654,3.452-.16,6.961-.316,10.487-.45Zm2.774.8,0-.008Zm-28.01,101.351c-.031-.733-.043-1.463-.043-2.2,0-1.712.069-3.437.136-5.106.066-1.639.133-3.334.133-4.985q0-.8-.022-1.588a1.5,1.5,0,0,1,1.257-1.525A81.053,81.053,0,0,1,119.8,135.4l2.6,0c3.083,0,6.364-.026,9.591-.341a1.5,1.5,0,0,1,1.644,1.557q-.043,1.023-.043,2.055A80.708,80.708,0,0,0,134.709,151a1.5,1.5,0,0,1-1.422,1.728c-5.112.207-10.3.207-15.308.207-3.713,0-7.552,0-11.353.085A1.5,1.5,0,0,1,105.128,151.577Zm3.225-12.63c0,.114,0,.227,0,.342,0,1.711-.069,3.436-.137,5.1-.065,1.639-.132,3.334-.132,4.986q0,.3,0,.607c3.314-.057,6.65-.057,9.892-.057,4.435,0,9,0,13.517-.144a78.584,78.584,0,0,1-.9-11.117c0-.162,0-.324,0-.485-2.794.2-5.566.214-8.194.214l-2.6,0A85.9,85.9,0,0,0,108.353,138.947ZM80.14,81.879c0-8.785,6.912-17.5,15.408-19.434a17.564,17.564,0,0,1,3.891-.428c10.856,0,20.378,8.736,20.378,18.694a12.838,12.838,0,0,1-.22,2.191,1.5,1.5,0,0,0-1.394-.954c-.506,0-.987.007-1.468.015a9.842,9.842,0,0,0,.083-1.252c0-8.618-8.446-15.13-16.378-15.644a45.988,45.988,0,0,0-.355,5.893v.968c0,6.111,0,10.148.891,10.939.561.5,2.561.245,5.093-.073a93.4,93.4,0,0,1,10.667-.832c.481-.008.962-.015,1.468-.015a1.5,1.5,0,0,1,1.011,2.6,21.723,21.723,0,0,1-5.042,8.643A20.6,20.6,0,0,1,99.116,99.9C89.007,99.9,80.14,91.477,80.14,81.879ZM96.212,65.371C89,67.009,83.139,74.416,83.139,81.879c0,7.1,6.562,15.018,15.977,15.018,8.458,0,14.649-6.155,16.835-11.917a92.468,92.468,0,0,0-9.512.79,35.382,35.382,0,0,1-4.112.374,4.72,4.72,0,0,1-3.339-1.029c-1.91-1.687-1.909-4.819-1.906-13.189v-.967a49.656,49.656,0,0,1,.325-5.789C97,65.227,96.6,65.282,96.212,65.371Zm2.961-2.182a1.5,1.5,0,0,1,1.3,1.495,1.5,1.5,0,0,0-1.3-1.495l-.067-.007Zm-.11-.01-.076,0Zm32.648,17.234a18.769,18.769,0,0,1,10.9-16.463,20.942,20.942,0,0,1,8.492-2.133c10.16,0,19.413,8.7,19.413,18.253,0,8.563-8.342,19.427-17.717,19.427C141.369,99.5,131.711,90.759,131.711,80.414Zm12.1-13.715a15.651,15.651,0,0,0-9.1,13.715c0,8.568,8.454,16.084,18.089,16.084,5.947,0,11.605-5.7,13.775-11.615-1.539-.008-3.209.067-4.8.156-1.515.085-3.081.172-4.64.172-5.015,0-7.316-.481-8.492-1.774a4.023,4.023,0,0,1-.752-3.373c.03-.311.063-.64.063-.985,0-3.41-.332-6.967-.654-10.408-.1-1.076-.191-2.131-.28-3.189A29.293,29.293,0,0,0,143.815,66.7Zm24.734,18.247h0ZM167.358,81.9c.446.011.892.024,1.309.054a1.5,1.5,0,0,1,1.393,1.488,1.5,1.5,0,0,0-1.393-1.488c-.417-.03-.863-.043-1.309-.054a12.293,12.293,0,0,0,.159-1.826c0-7.841-7.976-15.253-16.412-15.253-.379,0-.753.023-1.124.059-.021-.256-.049-.518-.068-.772.019.254.048.517.068.772.1,1.162.2,2.33.309,3.517.329,3.506.667,7.134.667,10.685,0,.445-.038.871-.076,1.272a3.377,3.377,0,0,0-.014,1.069c.169.185,1.12.791,6.272.791,1.476,0,3-.086,4.472-.168,1.528-.086,3.141-.158,4.671-.158C166.645,81.884,167,81.888,167.358,81.9ZM149.9,64a1.5,1.5,0,0,0-1.438-1.284A1.5,1.5,0,0,1,149.9,64Zm-1.474-1.285h0ZM131.945,50.932l-.049,0Zm9.241-8.148a1.5,1.5,0,0,1,.728-2.911,4.808,4.808,0,0,0,2.317-.383,9.2,9.2,0,0,1,2.813-.576,1.5,1.5,0,1,1,0,3,6.777,6.777,0,0,0-1.9.432,9.191,9.191,0,0,1-2.812.576A4.734,4.734,0,0,1,141.186,42.784Zm-26.053-5.5c-.824-1.634-1.4-2.641-2.354-2.689a8.438,8.438,0,0,0-1.449,1.489,14.905,14.905,0,0,1-2.3,2.33,1.5,1.5,0,0,1-1.8-2.4,12.547,12.547,0,0,0,1.811-1.871c1.111-1.311,2.162-2.549,3.666-2.549,2.913,0,4.178,2.507,5.1,4.339.443.877,1.049,2.078,1.483,2.078.71,0,2.258-1.21,3.388-2.092a26.783,26.783,0,0,1,2.531-1.823,1.5,1.5,0,0,1,1.544,2.573,24.213,24.213,0,0,0-2.228,1.615c-1.8,1.4-3.493,2.727-5.234,2.727C117.013,41.006,115.97,38.94,115.132,37.28ZM81.12,39.624a1.5,1.5,0,0,1,0-3h9.614a1.5,1.5,0,0,1,0,3ZM140.208,33.3a1.5,1.5,0,0,1,.671-2.013,14.186,14.186,0,0,1,3.055-1.029,11.66,11.66,0,0,0,2.44-.8,1.5,1.5,0,0,1,1.342,2.684,14.148,14.148,0,0,1-3.055,1.028,11.612,11.612,0,0,0-2.44.8,1.5,1.5,0,0,1-2.012-.671ZM25.753,30.224c0-2.153-.183-4.357-.359-6.488-.009-.1-.016-.208-.024-.31-2.078.153-4.189.283-6.258.283-1.113,0-2.133-.037-3.114-.112a1.5,1.5,0,1,1,.23-2.991c.905.068,1.848.1,2.884.1,1.968,0,4.012-.127,6.032-.276.545-.04,1.091-.082,1.631-.122l1.362-.1c2.119-.159,4.27-.3,6.35-.3a1.5,1.5,0,0,1,0,3c-1.987,0-4.015.131-6.125.29l.024.292c.181,2.191.369,4.458.369,6.735a1.5,1.5,0,0,1-3,0Zm65.34-4.9a51.419,51.419,0,0,1-7.083-3.769,1.5,1.5,0,0,1,1.544-2.572,49.1,49.1,0,0,0,6.653,3.556,1.5,1.5,0,1,1-1.114,2.785Zm44.424-4.691a1.5,1.5,0,0,1,1.092-1.82,8.941,8.941,0,0,0,2.614-1.363,20,20,0,0,1,2.115-1.27,1.5,1.5,0,1,1,1.342,2.683,17.807,17.807,0,0,0-1.806,1.091,11.433,11.433,0,0,1-3.537,1.769,1.5,1.5,0,0,1-1.819-1.091ZM25.027,17.053a29.633,29.633,0,0,1,.606-6.253,1.5,1.5,0,1,1,2.934.629,26.631,26.631,0,0,0-.54,5.624c0,1.04.044,2.1.109,3.153l-1.362.1c-.54.04-1.085.083-1.631.122C25.074,19.312,25.027,18.182,25.027,17.053Zm77.465-4.421a6.728,6.728,0,0,1-1.781-4.07,4.465,4.465,0,0,0-.647-2.043,1.5,1.5,0,0,1,2.4-1.8,7.074,7.074,0,0,1,1.21,3.363,3.88,3.88,0,0,0,.94,2.427,1.5,1.5,0,0,1-2.121,2.121Zm20.84-4.183A1.5,1.5,0,0,1,122.24,6.63a20.919,20.919,0,0,0,.414-5.13,1.5,1.5,0,1,1,3,0,23.581,23.581,0,0,1-.5,5.857,1.5,1.5,0,0,1-1.82,1.092Z" transform="translate(42.228 471.373)"/><path class="c" d="M23.647,142.891c-1.228-4.763-.833-8.405.153-10.455a6.213,6.213,0,0,1-2.857-3.531,6.871,6.871,0,0,1,.531-5.1,6.151,6.151,0,0,1,3.47-3.215,5.416,5.416,0,0,1,1.721-.27,7.067,7.067,0,0,1,4.05,1.21q.113-.273.238-.541a1.322,1.322,0,0,1,2.4,1.1,12.205,12.205,0,0,0-.573,1.484q-.012.04-.027.078l.012.02a4.7,4.7,0,0,1,.533,1.19,6.384,6.384,0,0,1-.545,4.713c3.454,1.726,5.158,5.123,6.165,7.666a1.322,1.322,0,0,1-.717,1.71c-.754.319-1.508.636-2.261.96a86.856,86.856,0,0,1-8.822,3.411c-.618.189-1.24.367-1.868.527a1.337,1.337,0,0,1-.328.041A1.319,1.319,0,0,1,23.647,142.891Zm2.26-1.969a83.036,83.036,0,0,0,8.993-3.444l1.059-.449c-1.3-2.82-2.862-4.506-4.9-5.331A6.834,6.834,0,0,1,28.7,132.98a3.235,3.235,0,0,1-.329.088,6.222,6.222,0,0,1-1.983.163C25.933,133.913,25,136.375,25.906,140.922ZM27.719,130.5a4.162,4.162,0,0,0,2.608-2.019,3.793,3.793,0,0,0,.445-2.867,2.59,2.59,0,0,0-.267-.589,4.388,4.388,0,0,0-3.851-2.066,2.77,2.77,0,0,0-.829.115l-.052.016a3.63,3.63,0,0,0-1.934,1.887,4.324,4.324,0,0,0-.393,3.076,3.559,3.559,0,0,0,2.749,2.492,2.16,2.16,0,0,1,.263.026c.039.007.077.015.114.025A3.542,3.542,0,0,0,27.719,130.5Zm21.02-6.7a1.325,1.325,0,0,1-.518-.75l-.088-.339c-.047-.119-.09-.241-.128-.366a6.994,6.994,0,0,1-.221-.949c-.56-2.076-1.172-4.186-1.808-6.3a1.316,1.316,0,0,1-.315-1.043c-.683-2.249-1.389-4.5-2.084-6.722-.574-1.838-1.149-3.664-1.7-5.465a1.323,1.323,0,0,1-.236-.771q-1.534-5.01-3.1-10.017Q36.9,85.855,35.3,80.617c-1.111-3.631-1.8-5.844-2.579-8.376a1.325,1.325,0,0,1-.065-.21c-1.069-3.438-2.337-7.543-5.088-16.544a1.345,1.345,0,0,1-.04-.171q-.061-.158-.111-.322C24.728,46.22,40.033,39,48.5,36.415l1.237-.378c4.668-1.427,28.114-7.988,31.46,2.957a5.963,5.963,0,0,1,.26,2.1c2.391,7.813,3.556,11.565,4.552,14.787l.2.632a1.311,1.311,0,0,1,.14.452c.665,2.139,1.308,4.215,2.265,7.346q1.6,5.233,3.237,10.465l.735,2.36q.414-.284.824-.582a1.322,1.322,0,1,1,1.561,2.134c-.5.365-1,.715-1.51,1.045l-.055.035q.853,2.745,1.7,5.493.4,1.315.816,2.647.691-.264,1.4-.487C107.6,84.274,117,88.89,120.212,98.644a18.962,18.962,0,0,1-1.348,14.272,18.119,18.119,0,0,1-10.761,9.108l-.081.024a18.812,18.812,0,0,1-14.457-1.586,18.347,18.347,0,0,1-1.978-1.242A81.824,81.824,0,0,1,78.2,124.627a70.127,70.127,0,0,1-17.944,2.646C55.2,127.272,50.656,126.4,48.739,123.809Zm12.522.811a66.7,66.7,0,0,0,16.169-2.525,80.66,80.66,0,0,0,11.964-4.732,18.378,18.378,0,0,1-4.8-8.247c-2.01-7.352.686-14.921,6.7-18.833a23.584,23.584,0,0,1,2.2-1.289q-.465-1.491-.918-2.961-1.6-5.241-3.24-10.476-.49-1.564-.978-3.131c-3.739,4.093-9.812,8.834-21.976,12.553-5.545,1.7-16,4.2-26.084,2.853l.769,2.469c1,3.223,2.01,6.445,3,9.673,9.932,1.646,20.562-.894,26.107-2.59a61.5,61.5,0,0,0,11.494-4.666,1.322,1.322,0,0,1,1.3,2.3l-.031.022a64.629,64.629,0,0,1-11.988,4.873C65.41,101.608,55,104.1,44.924,102.777q.58,1.873,1.174,3.771c.679,2.163,1.367,4.356,2.034,6.551,10.378,1.688,22.807-1.11,31.144-4.364a1.321,1.321,0,1,1,.959,2.462c-1.111.44-2.944,1.107-5.28,1.821-6.293,1.925-16.276,4.156-25.986,2.876.592,2.008,1.156,4.006,1.673,5.974C51.539,123.762,55.366,124.764,61.261,124.62Zm33.575-6.475a16.228,16.228,0,0,0,12.483,1.357,15.493,15.493,0,0,0,9.194-7.8,16.252,16.252,0,0,0,1.182-12.236c-2.732-8.3-10.781-12.217-19.584-9.526a21.172,21.172,0,0,0-5.38,2.56,14.28,14.28,0,0,0-5.585,15.918,15.713,15.713,0,0,0,5.282,8.121,1.317,1.317,0,0,1,.239.19A15.74,15.74,0,0,0,94.836,118.145ZM65.6,82.448c12.781-3.908,18.429-8.921,21.83-12.983q-.678-2.192-1.349-4.384c-.7-2.3-1.236-4.034-1.733-5.642-4.626,3.91-10.913,8.913-20.828,11.944-8.155,2.494-18.463,4.922-27.557,2.425.531,1.718,1.092,3.543,1.853,6.035q.792,2.59,1.6,5.18C49.373,86.7,60.044,84.147,65.6,82.448ZM62.752,68.859C72.775,65.794,78.97,60.541,83.5,56.69l-.01-.033c-.85-2.746-1.823-5.883-3.579-11.611-4.736,6.531-18.837,11.167-22.3,12.226-5.4,1.651-19.325,4.175-26.309,1.413,1.824,5.953,2.852,9.272,3.711,12.05C43.8,73.891,54.426,71.4,62.752,68.859ZM50.515,38.568l-1.237.379c-9.118,2.787-21.146,9.371-19.341,15.276.635,2.074,4.545,3.189,10.731,3.038a66.7,66.7,0,0,0,16.169-2.525c10.5-3.21,21.122-8.567,21.934-13.416l-.416-1.361a1.316,1.316,0,0,1,.044-.9c-1.323-2.663-5.115-3.6-9.68-3.6C62.7,35.46,55.342,37.092,50.515,38.568ZM35.735,115.71a1.32,1.32,0,0,1,.382-1.37c.448-.4.909-.8,1.387-1.182a1.321,1.321,0,0,1,1.7,2.022l-.031.022q-.662.541-1.3,1.111a1.468,1.468,0,0,1-.5.283l0-.005a1.317,1.317,0,0,1-1.647-.88Zm68.418-4.127c-.588-1.924-1.179-3.829-1.772-5.734l-.223.069a36.006,36.006,0,0,1-4.76,1.167,1.323,1.323,0,0,1-.428-2.612,33.012,33.012,0,0,0,4.423-1.083l.207-.064q-.85-2.747-1.7-5.512a1.324,1.324,0,0,1,2.532-.774c.561,1.835,1.121,3.654,1.685,5.473q1.094-.357,2.193-.7c1.088-.333,2-.58,2.878-.787a1.322,1.322,0,0,1,.692,2.551l0-.005-.092.028c-.817.194-1.679.426-2.7.739-.733.224-1.457.461-2.18.7.594,1.914,1.185,3.833,1.777,5.769a1.323,1.323,0,0,1-.878,1.652,1.3,1.3,0,0,1-.383.058A1.325,1.325,0,0,1,104.153,111.583Zm-99.937-5.27-.034-.133A14.629,14.629,0,0,1,6.234,95.195a6.785,6.785,0,0,1-4.092-4.21c-1.042-3.1-.155-7.142,3.148-8.547a4.253,4.253,0,0,1,.432-.164,7.9,7.9,0,0,1,4.816-.351,6.8,6.8,0,0,1,4.036,3.328q.211-.238.425-.47a1.322,1.322,0,0,1,1.945,1.792c-.382.41-.747.835-1.108,1.272a1.281,1.281,0,0,1-.449.354A7.269,7.269,0,0,1,14.6,91.94a6.627,6.627,0,0,1-.443.754c3.231,1.745,4.795,5.032,5.728,7.538a1.322,1.322,0,0,1-.784,1.7l-.021.013c-2.219.772-4.473,1.718-6.648,2.633-2.119.893-4.317,1.815-6.51,2.592l-.055.023a1.334,1.334,0,0,1-1.653-.879Zm2.352-2.2c1.62-.62,3.253-1.3,4.84-1.968,1.8-.756,3.636-1.525,5.5-2.227-1.243-2.811-2.77-4.484-4.814-5.267a6.64,6.64,0,0,1-1.462.655,6.827,6.827,0,0,1-1.3.274A11.032,11.032,0,0,0,6.567,104.11Zm.35-19.44-.372.113c-.08.025-.153.053-.226.082-1.8.764-2.321,3.346-1.672,5.265a4.16,4.16,0,0,0,5.215,2.632,3.975,3.975,0,0,0,.607-.246,1.318,1.318,0,0,1,.99-.707,3.933,3.933,0,0,0,.782-1.077,4.643,4.643,0,0,0,.279-3.574,4.176,4.176,0,0,0-2.751-2.71,4.936,4.936,0,0,0-2.851.221Zm124.472,5.609a25.567,25.567,0,0,1-1.059-2.851c-1.075-3.515-.97-6.4.311-8.595a7.1,7.1,0,0,1-.812-.357,6.537,6.537,0,0,1-3.269-3.91,6.782,6.782,0,0,1,2.6-7.566,6.4,6.4,0,0,1,1.556-.77,6.744,6.744,0,0,1,8.362,9.154c3.761,1.757,5.945,5.452,7.149,8.419a1.326,1.326,0,0,1-.733,1.721l-.005,0c-2.056.816-4.124,1.774-6.121,2.7-2.041.944-4.154,1.922-6.281,2.767l-.1.037a1.32,1.32,0,0,1-1.6-.745Zm1.466-3.623c.137.447.288.9.472,1.378,1.66-.695,3.316-1.464,4.936-2.21s3.3-1.527,4.983-2.237c-1.14-2.354-2.957-4.908-5.758-6.01a6.726,6.726,0,0,1-2.32,1.384l-.109.033a7.11,7.11,0,0,1-1.43.256C132.07,80.84,131.818,83.263,132.855,86.656Zm-1.143-17.975-.151.059a3.739,3.739,0,0,0-.911.441,4.139,4.139,0,0,0-1.567,4.606,3.918,3.918,0,0,0,1.963,2.344,4.365,4.365,0,0,0,3.3.312,4.063,4.063,0,0,0,1.547-.948,1.324,1.324,0,0,1,.463-.541,4.1,4.1,0,0,0-4.646-6.273ZM20.7,80.889a1.335,1.335,0,0,1,.5-1.469c.5-.346.993-.686,1.493-1.014a1.321,1.321,0,0,1,1.452,2.206c-.486.317-.956.643-1.421.966a1.188,1.188,0,0,1-.375.184,1.292,1.292,0,0,1-.389.06A1.331,1.331,0,0,1,20.7,80.889ZM29.013,75.9a1.32,1.32,0,0,1,.647-1.55c.522-.279,1.047-.552,1.57-.825A1.321,1.321,0,0,1,32.5,75.846l-.054.03-1.554.814a1.12,1.12,0,0,1-.229.094,1.322,1.322,0,0,1-1.652-.879Zm69.682-3.311a1.346,1.346,0,0,1,.238-1.231c.355-.434.695-.882,1.016-1.325a1.321,1.321,0,1,1,2.158,1.525c-.35.5-.732.988-1.122,1.471a1.3,1.3,0,0,1-.638.433,1.323,1.323,0,0,1-1.652-.873Zm4.379-8.559a1.268,1.268,0,0,1-.021-.683,15.387,15.387,0,0,0,.271-1.592,1.324,1.324,0,0,1,2.63.305,18.014,18.014,0,0,1-.328,1.878,1.311,1.311,0,0,1-.9.97,1.324,1.324,0,0,1-1.653-.878ZM126.491,62.6q-.485-.726-.975-1.406a1.325,1.325,0,0,1,2.151-1.547c.341.479.687.974,1.026,1.49a1.32,1.32,0,0,1-.372,1.836,1.339,1.339,0,0,1-.346.161,1.308,1.308,0,0,1-.383.057A1.324,1.324,0,0,1,126.491,62.6ZM90.037,56.853a1.324,1.324,0,0,1,.292-2.632,22.818,22.818,0,0,0,5.224-.022q-.879-3.078-1.707-6.17a39.137,39.137,0,0,0-5.723,2.764,1.321,1.321,0,0,1-1.342-2.276,41.8,41.8,0,0,1,6.386-3.056q-1.237-4.746-2.356-9.521c-2.453.538-4.942,1.1-7.356,1.758a1.324,1.324,0,0,1-1.624-.931,1.34,1.34,0,0,1,.933-1.619c2.46-.667,4.975-1.243,7.453-1.785q-1.229-5.408-2.308-10.852a26.735,26.735,0,0,1-7.681.183,34.963,34.963,0,0,0-.571,7.662,1.321,1.321,0,0,1-2.583.4,1.274,1.274,0,0,1-.057-.371,37.427,37.427,0,0,1,.6-8.141,26.646,26.646,0,0,1-5.043-1.668,22.839,22.839,0,0,0-2.808,8.975,1.321,1.321,0,0,1-2.631-.247,25.464,25.464,0,0,1,3.7-10.977c.008-.019.017-.037.026-.056A1.328,1.328,0,0,1,71.036,18a25.48,25.48,0,0,1,5.577-6.189,24.916,24.916,0,0,1,7.3-4.024l.037-.013q.368-.128.739-.244l.178-.054q.722-.216,1.451-.388a1.331,1.331,0,0,1,.183-.043,26.112,26.112,0,0,1,3.726-.576,1.326,1.326,0,0,1,.369-.027A26.152,26.152,0,0,1,103.748,9a24.672,24.672,0,0,1,12.9,14.915A25.58,25.58,0,0,1,112.2,48c.423.1.848.218,1.267.345a1.326,1.326,0,0,1-.008,2.533l-.006,0a1.334,1.334,0,0,1-.778-.006c-.518-.161-1.044-.3-1.571-.41a1.315,1.315,0,0,1-.758-.455,24.631,24.631,0,0,1-9.5,5.709c-.164.057-.336.11-.5.16a25.556,25.556,0,0,1-10.3.976Zm8.13-3.121q.933-.223,1.848-.525.382-.125.756-.263a41.033,41.033,0,0,0,2.615-7.365,56.992,56.992,0,0,0-6.791,1.5l-.245.075Q97.23,50.453,98.167,53.732Zm6.184-2.477a21.781,21.781,0,0,0,6.875-6.365q-2.536.047-5.057.319A35.806,35.806,0,0,1,104.351,51.255ZM95.676,44.6l.146-.045a59.6,59.6,0,0,1,8.059-1.722,31.4,31.4,0,0,0-.465-9.882c-3.34.958-6.722,1.706-10.021,2.424Q94.48,40,95.676,44.6Zm10.9-2.087a59.685,59.685,0,0,1,6.231-.271,22.98,22.98,0,0,0,2.178-13.78,66.317,66.317,0,0,1-9.027,3.712A35.121,35.121,0,0,1,106.574,42.514ZM92.8,32.8c3.325-.721,6.734-1.48,10.062-2.443q-.165-.693-.353-1.416a44.313,44.313,0,0,0-4.267-9.7,12.6,12.6,0,0,1-2.564,1.143c-.436.133-.877.243-1.322.347-.408.1-.822.2-1.234.328-.177.054-.392.132-.644.229-.417.152-.929.34-1.536.526q-.225.066-.451.127Q91.569,27.386,92.8,32.8Zm12.254-4.569q.179.684.337,1.344a63.109,63.109,0,0,0,9.037-3.8q-.143-.536-.311-1.071a22.035,22.035,0,0,0-8.543-11.6,43.331,43.331,0,0,1-5.13,4.665A46.98,46.98,0,0,1,105.054,28.231ZM87.4,19.912q-.945-4.94-1.765-9.9l-.156.047-.252.081A34.954,34.954,0,0,0,80.814,20.1,24.043,24.043,0,0,0,87.4,19.912Zm-9.213-.249a37.444,37.444,0,0,1,2.94-7.717,22.4,22.4,0,0,0-2.875,1.939,22.833,22.833,0,0,0-4.237,4.435A23.994,23.994,0,0,0,78.19,19.663Zm11.795-.331.189-.054c.544-.167,1.011-.34,1.4-.476.3-.112.568-.212.779-.276.459-.14.92-.249,1.379-.365.4-.1.787-.19,1.177-.31A9.833,9.833,0,0,0,96.825,17a44.382,44.382,0,0,0-6.762-7.852q-.924.089-1.843.251Q89.039,14.38,89.984,19.332Zm9.037-3.8a40.175,40.175,0,0,0,4.225-3.823q-.325-.169-.657-.328a23.588,23.588,0,0,0-8.8-2.3A47.049,47.049,0,0,1,99.021,15.531ZM120.47,55.484c-.43-.382-.86-.746-1.288-1.078a1.323,1.323,0,0,1,1.637-2.079c.473.375.95.769,1.409,1.185a1.321,1.321,0,0,1-.49,2.248,1.346,1.346,0,0,1-.391.059A1.313,1.313,0,0,1,120.47,55.484Z" transform="translate(1254.122 323.156)"/><path class="b" d="M362.216,661.543c1.776-.969,3.551-1.919,5.321-2.867,2.955-1.582,6-3.211,8.984-4.9a102.351,102.351,0,0,0,9.977,9.945,1.5,1.5,0,0,0,1.766.12c3.519-2.22,7.155-4.574,10.823-7,1.687,1.517,3.23,3.071,4.729,4.582a65.34,65.34,0,0,0,4.9,4.628,1.5,1.5,0,0,0,1.824.048q1.334-.966,2.679-1.923c2.809-2.006,5.7-4.073,8.427-6.29a51.244,51.244,0,0,0,8.895,6.584,1.5,1.5,0,0,0,1.471-2.615,52.145,52.145,0,0,1-9.325-7.061,1.5,1.5,0,0,0-1.97-.033c-2.919,2.458-6.134,4.754-9.242,6.975q-.87.621-1.74,1.245c-1.181-1.046-2.454-2.329-3.786-3.671-1.7-1.717-3.636-3.663-5.748-5.49a1.5,1.5,0,0,0-1.813-.115c-3.648,2.428-7.272,4.783-10.788,7.011a113.725,113.725,0,0,1-9.653-9.84,1.5,1.5,0,0,0-1.86-.3c-3.283,1.877-6.678,3.7-9.963,5.453-1.777.952-3.559,1.906-5.34,2.878a1.5,1.5,0,0,0,1.435,2.634Z" transform="translate(412.96 -477.916)"/><path class="b" d="M1796.417,711.382a8.357,8.357,0,0,0-1.111.073,7.825,7.825,0,0,0-6.667,7.3,7.444,7.444,0,0,0,7.409,7.088c4.994,0,7.688-5.552,7.688-7.822C1803.736,714.111,1800.726,711.382,1796.417,711.382Zm-.369,11.457a4.423,4.423,0,0,1-4.409-4.088,4.83,4.83,0,0,1,4.061-4.321,5.335,5.335,0,0,1,.717-.048c.722,0,4.319.175,4.319,3.635C1800.736,719.049,1799.029,722.839,1796.048,722.839Z" transform="translate(57.96 -581.916)"/></g></svg>