<svg xmlns="http://www.w3.org/2000/svg" width="112.173" height="100" viewBox="0 0 112.173 100"><defs><style>.a{fill:#e0dfe6;}.b{fill:#28d6d6;}.c{fill:#525d7d;}</style></defs><g transform="translate(4.385 12.518)"><path class="a" d="M-.719-411.479a3.439,3.439,0,0,0-3.935.51,6.022,6.022,0,0,0-.753.841,2.023,2.023,0,0,0-1.365-1.36c-3.9-1.094-8.193-.556-12.19-.28-3.384.238-7.446.36-10.329,2.253a.516.516,0,0,0,0,.883c3.118,1.416,6.964,1.136,10.329,1.215,4.024.094,8.17.734,12.138-.037a15.281,15.281,0,0,1-1.154,2.337,13.632,13.632,0,0,1-5.4,4.375A27.175,27.175,0,0,1-20.2-398.2c-2.01.425-4.207.135-6.067,1.084a.589.589,0,0,0-.266.664c.888,2.963,4.669,4.272,7.4,4.973a17.8,17.8,0,0,0,11.774-1.243,18.2,18.2,0,0,0,8.722-8.226C3.034-404.258,3.38-409.741-.719-411.479Z" transform="translate(31.518 457.9)"/><path class="a" d="M13.59-408.523a1.258,1.258,0,0,0-.093-1.58c-2.346-3.029-8.619-1.79-12.068-1.818-4.7-.037-9.96-.407-14.5.953a1.112,1.112,0,0,0,0,2.122c4.468,1.594,9.806,1.486,14.5,1.692,1.837.079,4.4.547,6.782.537a8.121,8.121,0,0,0-.865,1.57c-2.524,6.113-11.521,5.931-16.634,8.058a.894.894,0,0,0-.21,1.608c4.16,2.8,10.521,2.613,15.279,1.851a14.11,14.11,0,0,0,11.241-8.848C18.059-404.878,15.918-407.813,13.59-408.523Z" transform="translate(89.164 457.893)"/><path class="a" d="M4.039-418.312c-3.239-2.734-9.114-1.271-13.171-1.421-5.356-.2-11.147-1.215-16.462-.556-.968.117-1.636,1.5-.556,2.047,4.613,2.342,10.409,2.846,15.513,3.3,3,.271,6.029.364,9.039.392,2.468.019,3.833.215,5.637-1.533A1.591,1.591,0,0,0,4.039-418.312Z" transform="translate(41.941 427.182)"/><path class="a" d="M18.854-418.434a2.5,2.5,0,0,0-2.865-2.486c-1.6.089-3.239,1.094-4.9,1.29-2.2.257-4.436.224-6.646.332-4.146.2-8.292.393-12.437.65-3.239.2-7.385-.028-9.843,2.374a.735.735,0,0,0,0,1.033c1.977,1.627,4.249,1.552,6.735,1.617,3.622.1,7.263-.122,10.886-.224,5.978-.173,12.283.173,17.822-2.4A2.423,2.423,0,0,0,18.854-418.434Z" transform="translate(73.72 425.64)"/><path class="a" d="M4.666-360.732a35.518,35.518,0,0,0-8.7-3.627c.659-9.011.869-18.06.776-27.095-.084-8.633.117-18.453-3.552-26.45a1.525,1.525,0,0,0-1.327-.762h-.033a10.113,10.113,0,0,0-.612-1.416.217.217,0,0,0-.379,0c-1.818,3.576-1.3,8.5-1.341,12.433-.051,4.875.112,9.759.164,14.634.089,7.978.014,15.985.2,23.968a2.214,2.214,0,0,0-1.613,2.164c-.1,4.609,3.033,10.437,7.558,12.124-2.057.589-4.122,1.094-6.207,1.58-3.4.795-7.525.93-10.47,2.874a.556.556,0,0,0,0,.949c3.992,2.477,10.325,1.547,14.765,1.014,3.641-.439,10.876-.584,12.68-4.51a5.053,5.053,0,0,0,.243-.626A4.76,4.76,0,0,0,8.947-353a1.525,1.525,0,0,0,1.5-1.5C10.289-357.656,7.171-359.231,4.666-360.732Z" transform="translate(62.384 428.344)"/><path class="a" d="M-9.861-419.02c-.131-1.206-.594-2.519-1.851-2.884a.878.878,0,0,0-.953.388c-.79,1.033-.29,2.678-1.444,3.473-1.262.869-3.22.365-4.646.243a.483.483,0,0,0-.337.813c1.907,1.963,4.931,3.393,7.464,1.571A4.013,4.013,0,0,0-9.861-419.02Z" transform="translate(69.442 421.936)"/><path class="a" d="M-.706-418.629c-3.763,3.024-5.861,9.24-7.38,13.708-1.771,5.2-4.108,10.105-6.015,15.218a1,1,0,0,0,1.454,1.117c3.968-2.851,5.627-7.978,7.263-12.381,1.112-3.005,2.108-6.067,3.375-9.007,1.08-2.5,2.716-4.833,3.262-7.516A1.183,1.183,0,0,0-.706-418.629Z" transform="translate(88.059 432.963)"/><path class="a" d="M-14.719-418.581a.662.662,0,0,0-.809-.458c-1.828.645-2.225,1.851-2.8,3.632-1.052,3.267-1.514,6.506-2.959,9.666-2.706,5.917-7.2,11.6-8.665,17.967a.629.629,0,0,0,1.042.608c2.281-2.276,3.73-5.137,5.338-7.9,1.729-2.977,3.608-5.922,5.048-9.058a42.572,42.572,0,0,0,2.566-8.025C-15.434-414.3-14.21-416.393-14.719-418.581Z" transform="translate(29.964 432.47)"/><path class="a" d="M-22.675-398.011c-.444-3.015-.986-6.006-1.4-9.025-.383-2.846-.449-5.749-1.239-8.521a.333.333,0,0,0-.636,0c-1.93,5.763-1.2,13.335-.061,19.2.393,2.019,3.473,1.486,3.505-.472l.009-.617A1.106,1.106,0,0,0-22.675-398.011Z" transform="translate(40.331 444.515)"/><path class="a" d="M-5.3-386.871a89.8,89.8,0,0,1-10.666-16.962c-2.7-5.632-5.352-11.334-10.04-15.611a.515.515,0,0,0-.8.622,183.509,183.509,0,0,1,9,18.743c2.5,5.693,5.314,12.1,10.381,15.971C-5.7-382.786-4.193-385.455-5.3-386.871Z" transform="translate(41.279 430.585)"/><path class="a" d="M2.879-393.725q-2.117-4.669-4.249-9.334c-1.416-3.108-2.739-6.254-4.146-9.366-1.117-2.473-2.014-6.193-4.585-7.418a.041.041,0,0,0-.056.023c-1.066,2.659.841,6.043,1.795,8.6,1.187,3.2,2.51,6.352,3.819,9.5,1.178,2.856,2.393,5.688,3.692,8.488,1.4,3.015,2.51,7.048,5.127,9.18a1.15,1.15,0,0,0,1.935-.8C6.193-388.018,4.164-390.893,2.879-393.725Z" transform="translate(101.577 429.61)"/><path class="a" d="M17.16-400.23c-2.6-4.389-6.459-7.642-11.666-7.922-1.589-.084-2.687,2.253-1.374,3.314,2.6,2.1,5.655,4.356,7.221,7.38.238.458,1.248,2.318,1.019,2.762-.023.047-1.711.43-1.837.467a66.006,66.006,0,0,1-6.894,1.72,62.07,62.07,0,0,1-13.26.865c-3.3-.131-7.862-1.514-11.2-.823a.956.956,0,0,0-1.22.369,2.4,2.4,0,0,0-.369,1.295,1.662,1.662,0,0,0,.818,1.425c5.473,3.393,12.727,4.379,19.079,4.286,5.754-.084,12.863-.9,18.046-3.575C20.418-391.2,19.591-396.126,17.16-400.23Z" transform="translate(57.662 472.567)"/><path class="a" d="M-.547-410.362a1.56,1.56,0,0,0-2.809-.369c-2.5,4.632-2.945,9.367-7.773,12.521-4.744,3.1-11.484,3.664-17.008,3.44a.184.184,0,0,0-.089.341c5.576,2.781,14.2,2.445,19.621-.584C-3.762-397.719,1.725-404.492-.547-410.362Z" transform="translate(36.015 460.362)"/></g><path class="b" d="M-14.4-410.8s-1.075,6.927,3.3,9.647,11.213,5.6,16.574,4.038,9.152-3.875,10.138-6.1,2.631-8.226,2.631-8.226-11.2,4.267-15.574,3.524Z" transform="translate(91.113 473.029)"/><path class="b" d="M-30.154-409.006s3.047,9.4,8.324,10.8,11.049,2.72,15.583-.248,9.4-10.638,9.4-11.708-8.74,2.309-16.574,1.566a165.064,165.064,0,0,1-16.817-2.72S-31.308-411.89-30.154-409.006Z" transform="translate(31.681 473.301)"/><g transform="translate(12.305)"><path class="c" d="M22.99-404.058l-1.407,0h-.944q-2.9,0-5.8-.014-2.888.014-5.791.014H8.1c-4.239,0-13.064.014-20.86-.472-12.877-.8-15.513-2.4-15.513-4.552,0-1.491,1.5-2.384,2.949-2.384a2.7,2.7,0,0,1,.654.075,24.292,24.292,0,0,0,4.529.753l1.627.07c1.355.061,2.758.126,4.141.126,4.426,0,15.574-1.725,20.944-3.847,2.776-1.1,3.029-3.183,3.3-5.389.252-2.08.6-4.931,4.3-4.931.234,0,.458.009.673.019.215-.009.439-.019.678-.019,3.7,0,4.043,2.851,4.3,4.931.266,2.206.519,4.291,3.3,5.389,5.375,2.122,16.518,3.847,20.944,3.847,1.383,0,2.786-.065,4.141-.126l1.627-.07a24.4,24.4,0,0,0,4.534-.753,2.636,2.636,0,0,1,.65-.075c1.449,0,2.949.893,2.949,2.384,0,2.15-2.636,3.749-15.513,4.552C35.427-404.1,27.58-404.058,22.99-404.058Zm-8.151-2.253c1.94.009,3.87.019,5.8.019h.944c28.039,0,33.236-1.842,34.073-2.772a1.328,1.328,0,0,0-.65-.173.949.949,0,0,0-.131.01,26.434,26.434,0,0,1-4.968.818c-.538.019-1.07.042-1.608.07-1.383.061-2.809.126-4.244.126-4.576,0-15.985-1.72-21.766-4.005-4.01-1.584-4.4-4.828-4.688-7.193-.3-2.444-.509-2.968-2.08-2.968-.215,0-.421,0-.612.019h-.131c-.192-.014-.4-.019-.608-.019-1.575,0-1.785.523-2.085,2.968-.285,2.365-.678,5.609-4.688,7.193-5.782,2.286-17.191,4.005-21.766,4.005-1.435,0-2.86-.065-4.244-.126-.533-.028-1.07-.051-1.608-.07a26.325,26.325,0,0,1-4.964-.818,1.169,1.169,0,0,0-.136-.01,1.329,1.329,0,0,0-.65.173c.832.921,5.945,2.772,33.465,2.772H9.048C10.978-406.292,12.908-406.3,14.839-406.311Z" transform="translate(28.269 424.614)"/></g><g transform="translate(52.094 10.598)"><path class="c" d="M-16.919-417.755a2.766,2.766,0,0,1-2.837-2.337c0-1.435,1.426-1.888,2.192-2.131l.2-.066a1.114,1.114,0,0,1,1.257.4l.112.014c1.164,0,1.524,1.4,1.524,1.916A2.368,2.368,0,0,1-16.919-417.755Z" transform="translate(19.756 422.347)"/></g><g transform="translate(50.206 18.495)"><path class="c" d="M-15.486-362.411c-2.328,0-4.674-.865-4.674-2.8a1.514,1.514,0,0,1,.248-.846l.379-53.287a1.117,1.117,0,0,1,1.117-1.117,1.117,1.117,0,0,1,1.117,1.117v.192l-.383,53.563a1.107,1.107,0,0,1-.117.481,5.315,5.315,0,0,0,2.314.472,3.312,3.312,0,0,0,2.505-.939l.383-53.961a1.117,1.117,0,0,1,1.117-1.117,1.117,1.117,0,0,1,1.117,1.117v.383l-.388,53.951a1.1,1.1,0,0,1-.173.589A5.138,5.138,0,0,1-15.486-362.411Z" transform="translate(20.16 420.657)"/></g><g transform="translate(35.951 72.746)"><path class="c" d="M-4.22-386.868c-8.782,0-18.99-2.6-18.99-5.959,0-4.758,4.889-7.114,7.81-8.525a8.746,8.746,0,0,0,4.651-4.608,5.912,5.912,0,0,1,2.3-2.748,1.122,1.122,0,0,1,1.547.323,1.122,1.122,0,0,1-.323,1.547,3.713,3.713,0,0,0-1.458,1.706,11.005,11.005,0,0,1-5.754,5.8c-3.281,1.58-6.487,3.379-6.543,6.427.7,1.2,7.572,3.809,16.756,3.809,9.418,0,18.658-1.8,18.658-3.631,0-2.814-6.221-5.062-9.563-6.272-.953-.346-1.776-.645-2.342-.9-2-.916-2.388-2.837-2.7-4.38a4.493,4.493,0,0,0-1.187-2.771,1.119,1.119,0,0,1-.182-1.566,1.116,1.116,0,0,1,1.57-.182,6.319,6.319,0,0,1,1.986,4.071c.308,1.505.523,2.379,1.444,2.8.481.22,1.267.5,2.173.832,4.393,1.589,11.035,3.992,11.035,8.371,0,2.393-2.884,3.968-9.072,4.954A84.147,84.147,0,0,1-4.22-386.868Z" transform="translate(23.21 409.05)"/></g><g transform="translate(46.9 77.518)"><path class="c" d="M-12.392-404.314a17.6,17.6,0,0,1-7.848-1.594,1.117,1.117,0,0,1-.514-1.5,1.125,1.125,0,0,1,1.5-.514,15.394,15.394,0,0,0,6.866,1.369,33.993,33.993,0,0,0,5.3-.416,1.115,1.115,0,0,1,1.276.925,1.119,1.119,0,0,1-.93,1.281A36.091,36.091,0,0,1-12.392-404.314Z" transform="translate(20.867 408.029)"/></g><g transform="translate(0.078 56.461)"><path class="c" d="M-13.526-403.294c-.178,0-17.359-.2-17.359-4.613,0-3.1,7.647-4.169,14.059-4.515a1.122,1.122,0,0,1,1.178,1.056,1.115,1.115,0,0,1-1.056,1.173c-7.6.411-11.073,1.613-11.839,2.267,1.309,1.089,8.418,2.4,15.017,2.4,11.143,0,16.13-1.851,17.1-2.729-.925-.673-5.048-1.884-13.61-2.043a1.11,1.11,0,0,1-1.094-1.136,1.116,1.116,0,0,1,1.117-1.1c5.964.112,15.938.813,15.938,4.244C5.922-404.841-3.846-403.294-13.526-403.294Z" transform="translate(30.885 412.534)"/></g><g transform="translate(0.168 59.914)"><path class="c" d="M-13.933-394.459c-9.264,0-15.27-4.52-16.91-12.727a1.117,1.117,0,0,1,.874-1.313,1.106,1.106,0,0,1,1.313.874c1.435,7.151,6.52,10.932,14.723,10.932,11.129,0,14.882-5.244,17.6-14.307a1.119,1.119,0,0,1,1.393-.748,1.116,1.116,0,0,1,.748,1.388c-1.669,5.553-3.515,8.983-6.184,11.47C-3.581-395.908-8.016-394.459-13.933-394.459Z" transform="translate(30.866 411.795)"/></g><g transform="translate(16.657 35.257)"><path class="c" d="M-25.875-386.631a1.114,1.114,0,0,1-1.112-1.122c0-.4,0-.8,0-1.2,0-3.1-.093-6.258-.178-9.31-.089-3.071-.178-6.244-.178-9.376,0-3.113.089-5.856.276-8.394a1.118,1.118,0,0,1,1.192-1.033,1.112,1.112,0,0,1,1.033,1.192c-.178,2.487-.266,5.179-.266,8.235,0,3.1.089,6.259.178,9.311.084,3.071.173,6.244.173,9.376,0,.407,0,.813,0,1.215A1.115,1.115,0,0,1-25.875-386.631Z" transform="translate(27.338 417.071)"/></g><g transform="translate(0 19.459)"><path class="c" d="M-29.786-378.527a1.118,1.118,0,0,1-.472-.1,1.118,1.118,0,0,1-.538-1.486c1.454-3.089,3-6.179,4.5-9.166,5.029-10.035,9.783-19.514,11.965-30.273a1.113,1.113,0,0,1,1.313-.874,1.119,1.119,0,0,1,.874,1.318C-14.39-408.061-19.429-398-24.3-388.281c-1.491,2.977-3.033,6.053-4.478,9.114A1.1,1.1,0,0,1-29.786-378.527Z" transform="translate(30.902 420.451)"/></g><g transform="translate(17.892 19.844)"><path class="c" d="M-9.389-378.068a1.109,1.109,0,0,1-.963-.552,167.579,167.579,0,0,1-16.681-40.336,1.117,1.117,0,0,1,.781-1.374,1.123,1.123,0,0,1,1.374.78,165.277,165.277,0,0,0,16.452,39.8,1.116,1.116,0,0,1-.4,1.528A1.11,1.11,0,0,1-9.389-378.068Z" transform="translate(27.074 420.368)"/></g><g transform="translate(74.824 56.461)"><path class="c" d="M2.466-403.294c-.178,0-17.359-.2-17.359-4.613,0-3.1,7.647-4.169,14.059-4.515a1.125,1.125,0,0,1,1.178,1.056,1.115,1.115,0,0,1-1.056,1.173c-7.6.411-11.073,1.613-11.839,2.267,1.309,1.089,8.418,2.4,15.017,2.4,11.143,0,16.13-1.851,17.093-2.729-.921-.673-5.043-1.884-13.606-2.043a1.11,1.11,0,0,1-1.094-1.136,1.115,1.115,0,0,1,1.112-1.1c5.969.112,15.943.813,15.943,4.244C21.914-404.841,12.146-403.294,2.466-403.294Z" transform="translate(14.893 412.534)"/></g><g transform="translate(74.914 59.914)"><path class="c" d="M2.059-394.459c-9.264,0-15.27-4.52-16.91-12.727a1.117,1.117,0,0,1,.874-1.313,1.111,1.111,0,0,1,1.313.874c1.43,7.151,6.52,10.932,14.723,10.932,11.129,0,14.882-5.244,17.6-14.307a1.119,1.119,0,0,1,1.393-.748,1.116,1.116,0,0,1,.748,1.388c-1.669,5.553-3.515,8.983-6.184,11.47C12.411-395.908,7.976-394.459,2.059-394.459Z" transform="translate(14.874 411.795)"/></g><g transform="translate(91.402 35.257)"><path class="c" d="M-9.883-386.631A1.118,1.118,0,0,1-11-387.753c0-.4,0-.8,0-1.2,0-3.1-.089-6.258-.173-9.31-.089-3.071-.178-6.244-.178-9.376,0-3.113.089-5.856.276-8.394a1.115,1.115,0,0,1,1.192-1.033,1.112,1.112,0,0,1,1.033,1.192c-.178,2.487-.266,5.179-.266,8.235,0,3.1.089,6.259.173,9.311.089,3.071.178,6.244.178,9.376,0,.407,0,.813,0,1.215A1.115,1.115,0,0,1-9.883-386.631Z" transform="translate(11.346 417.071)"/></g><g transform="translate(74.745 19.459)"><path class="c" d="M-13.794-378.527a1.154,1.154,0,0,1-.477-.1,1.12,1.12,0,0,1-.533-1.486c1.454-3.089,3-6.179,4.5-9.166C-5.278-399.316-.525-408.8,1.653-419.554a1.12,1.12,0,0,1,1.318-.874,1.119,1.119,0,0,1,.874,1.318C1.6-408.061-3.436-398-8.311-388.281c-1.486,2.977-3.029,6.053-4.473,9.114A1.1,1.1,0,0,1-13.794-378.527Z" transform="translate(14.91 420.451)"/></g><g transform="translate(92.638 19.844)"><path class="c" d="M6.6-378.068a1.122,1.122,0,0,1-.968-.552,167.759,167.759,0,0,1-16.677-40.336,1.117,1.117,0,0,1,.781-1.374,1.116,1.116,0,0,1,1.369.78,165.473,165.473,0,0,0,16.457,39.8,1.12,1.12,0,0,1-.4,1.528A1.11,1.11,0,0,1,6.6-378.068Z" transform="translate(11.082 420.368)"/></g></svg>