<svg xmlns="http://www.w3.org/2000/svg" width="116.498" height="100" viewBox="0 0 116.498 100"><defs><style>.a{fill:#e0dfe6;}.b{fill:#28d6d6;}.c{fill:#525d7d;}</style></defs><g transform="translate(0 0)"><g transform="translate(40.756 55.317)"><path class="a" d="M-91.118-401.122c.034-2.48-.364-6.893-3-8l-.068-.024c-.233-.752-.456-1.495-.67-2.209-.646-2.16-4.349-1.883-4.107.553.136,1.359.218,2.7.243,4.068a15.542,15.542,0,0,0-.087,5.616l.078-.024a3.734,3.734,0,0,0,2.451,3.6c-1.024,3.49-.665,7.208-1.257,10.718a2.712,2.712,0,0,0-.612-.223,3.922,3.922,0,0,0-2.243.17,2.293,2.293,0,0,0-3.631-.272,77.568,77.568,0,0,0-7.757-3.17c-2.524-1.01-5.378-1.757-7.14-3.956a1.119,1.119,0,0,0-1.422-.218c.2-2.835-1.646-6.029-4.995-5.874-7.32.34-14.305,3.379-21.606,3.558a1.654,1.654,0,0,0-1.417,2.471,8.949,8.949,0,0,0,2.413,2.32c-.1,0-.2-.015-.311-.015a66.416,66.416,0,0,0-18.951,2.99,1.838,1.838,0,0,0,0,3.514,66.421,66.421,0,0,0,18.951,2.752c4.514-.073,5.612-5.34,3.281-7.893a19.517,19.517,0,0,0,4.087.7c1.539.121,3.126.194,4.723.228a2.791,2.791,0,0,0-.481.092A5.31,5.31,0,0,0-136.9-388.5c-.083.068-.155.146-.238.223-.136.068-.325.155-.393.194-.3.058-.641.121-.184.087a2.777,2.777,0,0,0-1.388,5.126,7.43,7.43,0,0,0,3.786,1.272,6.91,6.91,0,0,0,2.048-.165,4.755,4.755,0,0,0,2.908-2.311c1.49-2.359-.32-5.257-2.767-5.65,1.937.01,3.883-.068,5.791-.228a5.506,5.506,0,0,0-1.078.777,2.757,2.757,0,0,0,.354,4.155,10.28,10.28,0,0,0,.427,1.165,8.947,8.947,0,0,0,2.534,3.044,36.547,36.547,0,0,0,5.694,4.451,5.744,5.744,0,0,0,7.364-1.471c.121-.16.209-.325.311-.49,1.9,1.136,3.83,2.2,5.723,3.223,3.485,1.879,7.582,2.6,9.864-1.325a2.242,2.242,0,0,0,.189-.432,3.206,3.206,0,0,0,2.165-1.452c3.825-5.733,1.631-13.291.99-19.669A3.847,3.847,0,0,0-91.118-401.122Zm-31.737,10.471a3.954,3.954,0,0,0,2.039-1.985,10.787,10.787,0,0,0,2.4,3.257A11.294,11.294,0,0,0-122.855-390.652Zm17.815,9.48a3.164,3.164,0,0,0,1.238-.466,5.439,5.439,0,0,0,1.252,1.315A12.8,12.8,0,0,1-105.04-381.172Z" transform="translate(166.505 412.821)"/></g><path class="b" d="M-138.815-413.278s-24.552-.845-24.46,11.349,1.854,12.611,11.3,12.98,16.281.33,16.281.33Z" transform="translate(219.708 466.328)"/><path class="b" d="M-152.566-412.958l.932,15.257s10.626-3.587,5.189-10.548S-152.566-412.958-152.566-412.958Z" transform="translate(260.987 466.27)"/><g transform="translate(31.897 48.966)"><path class="a" d="M-151.9-391.561c-1.5-2.4-4.262-3.519-6.592-5.009-1.718-1.107-3.442-2.209-5.15-3.34a35.68,35.68,0,0,0,4.917-4.063,50.277,50.277,0,0,0,5.189-5.33c2.218-2.757-1.311-6.543-3.976-3.971a53.419,53.419,0,0,0-4.844,5.67,30.881,30.881,0,0,0-3.985,5.922,1.8,1.8,0,0,0-.155.68c-1.345.354-2.408,2-1.485,3.32,1.073,1.529,2.175,3.043,3.325,4.514a1.831,1.831,0,0,0-.3.665l-.126.9c0,.044-.053.224-.058.311a3.431,3.431,0,0,0-.272.5,2.992,2.992,0,0,0,.155,2.777l.087.136a3.043,3.043,0,0,0,5.116.112,9.19,9.19,0,0,0,3.5,2.267C-153.149-384.371-150.047-388.58-151.9-391.561Z" transform="translate(168.33 414.13)"/></g><g transform="translate(52.056 28.012)"><path class="a" d="M-129.545-416.32a2.233,2.233,0,0,0-3.8-1.5,3.374,3.374,0,0,0-3.01.267c-2.665,1.66-4.349,4.393-6.674,6.495a41.281,41.281,0,0,1-8.485,5.713c-4.17,2.214-10.66,4.786-12.558,9.47-.539,1.325,1.136,2.107,2.15,1.651,4.8-2.151,9.917-3.369,14.766-5.374a3.161,3.161,0,0,0,.607,1.078l1.267,1.519a2.7,2.7,0,0,0,1.9.786,2.739,2.739,0,0,0,1.9-.786,2.716,2.716,0,0,0,0-3.8l-1.165-.976a37.811,37.811,0,0,0,7.141-5.053,20.39,20.39,0,0,0-.228,3.4c.15,5.223,8.048,5.242,8.126,0C-127.541-407.8-129.312-411.995-129.545-416.32Z" transform="translate(164.178 418.446)"/></g><g transform="translate(14.338 26.172)"><path class="a" d="M-166.672-415.019c-.456-1.3-2.2-5.16-4.184-3.315-1.461,1.354-.908,3.767-.9,5.563.015,2.413-.4,4.767-.039,7.165.5,3.252,5.854,3.131,6.451,0S-165.643-412.058-166.672-415.019Z" transform="translate(171.948 418.825)"/></g><g transform="translate(38.35 9.418)"><path class="a" d="M-155.579-415.677a20.394,20.394,0,0,0-4.786-4.641c-1.587-1.083-3.684-2.272-5.66-1.884a1.355,1.355,0,0,0-.806,1.976,6.105,6.105,0,0,0,1.136,1.354,5.053,5.053,0,0,0-.8,3.306c.01.4.039.806.083,1.2.039.32.083.636.126.956.01.087.141,1.578.039.359a4.275,4.275,0,0,0,2.044,3.558,4.039,4.039,0,0,0,3.665.209,4.072,4.072,0,0,0,2.063-1.951,3.114,3.114,0,0,0,1.825-.359C-155.389-412.328-154.593-414.386-155.579-415.677Z" transform="translate(167.001 422.277)"/></g><g transform="translate(20.564 14.471)"><path class="a" d="M-164.248-419.728a2.463,2.463,0,0,0-1.534-1.18l-1.767-.267a2.713,2.713,0,0,0-1.908.252,2.526,2.526,0,0,0-1.141,1.48,2.517,2.517,0,0,0,1.733,3.048l1.714.442a2.608,2.608,0,0,0,3.16-1.8A2.589,2.589,0,0,0-164.248-419.728Z" transform="translate(170.665 421.236)"/></g><g transform="translate(18.594 18.823)"><path class="c" d="M-155.562-361.463a1.177,1.177,0,0,1-.927-.451,104.854,104.854,0,0,0-14.169-15.441,1.171,1.171,0,0,1-.413-.912c.092-8.15.33-16.432.563-24.446.146-5.1.291-10.2.4-15.3a1.183,1.183,0,0,1,1.136-1.151c20.426-.748,42.5-1.131,67.473-1.175a1.179,1.179,0,0,1,.835.345,1.18,1.18,0,0,1,.345.83v20.956a1.181,1.181,0,0,1-1.18,1.18,1.181,1.181,0,0,1-1.18-1.18V-417.98c-24.009.053-45.333.422-65.095,1.131q-.167,7.107-.383,14.2c-.223,7.82-.456,15.9-.553,23.858a106.758,106.758,0,0,1,13.694,14.932c2.466-.136,5.131-.2,8.529-.2,1.621,0,3.247.015,4.859.029,1.592.01,3.175.024,4.743.024a1.181,1.181,0,0,1,1.18,1.18,1.181,1.181,0,0,1-1.18,1.179c-1.578,0-3.165-.014-4.762-.029s-3.223-.024-4.84-.024c-3.631,0-6.408.068-9,.233Z" transform="translate(171.071 420.339)"/></g><g transform="translate(19.505 22.391)"><path class="c" d="M-136.786-390.7a1.176,1.176,0,0,1-.743-.262c-4.364-3.543-8.859-7.131-13.2-10.6-6.5-5.184-13.218-10.543-19.728-15.956a1.178,1.178,0,0,1-.15-1.66,1.179,1.179,0,0,1,1.66-.155c6.49,5.4,13.2,10.752,19.684,15.927,4.1,3.272,8.335,6.65,12.466,10,5.888-4.874,15.859-11.752,25.518-18.412,2.849-1.971,5.684-3.922,8.388-5.81a1.177,1.177,0,0,1,1.641.291,1.183,1.183,0,0,1-.291,1.646c-2.709,1.888-5.543,3.844-8.4,5.81-10.034,6.922-20.412,14.077-26.082,18.9A1.18,1.18,0,0,1-136.786-390.7Z" transform="translate(170.883 419.604)"/></g><g transform="translate(19.669 60.665)"><path class="c" d="M-155.421-394.743a1.178,1.178,0,0,1-1.175-1.141c-.078-2.67-.112-5.374-.146-7.99-.02-1.621-.039-3.247-.068-4.879-4.446-.082-8.835-.34-12.936-.612a1.182,1.182,0,0,1-1.1-1.252,1.194,1.194,0,0,1,1.252-1.1c4.427.3,9.179.573,13.951.626a1.182,1.182,0,0,1,1.165,1.15c.049,2.019.073,4.029.1,6.039.029,2.607.063,5.3.141,7.946A1.185,1.185,0,0,1-155.421-394.743Z" transform="translate(170.849 411.719)"/></g><g transform="translate(31.23 43.911)"><path class="c" d="M-167.289-395.479a1.186,1.186,0,0,1-.743-.262,1.179,1.179,0,0,1-.175-1.655l.34-.422a221.024,221.024,0,0,1,14.7-17,1.175,1.175,0,0,1,1.665,0,1.175,1.175,0,0,1,0,1.665,220.376,220.376,0,0,0-14.538,16.82l-.34.427A1.187,1.187,0,0,1-167.289-395.479Z" transform="translate(168.468 415.171)"/></g><g transform="translate(54.743 34.622)"><path class="c" d="M-114.349-361.3a1.188,1.188,0,0,1-.67-.209l-1.092-.757c-5.286-3.665-10.752-7.451-16.31-10.776-3.553.33-7.32.641-11.024.641-16.965,0-20.179-4.524-20.179-12.864,0-11.262,13.16-15.5,25.654-15.737a118.314,118.314,0,0,1,21.159-15.912,1.137,1.137,0,0,1,.646-.165c2.15.073,4.276.214,6.068.345a1.176,1.176,0,0,1,1.092,1.15c.335,16.47,1.587,33.154,2.8,49.285l.233,3.107a1.166,1.166,0,0,1-.291.869,1.187,1.187,0,0,1-.82.4c-2.126.112-4.636.277-7.1.616A.883.883,0,0,1-114.349-361.3Zm-17.8-14.131a1.194,1.194,0,0,1,.6.165c5.742,3.417,11.349,7.306,16.771,11.063l.718.5c1.942-.252,3.883-.4,5.636-.5l-.141-1.908c-1.184-15.82-2.412-32.159-2.777-48.338-1.417-.1-2.98-.194-4.563-.252a114.953,114.953,0,0,0-20.771,15.728,1.168,1.168,0,0,1-.806.33c-11.5.121-23.8,3.7-23.8,13.388,0,5.165,0,10.5,17.825,10.5,3.738,0,7.577-.33,11.189-.665Z" transform="translate(163.624 417.084)"/></g><g transform="translate(107.588 51.007)"><path class="c" d="M-150.5-393.89a1.176,1.176,0,0,1-1.082-.709,1.181,1.181,0,0,1,.607-1.548c3.223-1.408,4.791-3.607,4.791-6.723,0-3.679-2.621-7.587-5.723-8.534a1.179,1.179,0,0,1-.782-1.471,1.175,1.175,0,0,1,1.471-.781c4.145,1.262,7.388,6,7.388,10.786,0,4.039-2.141,7.107-6.2,8.883A1.258,1.258,0,0,1-150.5-393.89Z" transform="translate(152.738 413.709)"/></g><g transform="translate(80.31 50.107)"><path class="c" d="M-153.488-385.277a1.172,1.172,0,0,1-1.165-1.015c-.417-2.99-.893-6.043-1.349-8.995-.879-5.65-1.791-11.495-2.349-17.315a1.181,1.181,0,0,1,1.063-1.286A1.174,1.174,0,0,1-156-412.83c.553,5.752,1.456,11.563,2.33,17.179.461,2.961.937,6.024,1.354,9.034a1.182,1.182,0,0,1-1.01,1.33C-153.381-385.282-153.435-385.277-153.488-385.277Z" transform="translate(158.357 413.894)"/></g><g transform="translate(100.697 34.793)"><path class="c" d="M-150.273-361.511a1.178,1.178,0,0,1-1.175-1.1c-1.131-17.757-1.961-36.018-2.709-53.207a1.178,1.178,0,0,1,1.126-1.228,1.169,1.169,0,0,1,1.228,1.126c.747,17.174,1.578,35.426,2.709,53.158a1.178,1.178,0,0,1-1.1,1.247Z" transform="translate(154.157 417.049)"/></g><g transform="translate(55.177 61.936)"><path class="c" d="M-151.843-408.586c-.053,0-.112,0-.165-.01a49.481,49.481,0,0,0-10.271-.4,1.191,1.191,0,0,1-1.252-1.1,1.179,1.179,0,0,1,1.1-1.252,52.057,52.057,0,0,1,10.752.417,1.178,1.178,0,0,1,1,1.335A1.175,1.175,0,0,1-151.843-408.586Z" transform="translate(163.535 411.457)"/></g><g transform="translate(55.111 68.976)"><path class="c" d="M-162.368-407.24a1.18,1.18,0,0,1-1.18-1.126,1.184,1.184,0,0,1,1.126-1.228l1.626-.068c2.107-.083,4.286-.17,6.51-.34a1.174,1.174,0,0,1,1.262,1.083,1.173,1.173,0,0,1-1.082,1.267c-2.262.175-4.466.262-6.6.349l-1.616.063Z" transform="translate(163.548 410.007)"/></g><g transform="translate(65.397 76.417)"><path class="c" d="M-143.429-384.891a1.211,1.211,0,0,1-.544-.131c-9.1-4.747-15.776-13.2-17.436-22.057a1.178,1.178,0,0,1,.942-1.374,1.178,1.178,0,0,1,1.374.942c1.471,7.835,7.257,15.354,15.213,19.854.961-1.7,1.883-3.379,2.757-5.014-5.3-3.781-9.1-8.631-10.767-13.742a1.177,1.177,0,0,1,.757-1.485,1.175,1.175,0,0,1,1.485.757c1.592,4.888,5.4,9.548,10.713,13.121a1.178,1.178,0,0,1,.383,1.529c-1.194,2.262-2.49,4.621-3.854,7.009A1.178,1.178,0,0,1-143.429-384.891Z" transform="translate(161.429 408.474)"/></g><g transform="translate(61.812 41.721)"><path class="c" d="M-151.747-403.516a1.171,1.171,0,0,1-.864-.379q-.983-1.063-1.961-2.126c-2.335-2.548-4.752-5.179-7.233-7.577a1.171,1.171,0,0,1-.029-1.665,1.179,1.179,0,0,1,1.665-.029c2.534,2.447,4.976,5.107,7.335,7.679.65.7,1.3,1.412,1.951,2.116a1.18,1.18,0,0,1-.063,1.665A1.163,1.163,0,0,1-151.747-403.516Z" transform="translate(162.168 415.622)"/></g><path class="c" d="M-154.725-381.035a20.678,20.678,0,0,1-4.5-.529,1.179,1.179,0,0,1-.908-1.155c.01-1.942.048-3.51.116-4.942a13.529,13.529,0,0,1-4.733-2.476c-.6.214-1.2.427-1.8.636-.849.3-1.694.6-2.539.908a1.19,1.19,0,0,1-1.345-.393,23.9,23.9,0,0,1-4.451-10.208,1.177,1.177,0,0,1,.781-1.316c1.7-.578,3.218-.98,4.694-1.369.369-.1.738-.2,1.112-.3a17.591,17.591,0,0,1-.282-3.214,20.91,20.91,0,0,1,.112-2.17c-1.063-.466-2.1-.976-3.107-1.471l-1.082-.534a1.169,1.169,0,0,1-.553-1.558,22.16,22.16,0,0,1,1.16-2.165,22.216,22.216,0,0,1,5.437-6.029,1.172,1.172,0,0,1,1.5.044l.626.549c.913.8,1.854,1.626,2.781,2.476,1.194-.476,2.408-.845,3.592-1.2-.18-1.641-.345-3.32-.379-5a1.168,1.168,0,0,1,.908-1.17,21.737,21.737,0,0,1,7.951-.412,1.178,1.178,0,0,1,1.019,1.078c.092,1.277.141,2.568.184,3.81.015.452.034.9.053,1.354a32.288,32.288,0,0,1,3.048,2.083,58.362,58.362,0,0,1,6.631-1.84,1.191,1.191,0,0,1,1.16.384,38.914,38.914,0,0,1,3.558,4.961,1.185,1.185,0,0,1-.131,1.408c-.675.748-1.364,1.485-2.053,2.218l-.238.252a18.715,18.715,0,0,1,.888,4.66,1.178,1.178,0,0,1-1.1,1.252,1.2,1.2,0,0,1-1.257-1.1,15.866,15.866,0,0,0-.985-4.675,1.179,1.179,0,0,1,.238-1.223l.733-.786c.476-.5.951-1.015,1.422-1.524a35.445,35.445,0,0,0-2.413-3.369,49.168,49.168,0,0,0-6.243,1.816,1.181,1.181,0,0,1-1.16-.18,29.679,29.679,0,0,0-3.835-2.621,1.178,1.178,0,0,1-.6-.971c-.029-.67-.053-1.345-.078-2.015-.034-.9-.068-1.83-.121-2.747a19.382,19.382,0,0,0-5.2.277c.078,1.524.248,3.068.413,4.573l.024.214a1.172,1.172,0,0,1-.825,1.257l-.791.242a36.526,36.526,0,0,0-4.194,1.442,1.171,1.171,0,0,1-1.272-.219c-1.044-.971-2.126-1.917-3.17-2.835a19.687,19.687,0,0,0-4.112,4.786c-.18.3-.354.6-.519.9,1.311.646,2.529,1.247,3.8,1.757a1.188,1.188,0,0,1,.728,1.252,20.418,20.418,0,0,0-.2,2.757,14.477,14.477,0,0,0,.461,3.743,1.179,1.179,0,0,1-.815,1.442c-.757.214-1.5.408-2.228.6-1.189.316-2.33.616-3.558,1a21.76,21.76,0,0,0,3.3,7.49c.578-.209,1.155-.413,1.733-.617q1.238-.43,2.461-.874a1.172,1.172,0,0,1,1.252.291,11.232,11.232,0,0,0,5.145,2.646,1.183,1.183,0,0,1,.859,1.209c-.083,1.413-.131,2.917-.155,4.781a19.14,19.14,0,0,0,3.058.282,1.177,1.177,0,0,1,1.165,1.189A1.181,1.181,0,0,1-154.725-381.035Z" transform="translate(174.902 424.217)"/><g transform="translate(13.487 13.304)"><path class="c" d="M-165.031-405.841a1.449,1.449,0,0,1-.2-.015A8.088,8.088,0,0,1-172.123-414c0-4.262,3-7.48,6.975-7.48a11.87,11.87,0,0,1,5.956,1.451,8.04,8.04,0,0,1,3.718,6.048,1.184,1.184,0,0,1-1.083,1.272,1.18,1.18,0,0,1-1.267-1.082,5.726,5.726,0,0,0-2.539-4.189,9.54,9.54,0,0,0-4.786-1.141c-2.631,0-4.616,2.2-4.616,5.121a5.734,5.734,0,0,0,4.937,5.815,1.178,1.178,0,0,1,.956,1.364A1.18,1.18,0,0,1-165.031-405.841Z" transform="translate(172.123 421.476)"/></g></g></svg>