<svg xmlns="http://www.w3.org/2000/svg" width="94.004" height="100" viewBox="0 0 94.004 100"><defs><style>.a{fill:#e0dfe6;}.b{fill:#28d6d6;}.c{fill:#525d7d;}</style></defs><g transform="translate(0.001 0)"><g transform="translate(0.827 1.924)"><path class="a" d="M19.979,66.118c-2.138-1.154-4.363-3.475-6.808-3.779a.622.622,0,0,0-.529.3,5.86,5.86,0,0,0-.171-3.008,40.6,40.6,0,0,1-1.358-7.546c-.225-3.583,1.142-8.233-.471-11.483a1.039,1.039,0,0,0-1.4-.367C5.438,42.251,4.967,48.91,5,52.739c.033,4.05.179,10.771,4.629,12.3a2.161,2.161,0,0,0,2.388-.942c-.617,3,2.321,6.771,4.283,8.45a21.631,21.631,0,0,0,12.475,4.9c9.65.683,21.046-4.429,25.746-13.163a4.174,4.174,0,0,0,.508-2.15c2.379-3.1,1.446-8.717,1.008-12.254a27.053,27.053,0,0,0-2.054-7.85A12.2,12.2,0,0,0,58.067,45.9a1.262,1.262,0,0,0,1.817-.738c1.163-3.1-.583-6.683-2.038-9.388a27.789,27.789,0,0,0-7.017-8.625,4.234,4.234,0,0,0-2.85-.913c-.029-.217-.05-.433-.079-.65a17.311,17.311,0,0,0-4.75-10.167c-2.8-3.029-5.242-6.313-7.95-9.4a3.661,3.661,0,0,0,.65-.775,2.612,2.612,0,0,0,0-2.692c-1.738-2.4-5.771-2.717-8.225-1.025a4.4,4.4,0,0,0-1.971,3.667,3.561,3.561,0,0,0,2.558,3.471A2.479,2.479,0,0,0,31.1,7.226c0,.029,0,.058,0,.088.5,3.692,2.442,7,4.679,9.925,2.733,3.571,4.517,6.175,5.071,10.738.263,2.146.5,4.3.746,6.446A102.355,102.355,0,0,0,40.43,47.651c-.187,5.958-.521,12.025-.263,17.992a18.908,18.908,0,0,1-10.842,3.033A20.569,20.569,0,0,1,19.979,66.118ZM49.371,50.535l-.333.108c.1-.158.213-.312.3-.475C49.342,50.293,49.363,50.418,49.371,50.535Zm.829-12.8a1.291,1.291,0,0,0-.829.2c-.046-.392-.1-.783-.142-1.179C49.563,37.072,49.875,37.414,50.2,37.739Z" transform="translate(14.992 -0.462)"/><path class="a" d="M22.318,21.73a2.472,2.472,0,0,0,3.467,0c3.842-4.433-.233-13.838-5.571-15.442a1.3,1.3,0,0,0-1.625,1.238c-.071,2.417.967,4.792,1.371,7.163C20.405,17.313,20.368,19.684,22.318,21.73Z" transform="translate(58.029 17.826)"/><path class="a" d="M10.219,16a11.974,11.974,0,0,0-4.45-2.433,7.071,7.071,0,0,0-4.4-.383,1.607,1.607,0,0,0-.95,2.333A10.729,10.729,0,0,0,3.1,18.146a39.764,39.764,0,0,0,3.313,2.779C9.432,22.842,12.761,18.476,10.219,16Z" transform="translate(-0.198 39.164)"/><path class="a" d="M85.547,11.915a6.341,6.341,0,0,0-3.267,2.05,3.584,3.584,0,0,0-4.317,3.317c-.154,3.388-.442,6.871.379,10.188a1.364,1.364,0,0,0,.4.671,3.546,3.546,0,0,0-1.275,1.679,17.522,17.522,0,0,0-.679,2.579,1.337,1.337,0,0,0-1.625.267c-.046.05-.092.1-.138.142.408-.85.792-1.721,1.125-2.617,1.667-4.471,1.3-8.308.642-12.908-.2-1.4-2.425-1.029-2.429.329C74.335,25,69.093,32.72,64.131,37.786a67,67,0,0,1-10.792,9.208,43.5,43.5,0,0,1-7.717,1.483c-11.075,1.117-25.829-1.5-30.95-12.917-.271-.6-1.279-.175-1.067.45,2,5.863,4.963,10.5,10.225,13.942-.7-.458-1.5-.825-2.417-1.358-2-1.171-3.1-2.754-4.671-4.363a4.971,4.971,0,0,0-3.921-1.475c-.971-1.45-2.713-2.5-3.988-3.575a59.351,59.351,0,0,0-5.279-3.946,1.25,1.25,0,0,0-1.817,1.4A21.823,21.823,0,0,0,4.78,43.124a25.176,25.176,0,0,0,2.008,2.621c-.071.075-.158.142-.225.221a1.067,1.067,0,0,0,.463,1.754c1.663.7,3.908-.025,5.313.754,1.05.583,2.25,3.033,3.179,3.913A17.427,17.427,0,0,0,19.6,55.453c.325,2.321,2.892,4.042,4.838,4.971a17.322,17.322,0,0,0,9.154,1.946,4.039,4.039,0,0,0,.779-.229,2.415,2.415,0,0,0,2.008-.579c1.592-1.554,3.5-.8,5.483-.629a16.337,16.337,0,0,0,6.558-.746,3.52,3.52,0,0,0,1.063-.612A1.872,1.872,0,0,0,50.518,60c3.75.179,7.171.229,10.683-1.383,1.921-.883,4.646-2.788,5.471-5.046.021-.033.063-.046.079-.079a12.8,12.8,0,0,1,1.758-2.867A13.724,13.724,0,0,1,71.3,48.636c2.354-1.463,4.546-2.933,4.083-6a2.1,2.1,0,0,0-.858-1.317c.221-.333.408-.692.608-1.038a1.277,1.277,0,0,0,1.1.488c4.258-.3,8.071-6.021,7.629-10.092a3.385,3.385,0,0,0-2.7-3.088,14.5,14.5,0,0,0,3.383-7.058,6.264,6.264,0,0,0,2.417-2.083,10.082,10.082,0,0,0,1.625-3.492A2.508,2.508,0,0,0,85.547,11.915ZM50.289,54.807c.621-.088,1.242-.2,1.863-.308a10.46,10.46,0,0,0-1.533,1.025A3.989,3.989,0,0,0,50.289,54.807Zm-24.067-.883c-.154-.037-.308-.083-.463-.125a2.364,2.364,0,0,0,0-1.35,4.55,4.55,0,0,0-1.592-2.238,33.291,33.291,0,0,0,12.938,4.6,7.137,7.137,0,0,0-1.813.7,4.372,4.372,0,0,0-1.713-.563A57.1,57.1,0,0,1,26.222,53.924Z" transform="translate(4.545 35.629)"/><path class="a" d="M5.488,28.988A56.837,56.837,0,0,1,10.368,18.38c1.733-3.029,4.7-5.329,6-8.508.629-1.538-1.238-3.263-2.729-2.729-3.9,1.4-6.446,6.183-8.033,9.792C3.768,21.109,3.755,24.6,4.363,28.984,4.451,29.6,5.334,29.484,5.488,28.988Z" transform="translate(11.854 20.381)"/></g><path class="b" d="M7.224,6.906,6.341,49.294s7.679,9.275,8,7.438-.958-46.542-.958-46.542l-6.238-4.4Z" transform="translate(20.082 18.333)"/><path class="b" d="M11.045,9.125l2.233,51.4L24,57.171,22.716,10.15l-6.479-4.4Z" transform="translate(34.978 18.21)"/><g transform="translate(-0.001 0)"><g transform="translate(20.002 33.578)"><path class="c" d="M31.039,54.333c-.254,0-.513,0-.767-.013C14.093,53.858,4.455,39.491,4.809,26.445A26.949,26.949,0,0,1,11.005,9.9a1.084,1.084,0,0,1,1.663,1.392A24.762,24.762,0,0,0,6.976,26.507c-.325,12,8.517,25.225,23.359,25.65a24.668,24.668,0,0,0,7.071-.825,25.5,25.5,0,0,0,6.367-2.675C54.893,41.4,58.872,26.4,52.6,15.257a22.48,22.48,0,0,0-4.108-5.329,1.082,1.082,0,0,1,1.483-1.575,24.738,24.738,0,0,1,4.508,5.838C61.305,26.316,57.01,42.6,44.914,50.5a27.567,27.567,0,0,1-6.95,2.929A26.953,26.953,0,0,1,31.039,54.333Z" transform="translate(-4.8 -8.058)"/></g><g transform="translate(0 11.361)"><path class="c" d="M38.927,90.642a1.179,1.179,0,0,1-.171-.012A44.18,44.18,0,0,1,26.4,86.742a1.084,1.084,0,0,1-.583-1.217c.408-1.8.883-3.617,1.342-5.371l.35-1.35a38.125,38.125,0,0,1-8.625-6.746c-1.913,1.038-3.913,2.15-5.958,3.317a1.079,1.079,0,0,1-1.363-.242A48.685,48.685,0,0,1,4.369,63.7a1.082,1.082,0,0,1,.317-1.3L6.231,61.18c1.279-1.008,2.6-2.05,3.925-3.063A41.169,41.169,0,0,1,7.64,46.642c-1.95-.271-4.192-.567-6.679-.888a1.083,1.083,0,0,1-.946-1.046c-.021-.825-.021-1.658,0-2.479A48.014,48.014,0,0,1,2.4,28.533,1.087,1.087,0,0,1,3.577,27.8c2.283.308,4.642.525,6.942.725a38.6,38.6,0,0,1,5.392-9.3l-.338-.417c-1.346-1.658-2.738-3.371-4-5.158a1.085,1.085,0,0,1,.075-1.346,41.407,41.407,0,0,1,12.1-9.463,1.081,1.081,0,0,1,1.3.242c1.383,1.546,2.879,3.092,4.567,4.713.908-.313,1.908-.6,3.154-.913a1.082,1.082,0,1,1,.525,2.1,31.734,31.734,0,0,0-3.558,1.071A1.082,1.082,0,0,1,28.6,9.829c-1.7-1.608-3.2-3.142-4.6-4.671A39.158,39.158,0,0,0,13.844,13.1c1.092,1.483,2.267,2.933,3.413,4.346l.892,1.1a1.08,1.08,0,0,1-.008,1.367,36.5,36.5,0,0,0-5.9,10.15,1.089,1.089,0,0,1-1.1.688l-.146-.013c-2.233-.2-4.533-.4-6.8-.679a45.637,45.637,0,0,0-2,12.225c-.013.475-.017.958-.017,1.438,2.5.321,4.733.621,6.65.892a1.081,1.081,0,0,1,.929,1.017,38.886,38.886,0,0,0,2.721,12.45,1.083,1.083,0,0,1-.358,1.271c-1.533,1.146-3.058,2.354-4.538,3.521l-.879.7a46.536,46.536,0,0,0,5.95,9.471c2.046-1.158,4.046-2.263,5.946-3.288a1.09,1.09,0,0,1,1.313.221,35.862,35.862,0,0,0,9.379,7.333,1.079,1.079,0,0,1,.533,1.221c-.183.721-.371,1.446-.563,2.167-.383,1.467-.775,2.971-1.129,4.463a41.792,41.792,0,0,0,10.033,3.167c.633-2.129,1.288-4.329,2.1-6.438A1.086,1.086,0,0,1,41.4,81.2c1.2.154,2.433.25,3.65.288a37.369,37.369,0,0,0,8.425-.717,1.077,1.077,0,0,1,1.179.575c1.029,2.046,2.171,3.971,3.442,6.042A46.216,46.216,0,0,0,67.54,83.6c-.588-2.3-1.183-4.658-1.588-7.029A1.088,1.088,0,0,1,66.4,75.5,39,39,0,0,0,74.386,68a1.1,1.1,0,0,1,1.233-.333c1.317.512,2.638,1.008,3.958,1.508q1.256.475,2.508.95A48.663,48.663,0,0,0,87.5,59.992c-1.479-.783-3.35-1.817-5.8-3.188a1.086,1.086,0,0,1-.5-1.288A38.962,38.962,0,0,0,83.24,43.129a1.084,1.084,0,0,1,.867-1.063c1.446-.292,2.917-.542,4.338-.788q1.144-.194,2.288-.4a43.4,43.4,0,0,0-1.938-11.113c-2.413.225-4.863.413-7.058.579a1.088,1.088,0,0,1-1.088-.675,34.925,34.925,0,0,0-1.925-4,35.774,35.774,0,0,0-4.483-6.288,1.081,1.081,0,0,1-.062-1.371C75.5,16.242,76.7,14.3,77.861,12.429L78,12.2a36.59,36.59,0,0,0-8.329-5.95c-1,.975-2.038,1.913-3.046,2.825-.817.738-1.629,1.475-2.421,2.225a1.075,1.075,0,0,1-1.175.208c-.363-.158-.729-.308-1.1-.458a20.968,20.968,0,0,0-2.775-.842A1.084,1.084,0,1,1,59.661,8.1a22.491,22.491,0,0,1,3.071.933c.167.067.333.133.5.2.638-.6,1.288-1.183,1.942-1.775,1.179-1.067,2.4-2.167,3.529-3.3a1.084,1.084,0,0,1,1.254-.2,38.9,38.9,0,0,1,10.188,7.308A1.084,1.084,0,0,1,80.3,12.6l-.6.963c-1.033,1.671-2.1,3.388-3.271,5.025A38.886,38.886,0,0,1,80.607,24.6a37.32,37.32,0,0,1,1.742,3.521c2.246-.171,4.717-.363,7.1-.6a1.079,1.079,0,0,1,1.133.733,45.566,45.566,0,0,1,2.346,13.492,1.081,1.081,0,0,1-.883,1.088c-1.075.2-2.154.388-3.233.575-1.121.192-2.275.392-3.417.608a41.127,41.127,0,0,1-1.863,11.325c2.525,1.408,4.392,2.425,5.821,3.171a1.083,1.083,0,0,1,.517,1.333,50.863,50.863,0,0,1-6.508,12.221,1.082,1.082,0,0,1-1.267.375C81,72.021,79.9,71.609,78.807,71.2c-1.079-.408-2.163-.817-3.242-1.229A41.2,41.2,0,0,1,68.2,76.859c.408,2.213.967,4.379,1.554,6.663l.088.342a1.089,1.089,0,0,1-.521,1.217A48.248,48.248,0,0,1,58.2,89.6l-.329.1a1.074,1.074,0,0,1-1.188-.483c-1.267-2.054-2.492-4.079-3.579-6.167a39.447,39.447,0,0,1-8.1.6c-1-.029-2.013-.1-3.013-.2-.65,1.8-1.213,3.683-1.754,5.508l-.267.9A1.094,1.094,0,0,1,38.927,90.642Z" transform="translate(0.001 -2.726)"/></g><g transform="translate(25.369)"><path class="c" d="M7.172,69.868a1.088,1.088,0,0,1-1.083-1.1L6.9,23.3a1.086,1.086,0,0,1,.271-.7c2.863-3.263,5.708-6.679,8.458-9.988C19.022,8.543,22.526,4.334,26.109.355A1.068,1.068,0,0,1,26.947,0a1.086,1.086,0,0,1,.817.408L45.2,22.46a1.075,1.075,0,0,1,.229.6l3.142,44.98a1.082,1.082,0,1,1-2.158.15L43.3,23.543,26.863,2.764C23.6,6.43,20.4,10.276,17.3,14c-2.675,3.217-5.442,6.542-8.233,9.733L8.251,68.806A1.079,1.079,0,0,1,7.172,69.868Z" transform="translate(-6.088 0)"/></g><g transform="translate(38.431 7.713)"><path class="c" d="M17.053,5.277A19.442,19.442,0,0,1,9.911,3.944,1.083,1.083,0,1,1,10.7,1.927a17.931,17.931,0,0,0,12.217.208,1.083,1.083,0,1,1,.7,2.05A20.253,20.253,0,0,1,17.053,5.277Z" transform="translate(-9.223 -1.851)"/></g><g transform="translate(26.184 21.653)"><path class="c" d="M14.032,13.2a1.07,1.07,0,0,1-.638-.208l-.25-.179a78.915,78.915,0,0,1-6.5-5.075A1.083,1.083,0,0,1,8.09,6.128a73.385,73.385,0,0,0,5.892,4.617c.892-.742,1.792-1.479,2.692-2.217q1.438-1.175,2.863-2.354A1.079,1.079,0,0,1,20.9,6.153c.8.629,1.592,1.283,2.379,1.938.938.775,1.9,1.575,2.875,2.317l4.608-4.063a1.086,1.086,0,0,1,1.413-.021l.492.413a50.944,50.944,0,0,0,4.717,3.658l.775-.763a55.7,55.7,0,0,1,4.592-4.2,1.083,1.083,0,1,1,1.338,1.7,54.269,54.269,0,0,0-4.408,4.042c-.467.458-.929.917-1.4,1.371a1.083,1.083,0,0,1-1.313.146A45.237,45.237,0,0,1,31.5,8.582l-4.571,4.029a1.085,1.085,0,0,1-1.354.067c-1.275-.925-2.5-1.942-3.679-2.921-.55-.454-1.1-.908-1.65-1.358q-1.094.906-2.2,1.8c-1.113.913-2.225,1.825-3.321,2.746A1.094,1.094,0,0,1,14.032,13.2Z" transform="translate(-6.283 -5.196)"/></g><g transform="translate(32.203 27.335)"><path class="c" d="M10.282,55.39A1.087,1.087,0,0,1,9.2,54.348c-.65-16.317-1.463-31.042-1.471-31.192,0-2.158.042-4.288.083-6.342s.083-4.179.083-6.275q0-1.431-.029-2.875a1.086,1.086,0,0,1,1.058-1.1,1.109,1.109,0,0,1,1.108,1.058c.021.979.029,1.95.029,2.925,0,2.117-.042,4.254-.083,6.317-.042,2.046-.083,4.163-.083,6.238.008.087.817,14.829,1.471,31.163a1.084,1.084,0,0,1-1.038,1.125A.171.171,0,0,1,10.282,55.39Z" transform="translate(-7.728 -6.56)"/></g><g transform="translate(44.969 27.335)"><path class="c" d="M13.817,59.056a1.083,1.083,0,0,1-1.083-1.05c-.238-8.133-.6-16.4-.95-24.4-.371-8.5-.754-17.283-.992-25.929a1.084,1.084,0,0,1,2.167-.058c.237,8.629.621,17.408.992,25.9.35,8.008.713,16.288.95,24.434A1.087,1.087,0,0,1,13.817,59.056Z" transform="translate(-10.792 -6.56)"/></g><g transform="translate(56.311 27.335)"><path class="c" d="M16.377,55.148a1.082,1.082,0,0,1-1.079-1c-.046-.6-.088-1.213-.125-1.821-.254-4.192-.308-9.629-.371-15.392-.1-9.683-.217-20.663-1.279-29.154a1.083,1.083,0,0,1,2.15-.267c1.079,8.617,1.2,19.658,1.3,29.4.063,5.733.117,11.15.367,15.283.037.6.079,1.2.121,1.792a1.086,1.086,0,0,1-1,1.163Z" transform="translate(-13.514 -6.56)"/></g></g><path class="b" d="M20.817,7.474A14.5,14.5,0,0,1,9.7,7.074L15.458.357Z" transform="translate(30.719 1.132)"/></g></svg>