<svg xmlns="http://www.w3.org/2000/svg" width="119.776" height="100" viewBox="0 0 119.776 100"><defs><style>.a{fill:#e0dfe6;}.b{fill:#28d6d6;}.c{fill:#525d7d;}</style></defs><g transform="translate(0)"><g transform="translate(0.689 11.772)"><path class="a" d="M-95.624-400.958c-.095-4,.444-10.48-1.442-14.623a1.905,1.905,0,0,0-1.777-2.465c-1.9-.225-3.369.928-5.175,1.407A46.118,46.118,0,0,1-110.3-415.6c-.654.08-5.32.589-4.427,2.261,1.362,2.54,6.044,2.141,8.444,1.991a22.056,22.056,0,0,0,5.135-.858c-.015.6-.015,1.213-.03,1.812-.045,1.482-.05,2.965-.05,4.447-1.517.419-2.994.983-4.537,1.373-2.381.6-4.861.9-7.182,1.717a1.674,1.674,0,0,0,0,3.2,21.333,21.333,0,0,0,11.723-.873c-.025,2.126-.15,4.317-.269,6.518-4.157,2.016-8.579,2.446-13.186,2.865a.664.664,0,0,0-.329,1.228c4.2,2.321,8.983,2.011,13.32.4a49.325,49.325,0,0,0,.245,7.421c.329,2.67,4.372,3.8,5.1.694C-94.911-387.528-95.475-394.695-95.624-400.958Z" transform="translate(172.363 435.55)"/><path class="a" d="M-104.172-410.208a34.327,34.327,0,0,1-5.849,1.1,22.65,22.65,0,0,0-5.066.609.853.853,0,0,0-.374,1.412c3.134,2.795,8.739,2.251,12.382.858C-100.644-407.159-101.547-410.872-104.172-410.208Z" transform="translate(170.865 466.629)"/><path class="a" d="M-106.881-407.708c-1.208.644-2.865.474-4.2.554a24.342,24.342,0,0,0-4.572.624.968.968,0,0,0,0,1.852c3.254,1.033,7.536,1.847,10.74.334C-102.669-405.4-104.65-408.91-106.881-407.708Z" transform="translate(168.358 475.932)"/><path class="a" d="M-93.223-402.491c-1.891-.7-3.344-.2-5.285.065a5.5,5.5,0,0,0,2.485-1.607,1.434,1.434,0,0,0-.624-2.371c-2.216-.524-4.237.454-6.438.823a32.952,32.952,0,0,1-9.448.259.876.876,0,0,0-.469,1.687,32.412,32.412,0,0,0,4.367,1.353,73.837,73.837,0,0,0-8.884-.654c-.7.02-1.233.983-.619,1.5,3.419,2.875,8.04,3.863,12.4,4.3,3.923.394,10.386.918,13.385-2.071A1.993,1.993,0,0,0-93.223-402.491Z" transform="translate(160.11 481.521)"/><path class="a" d="M-105.672-399.354c-.459-5.9-.319-14.239-3.713-19.294a.756.756,0,0,0-1.362.175c-1.183,3.159-.774,6.683-.679,10,.095,3.279.225,6.553.3,9.827.175,6.7-.469,13.789.5,20.4.379,2.58,4.7,2.505,5.146,0C-104.27-384.981-105.143-392.562-105.672-399.354Z" transform="translate(187.387 431.84)"/><path class="a" d="M-116.541-415.212a.786.786,0,0,0-.429.3,2.819,2.819,0,0,1-.6-.319c-.329-.25-.818.165-.694.534a6.654,6.654,0,0,1,.01,1.607,6.739,6.739,0,0,1-.1,2.171c-.359,1.208-1.328,1.433-2.326,2a1.894,1.894,0,0,0,.444,3.424c.07.01.14.015.21.025-.155,1.038.429,2.251.634,3.209a6.807,6.807,0,0,1,.085,1.377c-2.59.559-5.55.793-7.107,2.71a1.253,1.253,0,0,0,.25,1.937c3.059,1.547,8.4.659,11.449-.569a4.12,4.12,0,0,0,.574-.284,2.58,2.58,0,0,0,3.429-2.281C-110.328-403.288-109.155-417.163-116.541-415.212ZM-117.38-406a5.458,5.458,0,0,0,2.081-2.261c-.07.6-.14,1.168-.175,1.662-.06.908-.13,1.822-.195,2.74a6.365,6.365,0,0,0-.509-.858A7.274,7.274,0,0,0-117.38-406Z" transform="translate(126.763 446.23)"/><path class="a" d="M-112.078-399.422c-.689-2.7-1.782-6.144-3.963-7.975a1.362,1.362,0,0,0-1.777-.08,2.229,2.229,0,0,0-.908-.818.949.949,0,0,0-1.367.559,15.936,15.936,0,0,0-.3,2.166,8.3,8.3,0,0,1-.853,2.051,2.055,2.055,0,0,0,0,2.086,2.048,2.048,0,0,0,1.238.948c.075.015.155.02.235.03a1.041,1.041,0,0,0-.449.374c-.6.818-.185,2.051-.05,2.954a20.979,20.979,0,0,1,.09,2.795c-.679.13-1.233.24-1.482.309-1.417.4-2.445.674-3.319,1.917a.928.928,0,0,0,.14,1.113c1.572,1.787,4.327,1.353,6.458,1.073s5.205-.459,6.518-2.47C-110.615-394.307-111.564-397.416-112.078-399.422Zm-6.982-1.063a1.889,1.889,0,0,0,1.3-.823c.045.21.085.419.125.629.085.459.17.923.255,1.387A4.013,4.013,0,0,0-119.06-400.486Z" transform="translate(133.344 474.125)"/><path class="a" d="M-89.562-408.032a1.1,1.1,0,0,0-2.031.549c-.035.988.03,2.1-.08,3.149a2.868,2.868,0,0,0-.893.489c-1.637,1.3-1.627,3.339-2.915,4.941a11.384,11.384,0,0,1-5.62,3.623,11.811,11.811,0,0,1-7.841-.3c-1.3-.5-2.385-1.318-3.8-1.417a.4.4,0,0,0-.374.284c-.739,2.221,1.1,4.172,2.875,5.345a6.231,6.231,0,0,0-1.288.165.871.871,0,0,0-.6,1.058c2.535,9.053,26.316,4.162,23.2-5.016a2.525,2.525,0,0,0-.918-1.277,7.013,7.013,0,0,0,1.647-4.332c.02-.06.05-.115.065-.175C-87.331-403.456-88.214-405.916-89.562-408.032Z" transform="translate(180.569 473.566)"/><path class="a" d="M-93.174-406.068l.01-.065a1.2,1.2,0,0,0-.02-.234c-.015-.514-.035-1.008-.05-1.457a2.8,2.8,0,0,0-1.981-2.6,2.269,2.269,0,0,0-1.432,0,2.792,2.792,0,0,0-1.976,2.6c-.075.818-.085,1.642-.085,2.46a13.283,13.283,0,0,1-1.293.933c-1.367.843-3.434,1.487-4.272,2.909a1.225,1.225,0,0,0,.255,1.507c-1.078.639-1.862,1.492-1,2.475,1.143,1.318,3.064.863,4.616.674a11.463,11.463,0,0,0,4.7-1.2C-93.268-399.55-93.1-403.159-93.174-406.068Z" transform="translate(212.069 465.614)"/><path class="a" d="M-96.9-407.392a1.488,1.488,0,0,0-2.206.14,3.563,3.563,0,0,0,.309-3.518,2.166,2.166,0,0,0-2.925-.764c-1.118.649-1.422,1.991-1.827,2.82-.389.8-.893,1.532-1.308,2.321a1.305,1.305,0,0,0,1.113,1.941,5.668,5.668,0,0,0,4.437-2.485,1.662,1.662,0,0,0,.015,1.387c.514,1.148.379,2.55,1.168,3.578a2.018,2.018,0,0,0,1.956.938,1.955,1.955,0,0,0,1.637-1.407C-94.1-404.5-95.44-406.135-96.9-407.392Z" transform="translate(213.536 460.544)"/><path class="a" d="M-78.447-411.055a.839.839,0,0,0-1.607,0c-.08.359-.165.719-.265,1.078a21.3,21.3,0,0,0-2.475-11.214c-.389-.729-1.377-.324-1.442.389-.21,2.351-.269,4.866-.584,7.306-3.808,8.484-14.229,8.854-22.6,9.118-2.615-.868-5.44,3.838-2.964,5.535A2.7,2.7,0,0,0-109.1-395.1c5.749,2.969,14.553,1.617,20.577-1.8-.155.13-.314.264-.474.389-5.63,4.362-12.212,3.439-18.805,4.192-3.144.36-4.4,5.086-.808,5.944,7.556,1.812,17.647-.644,23.611-5.595A18.616,18.616,0,0,0-78.447-411.055Z" transform="translate(188.304 421.576)"/><path class="a" d="M-86.516-418.492c-.469.04-.938.075-1.407.115a11.735,11.735,0,0,0-5.709-1.467c-3.513-.624-7.955-.11-10.031-.1-.2,0-.429,0-.679-.005-2.376-.035-4.746-.045-7.117.01-2.76.06-5.021-.035-7.207,1.771-1.357,1.133-.759,3.264.529,4.1a10.792,10.792,0,0,0,4.112,1.492,11.549,11.549,0,0,0,2.121.619,49.483,49.483,0,0,0,10.466,1.053c2.815,0,10.99.429,13.894-2.391.344-.035.689-.055,1.028-.09C-83.277-413.7-83.232-418.786-86.516-418.492Z" transform="translate(155.998 427.256)"/><path class="a" d="M-96.178-409.491c-3.064-1.368-6.733.04-10.026.18-3.843.165-7.621-.874-11.384-.7a.4.4,0,0,0-.284.684c2.421,2.735,6.957,3.5,10.426,3.818,3.444.319,8.893.774,11.559-1.732A1.443,1.443,0,0,0-96.178-409.491Z" transform="translate(161.802 467.439)"/><path class="a" d="M-91.088-413.06c-4.591.9-8.8,2.381-13.54,2.66-4.312.25-8.634-.534-12.906-.254a.432.432,0,0,0-.22.8c7.062,5.146,20.786,4.492,28.143.3C-87.639-410.669-89.017-413.469-91.088-413.06Z" transform="translate(161.923 455.402)"/><path class="a" d="M-93.372-415.021c-3.948-.2-7.99,1.308-12.043,1.283-4.013-.02-7.92-1.188-11.918-1.108a.549.549,0,0,0-.384.928c3.219,2.75,7.546,3.409,11.658,3.738,4.023.319,10.006.379,13.455-2.011A1.532,1.532,0,0,0-93.372-415.021Z" transform="translate(162.205 447.661)"/><path class="a" d="M-93.3-416.455c-1.7-.549-2.7-.125-4.467.2a32.705,32.705,0,0,1-7.087.5c-4.112-.16-8.165-1.817-12.242-1.682a.479.479,0,0,0-.334.809c2.81,3.234,7.88,4.032,11.943,4.337,3.593.27,10.116.669,12.667-2.341A1.105,1.105,0,0,0-93.3-416.455Z" transform="translate(163.504 438.06)"/><path class="a" d="M-99.535-407.759c-2.994-.245-6.039.769-9.088.774-2.994,0-5.929-.684-8.9-.689a.434.434,0,0,0-.3.734c4.227,3.9,14.184,5.445,19.1,2.171A1.618,1.618,0,0,0-99.535-407.759Z" transform="translate(161.905 476.567)"/></g><circle class="b" cx="14.308" cy="14.308" r="14.308" transform="translate(64.027 67.353)"/><g transform="translate(30.984 14.204)"><path class="c" d="M-97.177-402.254c-6.029,0-23.516-2.256-23.516-9.168,0-7.646,13.959-9.667,21.34-9.667h1.073c4.067,0,24.355.479,24.355,10.021C-73.925-402.678-93.294-402.254-97.177-402.254Zm-1.1-16.634h-1.073c-7.945,0-19.135,2.316-19.135,7.466,0,1.812,2.845,3.648,7.806,5.036a55.447,55.447,0,0,0,13.5,1.927c10.136,0,21.046-2.066,21.046-6.608C-76.131-417.256-90.619-418.888-98.28-418.888Z" transform="translate(120.693 421.089)"/></g><g transform="translate(30.984 80.75)"><path class="c" d="M-97.177-396.771c-6.029,0-23.516-2.261-23.516-9.168a6.315,6.315,0,0,1,.065-.878,1.1,1.1,0,0,1,1.258-.923,1.1,1.1,0,0,1,.923,1.258,3.206,3.206,0,0,0-.04.544c0,1.807,2.845,3.643,7.806,5.036a55.446,55.446,0,0,0,13.5,1.926A66.918,66.918,0,0,0-84.924-400.1a1.1,1.1,0,0,1,1.3.858,1.1,1.1,0,0,1-.858,1.3A68.054,68.054,0,0,1-97.177-396.771Z" transform="translate(120.693 407.755)"/></g><g transform="translate(30.983 23.197)"><path class="c" d="M-119.589-358.156h-.05a1.1,1.1,0,0,1-1.053-1.148c.195-4.412.165-9.113.13-13.66-.01-1.7-.02-3.389-.02-5.041,0-3.049-.02-6.094-.035-9.138s-.035-6.094-.035-9.138c0-3.184-.005-5.115-.015-7.346-.01-3.03-.025-6.6-.025-14.563a1.1,1.1,0,0,1,1.1-1.1,1.1,1.1,0,0,1,1.1,1.1c0,7.96.01,11.529.025,14.553.005,2.231.015,4.172.015,7.356q0,4.559.035,9.123t.03,9.153c0,1.647.015,3.329.025,5.026.03,4.577.065,9.308-.135,13.77A1.1,1.1,0,0,1-119.589-358.156Z" transform="translate(120.693 419.287)"/></g><g transform="translate(75.242 23.197)"><path class="c" d="M-110.6-373.382a1.1,1.1,0,0,1-1.1-1.093q-.008-1.781-.01-3.528c0-3.049-.02-6.094-.035-9.138s-.035-6.094-.035-9.138c0-3.184-.005-5.115-.015-7.346-.01-3.03-.025-6.6-.025-14.563a1.1,1.1,0,0,1,1.1-1.1,1.1,1.1,0,0,1,1.1,1.1c0,7.96.015,11.529.03,14.553,0,2.231.015,4.172.015,7.356q0,4.559.03,9.123t.035,9.153q0,1.737.015,3.514A1.1,1.1,0,0,1-110.6-373.382Z" transform="translate(111.825 419.287)"/></g><g transform="translate(31.009 37.71)"><path class="c" d="M-95.924-408.359c-7.776,0-17.567-.689-24.345-6.054a1.1,1.1,0,0,1-.18-1.547,1.1,1.1,0,0,1,1.547-.179c6.248,4.941,15.561,5.574,22.977,5.574,8.759,0,14.992-2.69,19.544-4.656l.624-.27a1.1,1.1,0,0,1,1.447.574,1.1,1.1,0,0,1-.574,1.447l-.624.27C-80.238-411.159-86.711-408.359-95.924-408.359Z" transform="translate(120.688 416.379)"/></g><g transform="translate(31.041 49.509)"><path class="c" d="M-96.992-406.27c-5.175,0-15.057-.634-23.1-4.881a1.1,1.1,0,0,1-.459-1.487,1.1,1.1,0,0,1,1.487-.459c7.626,4.022,17.1,4.626,22.074,4.626,11.643,0,17.363-2.865,21.046-5.355a1.105,1.105,0,0,1,1.532.294A1.106,1.106,0,0,1-74.709-412C-78.656-409.334-84.75-406.27-96.992-406.27Z" transform="translate(120.682 414.015)"/></g><g transform="translate(31.041 63.314)"><path class="c" d="M-96.992-404.293c-5.175,0-15.057-.634-23.1-4.881a1.1,1.1,0,0,1-.459-1.487,1.1,1.1,0,0,1,1.487-.459c7.626,4.022,17.1,4.626,22.074,4.626a51.39,51.39,0,0,0,10.3-.918,1.1,1.1,0,0,1,1.3.858,1.1,1.1,0,0,1-.858,1.3A53.554,53.554,0,0,1-96.992-404.293Z" transform="translate(120.682 411.249)"/></g><g transform="translate(31.041 74.744)"><path class="c" d="M-96.987-402.009c-5.9,0-15.317-.759-23.107-4.871a1.1,1.1,0,0,1-.459-1.492,1.1,1.1,0,0,1,1.487-.459c7.915,4.177,18.915,5.041,26.566,4.462a1.1,1.1,0,0,1,1.183,1.013,1.1,1.1,0,0,1-1.013,1.183C-93.324-402.1-94.946-402.009-96.987-402.009Z" transform="translate(120.682 408.958)"/></g><g transform="translate(63.362 66.736)"><path class="c" d="M-98.677-380.354a15.672,15.672,0,0,1-11.134-4.786,15.317,15.317,0,0,1-4.387-11.234,14.092,14.092,0,0,1,9.922-13.375,20.158,20.158,0,0,1,5.5-.813c8.968,0,15.332,5.969,15.511,14.523A15.742,15.742,0,0,1-87.817-385a15.114,15.114,0,0,1-10.795,4.641Zm-4.991-27.279A11.9,11.9,0,0,0-112-396.309a13.1,13.1,0,0,0,3.763,9.627,13.5,13.5,0,0,0,9.612,4.122,12.9,12.9,0,0,0,9.228-3.973,13.527,13.527,0,0,0,3.928-9.458c-.155-7.286-5.615-12.367-13.285-12.367A17.746,17.746,0,0,0-103.668-407.634Z" transform="translate(114.205 410.563)"/></g><g transform="translate(78.321 74.552)"><path class="c" d="M-110.075-394.788a1.1,1.1,0,0,1-1.1-1.1c0-2.006-.01-4-.015-5.994s-.015-4-.015-6.009a1.1,1.1,0,0,1,1.1-1.1,1.1,1.1,0,0,1,1.1,1.1c0,2.011.01,4,.015,6s.015,3.993.015,6A1.1,1.1,0,0,1-110.075-394.788Z" transform="translate(111.208 408.997)"/></g><g transform="translate(73.111 80.232)"><path class="c" d="M-100.5-405.42h-.075c-.7-.05-1.442-.07-2.336-.07-.714,0-1.422.015-2.131.025-.729.015-1.452.03-2.176.03a30.071,30.071,0,0,1-4.077-.23,1.1,1.1,0,0,1-.948-1.238A1.106,1.106,0,0,1-111-407.85a27.5,27.5,0,0,0,3.788.215c.714,0,1.422-.015,2.131-.03.724-.015,1.447-.025,2.176-.025.943,0,1.737.02,2.485.07a1.1,1.1,0,0,1,1.023,1.173A1.1,1.1,0,0,1-100.5-405.42Z" transform="translate(112.252 407.859)"/></g><g transform="translate(68.814)"><path class="c" d="M-93.04-381.6a21.2,21.2,0,0,1-8.444-1.732,1.1,1.1,0,0,1-.579-1.447,1.1,1.1,0,0,1,1.447-.579,19.1,19.1,0,0,0,7.97,1.552c10.276-.2,18.266-8.669,18.181-19.269A18.383,18.383,0,0,0-80.4-416.5a19.662,19.662,0,0,0-13.31-5.225,18.558,18.558,0,0,0-6.693,1.293,19.016,19.016,0,0,0-10.585,10.411,1.1,1.1,0,0,1-1.437.6,1.1,1.1,0,0,1-.6-1.437,21.229,21.229,0,0,1,11.818-11.624,20.792,20.792,0,0,1,7.481-1.447h.155a21.791,21.791,0,0,1,14.668,5.814,20.53,20.53,0,0,1,6.643,15.027c.095,11.823-8.839,21.26-20.342,21.49C-92.751-381.6-92.9-381.6-93.04-381.6Z" transform="translate(113.113 423.935)"/></g><g transform="translate(85.458 0.05)"><path class="c" d="M-108.675-381.768a1.108,1.108,0,0,1-1.1-1.123,330.178,330.178,0,0,1,3.054-40.085,1.105,1.105,0,0,1,1.243-.938,1.1,1.1,0,0,1,.938,1.248,328.735,328.735,0,0,0-3.034,39.816A1.1,1.1,0,0,1-108.675-381.768Z" transform="translate(109.778 423.925)"/></g><g transform="translate(89.369 0.499)"><path class="c" d="M-107.89-382.058a1.087,1.087,0,0,1-.729-.275,1.1,1.1,0,0,1-.1-1.557c4.791-5.425,7.142-9.662,7.531-19.04a36.959,36.959,0,0,0-5.345-19.234,1.1,1.1,0,0,1,.374-1.512,1.1,1.1,0,0,1,1.512.374,39.155,39.155,0,0,1,5.659,20.422c-.414,10.026-3.044,14.748-8.08,20.447A1.089,1.089,0,0,1-107.89-382.058Z" transform="translate(108.994 423.835)"/></g><g transform="translate(76.466 0.017)"><path class="c" d="M-110.478-406.2a1.085,1.085,0,0,1-.309-.045,1.1,1.1,0,0,1-.749-1.368,31.219,31.219,0,0,1,10.371-16.075,1.1,1.1,0,0,1,1.552.159,1.1,1.1,0,0,1-.16,1.547,29.086,29.086,0,0,0-9.647,14.987A1.113,1.113,0,0,1-110.478-406.2Z" transform="translate(111.58 423.932)"/></g><g transform="translate(74.256 4.848)"><path class="c" d="M-92.456-414.9c-.379,0-.759-.02-1.143-.04-.349-.02-.7-.04-1.058-.04-.155,0-.344.01-.569.02-.374.02-.828.045-1.352.045a22.254,22.254,0,0,1-15.1-6.149,1.109,1.109,0,0,1-.04-1.562,1.1,1.1,0,0,1,1.557-.04,20.037,20.037,0,0,0,13.585,5.55c.479,0,.893-.025,1.233-.045.27-.01.5-.025.689-.025.4,0,.793.025,1.183.045.339.02.679.04,1.018.04,2.151,0,5.3-1.193,9.353-3.543a1.106,1.106,0,0,1,1.507.4,1.1,1.1,0,0,1-.4,1.507C-86.457-416.148-89.876-414.9-92.456-414.9Z" transform="translate(112.023 422.964)"/></g><g transform="translate(78.795 21.54)"><path class="c" d="M-91.818-416.325c-3.508,0-7.007-.289-10.391-.574-2.58-.215-5.24-.434-7.84-.519a1.1,1.1,0,0,1-1.063-1.138,1.105,1.105,0,0,1,1.133-1.063c2.655.085,5.35.309,7.95.524,3.339.28,6.792.564,10.211.564a53.15,53.15,0,0,0,10.206-1,1.1,1.1,0,0,1,1.283.878,1.1,1.1,0,0,1-.878,1.288A55.178,55.178,0,0,1-91.818-416.325Z" transform="translate(111.113 419.619)"/></g><g transform="translate(79.028 32.21)"><path class="c" d="M-87.683-412.84a1.047,1.047,0,0,1-.324-.05,47.6,47.6,0,0,0-14.044-2.386,32.718,32.718,0,0,0-7.656.894,1.1,1.1,0,0,1-1.328-.814,1.1,1.1,0,0,1,.813-1.333,35.194,35.194,0,0,1,8.17-.953,49.641,49.641,0,0,1,14.693,2.49,1.1,1.1,0,0,1,.729,1.377A1.105,1.105,0,0,1-87.683-412.84Z" transform="translate(111.066 417.481)"/></g><g transform="translate(2.08 40.32)"><path class="c" d="M-120.767-404.278a5.662,5.662,0,0,1-5.714-5.51c-.08-2.72,1.617-5.724,4.591-6.044.13-.01.255-.02.384-.02a6.523,6.523,0,0,1,3.918.893,5.639,5.639,0,0,1,2.505,4.6,6.1,6.1,0,0,1-1.707,4.372A5.524,5.524,0,0,1-120.767-404.278Zm-.374-9.378-.319.005c-.075,0-.14,0-.2.01-1.622.175-2.665,2.1-2.615,3.793a3.474,3.474,0,0,0,3.513,3.369,3.337,3.337,0,0,0,2.4-1.043,3.864,3.864,0,0,0,1.088-2.775,3.471,3.471,0,0,0-1.532-2.835A4.155,4.155,0,0,0-121.142-413.655Z" transform="translate(126.485 415.856)"/></g><g transform="translate(0 49.3)"><path class="c" d="M-125.8-403.143a1.11,1.11,0,0,1-.8-.344,1.1,1.1,0,0,1-.289-.874,11.687,11.687,0,0,1,6.014-9.343,1.1,1.1,0,0,1,1.477.494,1.1,1.1,0,0,1-.494,1.477,9.189,9.189,0,0,0-4.6,6.308c1.447-.1,2.91-.245,4.342-.389,1.612-.165,3.269-.329,4.921-.434-.344-2.865-1.328-4.666-3.129-5.769a1.1,1.1,0,0,1-.364-1.512,1.1,1.1,0,0,1,1.512-.364c3.5,2.136,4.117,5.944,4.277,8.624a1.108,1.108,0,0,1-.284.8,1.088,1.088,0,0,1-.774.359c-1.961.085-3.983.284-5.939.484-1.906.19-3.883.389-5.819.479Z" transform="translate(126.901 414.057)"/></g><g transform="translate(105.226 57.99)"><path class="c" d="M-100.123-401.089a5.891,5.891,0,0,1-4.037-1.682,5.46,5.46,0,0,1-1.657-3.918,5.658,5.658,0,0,1,3.918-5.4,5.337,5.337,0,0,1,1.427-.229,5.713,5.713,0,0,1,5.909,5.25A5.737,5.737,0,0,1-96.13-402.9a5.691,5.691,0,0,1-3.9,1.812Zm-1.123-8.888a3.426,3.426,0,0,0-2.366,3.289,3.226,3.226,0,0,0,.993,2.346,3.649,3.649,0,0,0,2.55,1.053,3.49,3.49,0,0,0,2.336-1.128,3.471,3.471,0,0,0,.963-2.57,3.5,3.5,0,0,0-3.643-3.124A3.148,3.148,0,0,0-101.246-409.977Z" transform="translate(105.817 412.315)"/></g><g transform="translate(105.097 66.27)"><path class="c" d="M-104.6-398.622a1.105,1.105,0,0,1-1.093-.983,23.342,23.342,0,0,1-.15-2.535c0-3.813,1.223-6.393,3.623-7.676a1.1,1.1,0,0,1,1.492.454,1.094,1.094,0,0,1-.454,1.487c-1.652.883-2.456,2.76-2.456,5.734,0,.389.01.794.04,1.218,1.492-.15,3-.359,4.467-.559,1.482-.2,3-.414,4.517-.569-.359-2.346-1.308-5.071-3.658-6.578a1.1,1.1,0,0,1-.329-1.522,1.1,1.1,0,0,1,1.522-.329c3.474,2.231,4.527,6.3,4.8,9.323a1.107,1.107,0,0,1-.26.808,1.1,1.1,0,0,1-.749.389c-1.837.15-3.718.409-5.535.659-1.857.255-3.778.519-5.684.674Z" transform="translate(105.843 410.656)"/></g><g transform="translate(7.821 75.534)"><path class="c" d="M-120.143-398.009c-.095,0-.19,0-.284-.005a5.192,5.192,0,0,1-4.906-5.13,5.739,5.739,0,0,1,1.667-3.933,5.125,5.125,0,0,1,3.548-1.722,4.464,4.464,0,0,1,1.442.21,5.88,5.88,0,0,1,4.047,4.152,4.46,4.46,0,0,1,.135,1.078,5.307,5.307,0,0,1-1.742,3.768A5.659,5.659,0,0,1-120.143-398.009Zm.12-8.584h-.045a3.008,3.008,0,0,0-2,1.033,3.586,3.586,0,0,0-1.058,2.356,2.966,2.966,0,0,0,2.81,2.99,3.473,3.473,0,0,0,2.565-.973,3.169,3.169,0,0,0,1.058-2.181,2.2,2.2,0,0,0-.07-.529,3.666,3.666,0,0,0-2.57-2.59A2.356,2.356,0,0,0-120.023-406.593Z" transform="translate(125.334 408.8)"/></g><g transform="translate(6.568 83.519)"><path class="c" d="M-122.919-396.534c-.539,0-1.078-.015-1.617-.04a1.1,1.1,0,0,1-1.048-1.148c.27-6.074,2.78-9.3,4.487-9.3a1.673,1.673,0,0,1,.754.18,1.1,1.1,0,0,1,.494,1.477,1.119,1.119,0,0,1-1.173.594c-.5.4-1.892,2.121-2.281,6.034a68.14,68.14,0,0,0,8.01-.554l.948-.1c-.389-2.835-1.358-4.641-3.079-5.789a1.1,1.1,0,0,1-.3-1.527,1.1,1.1,0,0,1,1.527-.3c3.294,2.2,3.958,5.909,4.167,8.509a1.1,1.1,0,0,1-.983,1.188c-.684.07-1.362.145-2.041.215A72.434,72.434,0,0,1-122.919-396.534Z" transform="translate(125.585 407.2)"/></g><g transform="translate(12.051 39.552)"><path class="c" d="M-123.385-408.155a1.1,1.1,0,0,1-.918-.489,1.1,1.1,0,0,1,.309-1.527c.424-.285.858-.554,1.3-.813a1.1,1.1,0,0,1,1.507.394,1.1,1.1,0,0,1-.394,1.507c-.4.234-.8.484-1.188.744A1.117,1.117,0,0,1-123.385-408.155Zm7.281-3.438a1.105,1.105,0,0,1-1.048-.759,1.1,1.1,0,0,1,.7-1.387q.711-.24,1.437-.449a1.1,1.1,0,0,1,1.367.749,1.1,1.1,0,0,1-.749,1.367c-.459.135-.913.275-1.367.424A1.182,1.182,0,0,1-116.1-411.593Zm7.835-1.942a1.1,1.1,0,0,1-1.083-.893,1.106,1.106,0,0,1,.873-1.293c.484-.09.973-.185,1.457-.27a1.1,1.1,0,0,1,1.283.883,1.1,1.1,0,0,1-.888,1.283c-.474.085-.953.175-1.432.27A1,1,0,0,1-108.268-413.535Z" transform="translate(124.487 416.01)"/></g><g transform="translate(98.2 38.579)"><path class="c" d="M-96.281-399.921a1.1,1.1,0,0,1-1.058-.789c-.14-.469-.284-.923-.429-1.363a1.1,1.1,0,0,1,.689-1.4,1.1,1.1,0,0,1,1.4.694c.155.464.309.943.454,1.437a1.1,1.1,0,0,1-.739,1.367A1.008,1.008,0,0,1-96.281-399.921Zm-3.179-7.4a1.093,1.093,0,0,1-.943-.534q-.374-.614-.764-1.168a1.11,1.11,0,0,1,.279-1.537,1.1,1.1,0,0,1,1.532.274c.289.414.569.849.838,1.293a1.1,1.1,0,0,1-.374,1.512A1.08,1.08,0,0,1-99.46-407.322Zm-5.415-5.914a1.086,1.086,0,0,1-.619-.19,12.886,12.886,0,0,0-1.158-.709,1.107,1.107,0,0,1-.439-1.5,1.1,1.1,0,0,1,1.492-.439c.454.25.908.524,1.348.823a1.1,1.1,0,0,1,.289,1.532A1.1,1.1,0,0,1-104.875-413.236Z" transform="translate(107.225 416.205)"/></g><g transform="translate(76.186 47.094)"><path class="c" d="M-110.534-401.879a1.1,1.1,0,0,1-1.058-.793,1.1,1.1,0,0,1,.754-1.363c.449-.13.9-.274,1.343-.429a1.1,1.1,0,0,1,1.4.679,1.1,1.1,0,0,1-.679,1.4q-.726.247-1.452.464A1.1,1.1,0,0,1-110.534-401.879Zm7.321-3.359a1.1,1.1,0,0,1-.918-.489,1.1,1.1,0,0,1,.3-1.527c.389-.26.769-.534,1.133-.813a1.1,1.1,0,0,1,1.542.2,1.1,1.1,0,0,1-.2,1.547c-.4.3-.818.609-1.253.9A1.089,1.089,0,0,1-103.213-405.238Zm5.57-5.75a1.1,1.1,0,0,1-.549-.145,1.1,1.1,0,0,1-.4-1.5c.225-.394.429-.8.609-1.2a1.1,1.1,0,0,1,1.447-.569,1.1,1.1,0,0,1,.569,1.452,15.051,15.051,0,0,1-.714,1.417A1.1,1.1,0,0,1-97.643-410.987Z" transform="translate(111.636 414.499)"/></g><g transform="translate(16.548 72.593)"><path class="c" d="M-122.484-401.677a1.082,1.082,0,0,1-.624-.195,1.1,1.1,0,0,1-.284-1.527,12.683,12.683,0,0,1,.988-1.268,1.1,1.1,0,0,1,1.557-.09,1.1,1.1,0,0,1,.09,1.552,10.939,10.939,0,0,0-.818,1.048A1.1,1.1,0,0,1-122.484-401.677Zm6.273-4.921a1.1,1.1,0,0,1-1-.639,1.1,1.1,0,0,1,.534-1.462c.459-.215.923-.414,1.392-.609a1.1,1.1,0,0,1,1.437.6,1.1,1.1,0,0,1-.6,1.438c-.439.18-.873.369-1.3.564A1.086,1.086,0,0,1-116.211-406.6Z" transform="translate(123.586 409.389)"/></g></g></svg>