<svg width="100" height="100" viewBox="0 0 24 24" fill="none" xmlns="http://www.w3.org/2000/svg">
    <g clip-path="url(#clip0_65_1959)">
        <path d="M20.1954 14.9426C20.1769 14.3903 20.1119 13.7525 19.4119 13.7171C18.9458 13.6937 18.4155 13.8607 17.9541 13.9361C17.5192 14.0076 16.9816 14.0136 16.5732 14.1772C16.5573 14.1839 16.542 14.1906 16.5268 14.1973C16.5076 14.1565 16.4877 14.1164 16.4665 14.077C16.2285 13.6449 15.5728 13.7545 15.4416 14.2119C15.244 14.8992 15.4442 15.7467 15.5112 16.4466C15.5476 16.8286 15.8049 17.1578 16.2165 17.1572C17.3143 17.1552 18.4115 17.1465 19.5086 17.1278C19.8965 17.1211 20.2591 16.7932 20.2452 16.3858L20.1961 14.9426H20.1954ZM18.2862 15.4027C18.4287 15.376 18.5885 15.3333 18.7516 15.2939C18.7549 15.4167 18.7569 15.5396 18.7582 15.6625C18.495 15.6685 18.2312 15.6745 17.968 15.6819C17.9501 15.6104 17.9302 15.541 17.9063 15.4742L18.2862 15.4034V15.4027Z" fill="#E0DFE6"/>
        <rect x="15.5077" y="13.5547" width="4.8" height="3.69231" fill="#28D6D6"/>
        <path d="M16.5659 8.42051C16.2192 8.03916 15.6769 8.0759 15.2056 8.04651C14.7084 8.01579 11.7703 7.84682 10.7977 7.80742C9.8259 7.76868 8.85338 7.74197 7.8802 7.73663C6.92028 7.73062 5.93782 7.70457 4.98055 7.79473C4.62986 7.76134 4.2573 8.02313 4.16449 8.36307C4.07168 8.70367 4.23211 9.04428 4.50855 9.21592C4.29177 9.48907 4.25796 9.90981 4.63914 10.0968C5.11446 10.3292 5.63818 10.3192 6.15791 10.3346C6.65511 10.3493 7.15164 10.3599 7.64884 10.3666C8.66577 10.38 9.68204 10.3666 10.6983 10.3339C11.692 10.3025 12.6851 10.2544 13.6768 10.1903C14.5857 10.1315 15.6318 10.1643 16.4114 9.6193C16.8218 9.33212 16.9133 8.80385 16.5646 8.42051H16.5659Z" fill="#E0DFE6"/>
        <rect x="4.80005" y="7.64648" width="11.4462" height="2.21538" fill="#28D6D6"/>
        <path d="M23.9072 8.37434C23.6731 7.77595 22.9088 7.75992 22.6794 8.37434C22.6337 8.49789 22.5879 8.68089 22.5588 8.79843C22.1862 8.68022 21.6989 8.77973 21.449 9.08894C21.4072 9.14037 21.3761 9.19513 21.3529 9.25123C21.2866 8.66552 21.2084 8.08116 21.1235 7.49946C20.9333 6.19448 20.6992 4.90018 20.2332 3.66466C20.6681 3.3875 20.9213 2.90531 20.8431 2.36569C20.7616 1.79802 19.8083 1.66845 19.5829 2.20006C19.4934 2.4111 19.5265 2.47789 19.3343 2.52264C19.0439 2.59076 18.7323 2.54267 18.4347 2.60545C18.08 2.67958 17.9408 3.20117 18.2152 3.44227C18.4062 3.6099 18.6309 3.73879 18.8702 3.8176C18.6342 4.4013 18.7589 5.07382 18.796 5.68825C18.8358 6.33473 18.9929 8.92198 19.0187 9.56979C19.0452 10.2437 18.9803 10.9703 19.1129 11.6308C19.2275 12.2018 20.0675 12.2786 20.3452 11.8345C20.4586 11.9954 20.6383 12.0876 20.8239 12.1103C20.7304 12.1958 20.6701 12.3187 20.6754 12.4783C20.7198 13.8487 20.7947 15.2178 20.7669 16.5896C20.7536 17.2547 20.7138 17.9199 20.6489 18.5824C20.6164 18.9157 20.5779 19.249 20.5289 19.5802C20.4758 19.9415 20.3724 20.3262 20.393 20.6915C20.3996 20.8104 20.4321 20.9239 20.4864 21.0241C20.271 21.0341 20.0522 21.0181 19.8381 21.0154C19.1878 21.0074 18.5368 21.0161 17.8871 21.0415C17.2354 21.0668 16.5878 21.1263 15.9401 21.2011C15.2772 21.2779 14.4843 21.2952 13.9592 21.7547C13.7113 21.9718 13.773 22.4486 14.0666 22.5956C14.707 22.9148 15.5204 22.7345 16.2086 22.6957C16.902 22.657 17.5974 22.6289 18.2915 22.6096C18.9564 22.5909 19.6193 22.6049 20.2842 22.6049C20.9041 22.9662 21.917 22.7472 22.4215 22.285C23.0772 21.6846 22.9877 20.7904 22.981 19.9789C22.9738 19.108 22.9618 18.2372 22.9486 17.3656C22.9333 16.3892 22.934 15.4108 22.8783 14.4358C22.8306 13.5963 22.6794 12.7721 21.9966 12.2172C21.8574 12.1043 21.695 12.0736 21.5498 12.1016C21.4835 12.0408 21.4019 12.0034 21.3158 11.9847C21.4497 11.8806 21.5378 11.7143 21.5292 11.4839C21.5087 10.9342 21.4682 10.3852 21.4152 9.83694C21.5372 10.0186 21.752 10.1268 21.9986 10.0533C22.0052 10.0553 22.0105 10.0573 22.0171 10.06C21.9754 10.0573 21.9973 10.0714 22.0821 10.1027C22.22 10.1675 22.3486 10.229 22.4978 10.2597C22.8047 10.3225 23.1216 10.255 23.3815 10.0807C23.9178 9.72073 24.1438 8.97875 23.9078 8.37568L23.9072 8.37434Z" fill="#E0DFE6"/>
        <path d="M12.7971 18.4395C12.764 18.1837 12.6321 17.9714 12.4471 17.8572C12.4133 17.8218 12.3762 17.789 12.3324 17.7617C11.9512 17.5192 11.3944 17.5373 10.9522 17.4992C10.5107 17.4611 10.0725 17.4337 9.629 17.4224C9.48779 17.4191 9.37576 17.4665 9.29355 17.5433C9.01778 17.5172 8.74465 17.5146 8.48876 17.568C8.37606 17.5914 8.28988 17.6408 8.2269 17.7062C8.20105 17.5874 8.15133 17.4772 8.0625 17.3883C7.91997 17.2447 7.72374 17.19 7.53945 17.224C7.46056 17.1499 7.36046 17.0951 7.23914 17.0718C6.73531 16.9743 6.20232 17.0037 5.69054 16.9956C5.21655 16.9883 2.0272 16.8734 1.95229 16.8734C1.97018 16.8474 1.98609 16.8187 2.00068 16.7873C2.2506 16.2563 2.07228 15.6125 2.02123 15.0428C1.9735 14.5039 1.93173 13.9643 1.88732 13.4246C1.7965 12.3227 1.72888 11.2187 1.68314 10.1141C1.63872 9.03219 1.60823 7.95027 1.59497 6.86702C1.58171 5.79779 1.68048 4.57296 1.30129 3.55983C1.23765 3.38886 0.975792 3.31005 0.879667 3.50439C0.401696 4.4661 0.407662 5.67558 0.36192 6.73212C0.314852 7.83474 0.30756 8.94337 0.324796 10.0467C0.342695 11.1506 0.382471 12.2546 0.445449 13.3572C0.476607 13.8975 0.519697 14.4364 0.568754 14.9754C0.593282 15.2452 0.619136 15.5143 0.646316 15.7835C0.680126 16.1201 0.664878 16.5101 0.876353 16.7873C0.951926 16.8861 1.05667 16.9683 1.17334 17.0244C1.15677 17.0457 1.14152 17.0684 1.12893 17.0938C0.483899 18.3707 2.99176 18.3714 3.66132 18.4242C4.24668 18.4703 4.83337 18.5003 5.4194 18.5243C5.61099 18.5324 5.80721 18.543 6.0041 18.5511C5.95637 18.7608 5.94842 18.9845 5.93118 19.2109C5.89936 19.6303 5.86224 20.0551 5.92323 20.4718C5.98952 20.9259 6.51124 21.0275 6.85663 20.8405C6.93154 20.8986 7.02568 20.9373 7.12976 20.9473C7.82649 21.0174 7.95842 19.993 8.05454 19.5034C8.06117 19.4694 8.06647 19.4353 8.0731 19.4012C8.71813 19.5074 9.35985 19.629 9.99758 19.7706C10.6711 19.9202 11.35 20.1085 12.0334 20.1953C12.3689 20.2381 12.6758 19.8981 12.7116 19.5922C12.7355 19.3899 12.6785 19.2049 12.5625 19.0633C12.7282 18.9117 12.8283 18.7007 12.7951 18.4409L12.7971 18.4395Z" fill="#E0DFE6"/>
        <path d="M17.2143 4.18684C16.9173 4.47602 16.6753 4.68172 16.265 4.7859C15.7234 4.92281 15.1473 4.90545 14.5924 4.92281C13.9474 4.94285 13.3037 4.97223 12.6593 5.00562C11.9792 5.04102 11.3189 5.11048 10.701 5.41769C10.5008 5.5172 10.4909 5.86782 10.701 5.96399C11.7465 6.4415 13.002 6.34333 14.1264 6.34199C15.2401 6.34133 16.4533 6.44351 17.4589 5.86515C17.8885 5.61804 18.4069 5.18327 18.4354 4.64632C18.4752 3.89699 17.6876 3.72536 17.215 4.18617L17.2143 4.18684Z" fill="#E0DFE6"/>
        <path d="M6.18508 13.9524C6.08896 13.8108 5.92919 13.6826 5.74622 13.6986C5.51089 13.7193 5.36173 13.7808 5.17213 13.9337C5.14893 13.9551 5.1244 13.9744 5.09921 13.9931C5.15423 13.9517 5.15025 13.9551 5.08727 14.0025C5.06805 14.0145 4.98319 14.0553 4.98121 14.0613C4.9474 14.07 4.90828 14.08 4.90895 14.0813C4.82409 14.0947 4.74918 14.1013 4.66565 14.1294C4.41506 14.2129 4.1731 14.4119 4.13597 14.6904C4.09023 15.035 4.27452 15.4464 4.68952 15.4217C5.06739 15.3996 5.40482 15.409 5.74556 15.1986C6.14597 14.9508 6.49533 14.4092 6.18508 13.9511V13.9524Z" fill="#E0DFE6"/>
        <path d="M6.28258 11.5713C5.88615 11.5947 5.617 11.7857 5.30211 11.7917C4.98854 11.7977 4.72669 12.0282 4.68492 12.3407C4.6478 12.6199 4.82546 12.9899 5.13505 13.0353C5.7224 13.1214 6.47682 13.064 6.79502 12.4723C6.99788 12.0956 6.74994 11.5433 6.28192 11.5713H6.28258Z" fill="#E0DFE6"/>
        <path d="M19.7837 12.1435C19.7837 12.1435 19.7784 12.1435 19.7758 12.1435C19.6657 12.1395 19.5802 12.046 19.5849 11.9358C19.6909 9.12685 19.6909 6.55028 19.3455 3.10751C19.3343 2.99732 19.4138 2.89914 19.5232 2.88779C19.6326 2.87644 19.73 2.95658 19.7413 3.06677C20.0894 6.53225 20.0894 9.12485 19.9826 11.9505C19.9786 12.0587 19.8905 12.1435 19.7837 12.1435Z" fill="#525D7D"/>
        <path d="M2.85187 17.6628C2.19425 17.6628 1.66523 17.1673 1.62015 16.5074C1.39476 13.1635 1.47497 10.6884 1.56844 7.82269C1.62082 6.20716 1.67584 4.5362 1.68048 2.53866C1.68181 1.96965 2.13459 1.50216 2.68946 1.49615L2.79155 1.49481C9.05887 1.42535 12.2051 1.39063 18.5474 1.56026C18.6574 1.56293 18.7436 1.65509 18.7409 1.76596C18.7383 1.87682 18.6475 1.96164 18.5368 1.96097C12.2018 1.79134 9.05821 1.82606 2.79553 1.89552L2.69343 1.89686C2.35468 1.90086 2.0789 2.18937 2.07757 2.54C2.07227 4.54355 2.01791 6.21785 1.96488 7.83672C1.87207 10.6918 1.79119 13.1575 2.01592 16.4814C2.04575 16.9275 2.40506 17.2634 2.85187 17.2634H13.9573C14.0673 17.2634 14.1561 17.3529 14.1561 17.4638C14.1561 17.5746 14.0673 17.6641 13.9573 17.6641H2.85187V17.6628Z" fill="#525D7D"/>
        <path d="M1.38423 17.6813C0.73787 17.6813 0.19692 17.1644 0.152504 16.5026C-0.0868129 12.955 0.00400828 10.3149 0.100133 7.51932C0.153167 5.97592 0.20819 4.37976 0.212831 2.53315C0.214157 1.96414 0.666937 1.49665 1.22181 1.49064L2.87184 1.47461C2.98056 1.47461 3.06939 1.56277 3.07072 1.67296C3.07204 1.78382 2.98387 1.87398 2.87383 1.87532L1.22579 1.89135C0.887692 1.89536 0.611251 2.1832 0.610588 2.53449C0.605947 4.3871 0.550924 5.98661 0.49789 7.53335C0.401765 10.3183 0.311607 12.9483 0.549598 16.4759C0.580093 16.928 0.946693 17.2806 1.38555 17.2806H2.71141C2.82145 17.2806 2.91029 17.3701 2.91029 17.481C2.91029 17.5918 2.82145 17.6813 2.71141 17.6813H1.38489H1.38423Z" fill="#525D7D"/>
        <path d="M6.70681 21.3262C6.68493 21.3262 6.66306 21.3229 6.64118 21.3149C6.53776 21.2781 6.48274 21.1639 6.5192 21.0597C6.72405 20.47 6.7731 19.8389 6.77907 17.6838V17.464C6.77907 17.3532 6.86856 17.2637 6.97861 17.2637C7.08866 17.2637 7.17749 17.3538 7.17683 17.464V17.6838C7.17086 19.9197 7.12048 20.5428 6.89508 21.1913C6.86658 21.2741 6.78968 21.3255 6.70747 21.3255L6.70681 21.3262Z" fill="#525D7D"/>
        <path d="M13.114 21.3382C13.0358 21.3382 12.9609 21.2908 12.9297 21.2133C12.5585 20.2923 12.3947 18.9727 12.3974 18.0737C12.3974 17.86 12.4027 17.6503 12.4073 17.4359C12.41 17.3251 12.5015 17.2389 12.6108 17.2402C12.7209 17.2429 12.8077 17.3344 12.8051 17.4453C12.8004 17.6577 12.7958 17.8654 12.7951 18.0751C12.7931 18.9072 12.9496 20.1968 13.2983 21.0624C13.3394 21.1652 13.2903 21.2814 13.1889 21.3235C13.1644 21.3335 13.1392 21.3382 13.114 21.3382Z" fill="#525D7D"/>
        <path d="M7.99825 21.3026C7.99825 21.3026 7.99229 21.3026 7.98964 21.3026C7.87959 21.2979 7.79474 21.2044 7.79938 21.0942C7.81462 20.7376 7.85307 20.3769 7.89086 20.0283C7.9187 19.7672 7.94588 19.5201 7.96179 19.281C7.98433 18.9504 7.99428 18.6065 8.00422 18.2739C8.01218 18.0034 8.02013 17.7242 8.03472 17.4491C8.04068 17.3389 8.13349 17.2541 8.2442 17.2601C8.35358 17.2661 8.43778 17.3602 8.43181 17.4711C8.41723 17.7409 8.40927 18.0174 8.40132 18.2852C8.39137 18.6218 8.38143 18.9691 8.35822 19.3084C8.34099 19.5555 8.31447 19.8059 8.28597 20.071C8.24884 20.413 8.21105 20.7669 8.19647 21.1102C8.19183 21.2177 8.10366 21.3019 7.99759 21.3019L7.99825 21.3026Z" fill="#525D7D"/>
        <path d="M13.8771 21.4593H3.78067C3.67062 21.4593 3.58179 21.3698 3.58179 21.2589C3.58179 21.1481 3.67062 21.0586 3.78067 21.0586H13.8771C13.9871 21.0586 14.0759 21.1481 14.0759 21.2589C14.0759 21.3698 13.9871 21.4593 13.8771 21.4593Z" fill="#525D7D"/>
        <path d="M20.6058 22.7467C20.6005 22.7467 14.8655 22.6699 14.8655 22.6699C14.5406 22.6659 14.2377 22.5337 14.0123 22.2986C13.7869 22.0635 13.6662 21.7536 13.6735 21.4264L13.8572 12.8973C13.8711 12.2401 14.4008 11.7285 15.0644 11.7285H20.7125C21.0307 11.7312 21.3304 11.8608 21.5571 12.0938C21.7871 12.3302 21.917 12.6542 21.9131 12.9827L21.8136 21.5446C21.8097 21.8698 21.6804 22.1744 21.449 22.4021C21.2216 22.6258 20.9227 22.7481 20.6058 22.7481V22.7467ZM15.065 12.1286C14.6195 12.1259 14.2642 12.4685 14.2549 12.9053L14.0713 21.4344C14.0666 21.6541 14.1475 21.8618 14.2987 22.0194C14.4498 22.177 14.6533 22.2659 14.8714 22.2685L20.5952 22.3453C20.8113 22.3467 21.0168 22.2659 21.1719 22.1136C21.327 21.9613 21.4139 21.757 21.4165 21.5386L21.516 12.9767C21.5186 12.7543 21.4305 12.5339 21.2733 12.373C21.1215 12.2167 20.922 12.1299 20.7112 12.1279C20.7112 12.1279 15.0677 12.1279 15.065 12.1279V12.1286Z" fill="#525D7D"/>
        <path d="M20.2691 17.3582C20.2691 17.3582 20.2671 17.3582 20.2658 17.3582L15.4138 17.2748C15.3077 17.2728 15.2215 17.1879 15.2182 17.0811C15.1811 15.9043 15.1672 14.7803 15.1758 13.6443C15.1765 13.5341 15.2653 13.4453 15.3747 13.4453H20.3831C20.4375 13.4453 20.4892 13.4674 20.527 13.5074C20.5648 13.5468 20.5846 13.6003 20.582 13.655C20.5681 13.9689 20.4792 15.5684 20.466 16.0433C20.4547 16.4526 20.4554 16.8146 20.468 17.1505C20.47 17.2053 20.4494 17.2587 20.4116 17.2981C20.3745 17.3369 20.3228 17.3582 20.2697 17.3582H20.2691ZM15.61 16.8774L20.0642 16.9535C20.0576 16.669 20.0589 16.3652 20.0682 16.0312C20.0815 15.551 20.1087 15.0575 20.1358 14.5807C20.1491 14.3389 20.163 14.0905 20.1749 13.846H15.5722C15.5669 14.8478 15.5795 15.8429 15.61 16.8774Z" fill="#525D7D"/>
        <path d="M18.7065 18.6931C18.6395 18.6931 18.5699 18.6918 18.497 18.6898C18.3465 18.6858 18.1947 18.6778 18.0482 18.6704C17.907 18.6631 17.7612 18.6557 17.6206 18.6517C17.4781 18.6477 17.3303 18.6471 17.1871 18.6471C17.0392 18.6471 16.8861 18.6464 16.7343 18.6417C16.4393 18.6337 16.2033 18.6117 15.9905 18.5736C15.8824 18.5542 15.8102 18.45 15.8294 18.3412C15.8486 18.2323 15.952 18.1595 16.0601 18.1789C16.253 18.2136 16.4704 18.233 16.7449 18.241C16.8914 18.245 17.0426 18.2457 17.1877 18.2457C17.3329 18.2457 17.4834 18.2464 17.6299 18.2504C17.7764 18.2544 17.9249 18.2624 18.0681 18.2697C18.2126 18.2771 18.3618 18.2851 18.5076 18.2891C18.7993 18.2971 19.03 18.2891 19.2349 18.2617C19.3436 18.2477 19.4437 18.3252 19.4576 18.4347C19.4715 18.5442 19.3946 18.6451 19.2859 18.6591C19.1129 18.6818 18.9253 18.6925 18.7065 18.6925V18.6931Z" fill="#525D7D"/>
        <path d="M18.1192 19.9393C17.8792 19.9393 17.6492 19.934 17.443 19.9286C17.3197 19.9253 16.8305 19.9099 16.7091 19.9066C16.5991 19.9033 16.5129 19.8111 16.5156 19.7009C16.5189 19.59 16.6077 19.5039 16.7197 19.5059C16.8411 19.5092 17.3303 19.5246 17.4536 19.5279C17.7711 19.5366 18.1464 19.544 18.5222 19.5333C18.6336 19.5299 18.7238 19.6168 18.7271 19.7276C18.7304 19.8385 18.6442 19.9306 18.5342 19.934C18.3943 19.938 18.2551 19.94 18.1192 19.94V19.9393Z" fill="#525D7D"/>
        <path d="M21.6234 20.9769H13.887C13.7769 20.9769 13.6881 20.8874 13.6881 20.7765C13.6881 20.6657 13.7769 20.5762 13.887 20.5762H21.6234C21.7334 20.5762 21.8222 20.6657 21.8222 20.7765C21.8222 20.8874 21.7334 20.9769 21.6234 20.9769Z" fill="#525D7D"/>
        <path d="M4.28781 5.76783C3.66068 5.76783 3.13365 5.27429 3.08791 4.64384L3.08327 4.57772C3.0594 4.2438 3.17011 3.92723 3.39484 3.6848C3.62223 3.4397 3.94839 3.29946 4.28714 3.30079H17.0704C17.7307 3.30279 18.2683 3.85377 18.2696 4.52897V4.54967C18.271 4.87491 18.1457 5.18079 17.9176 5.4112C17.6902 5.64094 17.3886 5.76716 17.0677 5.76783H4.28781ZM4.28317 3.7015C4.05446 3.69816 3.83702 3.795 3.68521 3.95862C3.53671 4.11891 3.46379 4.32861 3.4797 4.54967L3.48434 4.61579C3.51483 5.0372 3.86817 5.36779 4.28781 5.36779H17.0677C17.2819 5.36779 17.4841 5.28297 17.6359 5.12937C17.789 4.97442 17.8725 4.76939 17.8719 4.55101V4.5303C17.8705 4.08284 17.5033 3.7035 17.0697 3.70217H4.28648C4.28648 3.70217 4.28449 3.70217 4.28317 3.70217V3.7015Z" fill="#525D7D"/>
        <path d="M16.4114 10.1018L4.65636 9.98421C4.54698 9.98288 4.45947 9.89339 4.45947 9.78386C4.46014 9.16476 4.46279 8.44348 4.47936 7.72888C4.48201 7.62002 4.57018 7.5332 4.67824 7.5332H16.247C16.3445 7.5332 16.4273 7.60399 16.4432 7.70083C16.4797 7.92456 16.4823 8.13427 16.4857 8.37737C16.4903 8.73066 16.4956 9.1701 16.6076 9.87001C16.6169 9.92812 16.6003 9.98755 16.5619 10.0323C16.5241 10.0764 16.4691 10.1018 16.4114 10.1018ZM4.85789 9.58551L16.18 9.69837C16.0972 9.10332 16.0925 8.70728 16.0886 8.38137C16.0866 8.21374 16.0846 8.07082 16.0727 7.93325H4.87314C4.86187 8.50426 4.85856 9.07327 4.85789 9.58484V9.58551Z" fill="#525D7D"/>
        <path d="M5.24909 12.4676C5.24114 12.4676 5.23385 12.4676 5.22589 12.4676C4.86261 12.4575 4.48275 12.2131 4.49402 11.7803C4.50529 11.3649 4.79366 11.0945 5.21131 11.1058C5.61569 11.1172 5.91335 11.3997 5.90341 11.763C5.89611 12.0335 5.72243 12.3019 5.47118 12.4315C5.45593 12.4395 5.43936 12.4455 5.42278 12.4489C5.36643 12.4615 5.3081 12.4676 5.24909 12.4676ZM5.18479 11.5059C4.99586 11.5059 4.89708 11.602 4.89244 11.791C4.88714 11.9847 5.10126 12.0628 5.23716 12.0668C5.26302 12.0675 5.28821 12.0662 5.31274 12.0622C5.42477 11.9941 5.503 11.8698 5.50631 11.7516C5.51095 11.578 5.32599 11.5099 5.2007 11.5059C5.1954 11.5059 5.19009 11.5059 5.18479 11.5059Z" fill="#525D7D"/>
        <path d="M5.23708 14.6723C5.22978 14.6723 5.22249 14.6723 5.2152 14.6723C4.85921 14.6623 4.48134 14.4165 4.49128 14.0372C4.50189 13.6519 4.91423 13.3333 5.24437 13.342C5.38623 13.346 5.48103 13.4134 5.55661 13.4675L5.58445 13.4869C5.62091 13.5123 5.64809 13.5497 5.66135 13.5924C5.71438 13.7654 5.73825 13.9157 5.73427 14.0506C5.72831 14.2796 5.64345 14.4673 5.48302 14.6096C5.45849 14.6316 5.42866 14.6469 5.39684 14.6543C5.34646 14.6663 5.2921 14.6723 5.23575 14.6723H5.23708ZM5.22978 13.7427C5.09985 13.7427 4.89302 13.907 4.88904 14.0479C4.88572 14.1701 5.06405 14.2669 5.22581 14.2716C5.23708 14.2716 5.24768 14.2716 5.25829 14.2716C5.30933 14.2108 5.33453 14.136 5.33718 14.0405C5.33917 13.9651 5.32723 13.8776 5.30005 13.7761C5.26426 13.7514 5.24901 13.7433 5.23376 13.7433C5.23243 13.7433 5.23111 13.7433 5.22978 13.7433V13.7427Z" fill="#525D7D"/>
        <path d="M9.62569 11.9883C9.58791 11.9883 9.55078 11.9876 9.51432 11.987C9.46394 11.9856 9.27368 11.9776 9.22993 11.9763C9.1643 11.9743 9.10927 11.9756 9.04099 11.9763C8.92498 11.9783 8.76521 11.9803 8.45761 11.9723C8.34624 11.9689 7.90208 11.9536 7.79137 11.9509C7.42013 11.9409 7.02171 11.9376 6.62462 11.9856C6.5159 11.9983 6.41646 11.9202 6.4032 11.8107C6.38994 11.7005 6.46817 11.601 6.57689 11.5876C6.99983 11.5368 7.41549 11.5395 7.80198 11.5502C7.91401 11.5535 8.35817 11.5689 8.46822 11.5716C8.7672 11.5803 8.92166 11.5776 9.03436 11.5756C9.10596 11.5742 9.16695 11.5736 9.24053 11.5756C9.28627 11.5769 9.47653 11.5849 9.52493 11.5863C9.68536 11.5909 9.86766 11.5883 10.0062 11.5388C10.1096 11.5021 10.2237 11.5562 10.2601 11.6604C10.2972 11.7646 10.2429 11.8795 10.1395 11.9162C9.97638 11.975 9.79408 11.9883 9.62569 11.9883Z" fill="#525D7D"/>
        <path d="M7.24385 14.1955C7.08872 14.1955 6.9336 14.1941 6.77914 14.1908C6.66909 14.1881 6.58225 14.0966 6.5849 13.9857C6.58755 13.8749 6.67638 13.7867 6.78842 13.7901C7.14905 13.7981 7.51698 13.7941 7.87297 13.7901C8.23294 13.7861 8.6055 13.7814 8.97277 13.7901C9.08281 13.7927 9.16966 13.8842 9.167 13.9951C9.16435 14.106 9.07287 14.1928 8.96349 14.1908C8.60285 14.1821 8.2336 14.1868 7.87695 14.1908C7.66879 14.1934 7.45665 14.1955 7.24319 14.1955H7.24385Z" fill="#525D7D"/>
        <path d="M19.3907 3.30074C18.8252 3.30074 18.2399 2.89269 18.2399 2.21015C18.2399 1.64514 18.6403 1.04809 19.4053 1.002C19.4252 1.00067 19.4457 1 19.4656 1C20.0589 1 20.5595 1.51224 20.5595 2.11865C20.5595 2.72506 20.0132 3.30008 19.39 3.30008L19.3907 3.30074ZM19.4663 1.40138C19.4544 1.40138 19.4418 1.40138 19.4298 1.40271C18.9101 1.43477 18.6383 1.83281 18.6383 2.21081C18.6383 2.64224 19.0208 2.9007 19.3914 2.9007C19.7951 2.9007 20.163 2.52871 20.163 2.11999C20.163 1.73731 19.8375 1.40205 19.4669 1.40205L19.4663 1.40138Z" fill="#525D7D"/>
        <path d="M22.5642 9.87757C21.9211 9.87757 21.4551 9.4615 21.4551 8.88782C21.4551 8.40429 21.7885 7.93746 22.2314 7.80189C22.3268 7.7725 22.4263 7.75781 22.5264 7.75781C23.1184 7.75781 23.6779 8.2774 23.6779 8.82704C23.6779 9.33394 23.2304 9.87757 22.5642 9.87757ZM22.5264 8.15852C22.4647 8.15852 22.4044 8.1672 22.3467 8.18524C22.0696 8.27005 21.8528 8.5786 21.8528 8.88782C21.8528 9.29454 22.2102 9.47686 22.5642 9.47686C22.9864 9.47686 23.2801 9.13425 23.2801 8.82704C23.2801 8.49579 22.8996 8.15852 22.5264 8.15852Z" fill="#525D7D"/>
        <path d="M20.3161 2.0434C20.2107 2.0434 20.1232 1.96058 20.1179 1.85306C20.1126 1.74286 20.1968 1.6487 20.3062 1.64269C20.4673 1.63467 20.5926 1.63 20.7212 1.63467C20.8312 1.63868 20.9167 1.73218 20.9121 1.84237C20.9081 1.95324 20.8166 2.03872 20.7059 2.03472C20.5886 2.03004 20.4746 2.03472 20.3261 2.04206C20.3228 2.04206 20.3194 2.04206 20.3155 2.04206L20.3161 2.0434Z" fill="#525D7D"/>
        <path d="M23.4663 7.1341C23.4437 7.1341 23.4205 7.13009 23.398 7.12208C23.2946 7.08401 23.2416 6.96914 23.2793 6.86496C23.3748 6.60116 23.4484 6.33869 23.4981 6.08357C23.5193 5.97471 23.6234 5.90459 23.7315 5.92529C23.8395 5.94666 23.9091 6.05218 23.8886 6.16038C23.8349 6.43553 23.756 6.7187 23.6532 7.00187C23.6241 7.08335 23.5478 7.13343 23.4663 7.13343V7.1341ZM23.7765 5.48451C23.6672 5.48451 23.5777 5.39502 23.5777 5.28482C23.5777 5.01902 23.5438 4.75455 23.4789 4.49943C23.4517 4.39258 23.516 4.28305 23.6221 4.25567C23.7281 4.22828 23.8369 4.29307 23.864 4.39992C23.937 4.68777 23.9747 4.98496 23.9754 5.28416C23.9754 5.39502 23.8866 5.48451 23.7765 5.48518V5.48451ZM23.3662 3.86631C23.2952 3.86631 23.227 3.82824 23.1912 3.76146C23.0672 3.52971 22.9141 3.31066 22.7377 3.1103C22.6648 3.02749 22.6721 2.90127 22.7543 2.82713C22.8365 2.75367 22.9618 2.76102 23.0354 2.84383C23.2323 3.06756 23.4026 3.31199 23.5419 3.57112C23.5942 3.66863 23.5578 3.79017 23.4616 3.84294C23.4318 3.85896 23.3993 3.86698 23.3675 3.86698L23.3662 3.86631ZM22.2637 2.61409C22.224 2.61409 22.1835 2.60207 22.1484 2.57736C21.9276 2.41908 21.6949 2.29219 21.4576 2.20002C21.3549 2.15995 21.3038 2.04441 21.3436 1.9409C21.3834 1.83805 21.498 1.78596 21.6008 1.82603C21.8693 1.93021 22.1311 2.07313 22.3791 2.25078C22.4686 2.31489 22.4898 2.43978 22.4261 2.52994C22.3877 2.5847 22.326 2.61409 22.2637 2.61409Z" fill="#525D7D"/>
        <path d="M22.9347 8.25748C22.9002 8.25748 22.8658 8.2488 22.834 8.2301C22.7392 8.174 22.708 8.05112 22.7637 7.95561C22.8293 7.84341 22.8923 7.72854 22.9506 7.61434C23.001 7.51617 23.121 7.47743 23.2185 7.52819C23.3159 7.57895 23.3544 7.69983 23.304 7.798C23.2417 7.91888 23.1754 8.03976 23.1064 8.15797C23.0693 8.22142 23.003 8.25681 22.9347 8.25681V8.25748Z" fill="#525D7D"/>
        <path d="M11.7776 12.0413C11.7557 12.0413 11.7331 12.0373 11.7106 12.0293C11.5449 11.9698 11.3374 11.9652 11.1564 11.9652H10.9933C10.8833 11.9652 10.7944 11.8757 10.7944 11.7648C10.7944 11.6539 10.8833 11.5645 10.9933 11.5645H11.1564C11.3712 11.5645 11.6191 11.5711 11.8445 11.6519C11.9479 11.6893 12.0016 11.8035 11.9652 11.9077C11.936 11.9899 11.8598 12.0406 11.7776 12.0406V12.0413Z" fill="#525D7D"/>
        <path d="M12.1979 14.3409C12.176 14.3409 12.1541 14.3375 12.1322 14.3295C12.0507 14.3008 11.9453 14.2874 11.8014 14.2874C11.7312 14.2874 11.6576 14.2908 11.5866 14.2934C11.5144 14.2968 11.4448 14.2995 11.3785 14.2995H9.86965C9.75961 14.2995 9.67078 14.21 9.67078 14.0991C9.67078 13.9882 9.75961 13.8987 9.86965 13.8987C9.86965 13.8987 11.7219 13.8867 11.8008 13.8867C11.9208 13.8867 12.0984 13.8934 12.2628 13.9515C12.3662 13.9882 12.4213 14.1024 12.3848 14.2066C12.3563 14.2894 12.2794 14.3409 12.1972 14.3409H12.1979Z" fill="#525D7D"/>
    </g>
    <defs>
        <clipPath id="clip0_65_1959">
            <rect width="100" height="96.7846" fill="white" transform="translate(0 1)"/>
        </clipPath>
    </defs>
</svg>
