<svg xmlns="http://www.w3.org/2000/svg" width="94.314" height="101" viewBox="0 0 94.314 101"><defs><style>.a{fill:#e0dfe6;}.a,.b,.c,.d{stroke:rgba(0,0,0,0);stroke-miterlimit:10;}.b{fill:#28d6d6;}.c{fill:#fff;}.d{fill:#525d7d;}</style></defs><g transform="translate(0.5 0.5)"><path class="a" d="M-153.5-352.414c-3.271-1.742-6.992-2.171-10.621-2.558a112.44,112.44,0,0,0-11.329-.871,5.99,5.99,0,0,1,.283-.621c.392-.1.788-.208,1.175-.317a19.985,19.985,0,0,0,3.913-1.567,2.337,2.337,0,0,1-.088-.6,2.666,2.666,0,0,1,2.8-2.5,3.064,3.064,0,0,1,1.321.3,19.809,19.809,0,0,0,3.492-4.167c4-6.338,4.85-14.3,4.454-22.034,1.342-3.846,1.217-8.283.592-12.363a35.044,35.044,0,0,0-.842-4.575c-.642-3.458-1.567-8.259-3.988-10.817a13.732,13.732,0,0,0-5.3-6.217,24.694,24.694,0,0,0-11.463-2.95.624.624,0,0,0-.312,1.154c2.725,1.417,5.767,2.2,8.563,3.508a10.361,10.361,0,0,1,4.754,4.542,30.728,30.728,0,0,0-4.9-3.467,62.667,62.667,0,0,0-12.075-4.967,21.021,21.021,0,0,0-6.579-1.383,2.3,2.3,0,0,0-1.992-.271c-.75.213-1.5.425-2.263.629a20.75,20.75,0,0,0-12.95,2.733,2.086,2.086,0,0,0-.946,2.033,8.664,8.664,0,0,0-2.121.271c-4.308,1.154-4.208,5.908-5.1,9.458-1.142,4.563-3.033,8.875-4.45,13.342a1.313,1.313,0,0,0,2.179,1.267,28.61,28.61,0,0,0,5.954-8.579c.7-1.467,1.333-2.971,1.917-4.488.388-1.013.646-2.175,1.012-3.263.75.408,1.658.942,1.858,1.025a24.859,24.859,0,0,0,3.554,1.183,27.665,27.665,0,0,0,8.659.758c2.421-.187,4.775-1.046,6.046-3.263a7.135,7.135,0,0,0,.842-3.063c.733.258,1.55.5,1.8.6,1.2.529,2.388,1.071,3.567,1.646a70.2,70.2,0,0,1,6.863,3.758,37.1,37.1,0,0,1,6,4.521c3.529,7.984,2.733,17.492-.967,25.359a40.54,40.54,0,0,1-7.708,11.3,45.7,45.7,0,0,1-5.688,4.967c-1.8,1.3-3.838,2.425-5.317,4.1a1.955,1.955,0,0,0-.275,2.121,6.807,6.807,0,0,0-1.358,6.279.593.593,0,0,0,1.133,0c1.4-3.592,5.038-3.563,8.221-4.454.4-.113.8-.217,1.2-.321-.133.367-.254.738-.354,1.108a2.318,2.318,0,0,0,.442,2.025,3.206,3.206,0,0,0-.262.221c-1.925,1.863-5.621,4.788-5.313,7.746a1.412,1.412,0,0,0,.029.142,5.444,5.444,0,0,0-1.946-2.754c-7.383-5.333-7.863,9.575-8.359,13.225-.3,2.162,2.383,4.012,3.863,2.362.158,2.621,4.371,3.483,4.879.613.371-2.092.358-3.779-1-5.383A4.258,4.258,0,0,0-190-338.055c.138-.683.271-1.363.4-2.046l.171-1c.2.583.4,1.129.454,1.3.7,2.158,1.85,4.075,2.408,6.279.2.788.542,2.233,1.7,2,2.608-.533,1.954-3.938,1.362-5.954.079-.042.163-.083.242-.133,1.775-1.092,3.142-3.287,4.25-5.008a27.527,27.527,0,0,0,1.821-3.267c.7.158,1.475.2,2.267.3,2.9.392,5.838.471,8.717,1.021,2.117.408,4.392,1.021,5.742,2.825,1.542,2.054,2.237,4.758,3.479,7a4.313,4.313,0,0,0,5.725,1.871c.862,3.279,5.654,2.029,5.938-1.079C-144.7-340.788-147.125-349.014-153.5-352.414Zm-43.092-65.6a5.34,5.34,0,0,1-.846.029,19.473,19.473,0,0,1-2.921-.458c1.3-.15,2.588-.325,3.875-.533A9.338,9.338,0,0,0-196.593-418.015Zm20.809,67.943a2.467,2.467,0,0,0-.062-.558c.467.092.938.162,1.4.242C-174.905-350.288-175.355-350.184-175.784-350.072Z" transform="translate(230.273 427.998)"/><path class="b" d="M-206.979-395.237l1.717-3.45-2.567-3.213,2.454-3.158,5.663,1.1s4.471-1.946,3.958-2.808.55-4.408.55-4.408l4.863.25.5,4.563,5.108,2.2,2.408-3.55s5.45,3.475,4.379,5.871a2.569,2.569,0,0,1-3.25,1.588l1.075,6.821,3.963,2.4-1.488,8.338-5.733-1.717L-188.708-382a10.193,10.193,0,0,0-1.583-4.963C-191.966-389.9-195.4-393.733-206.979-395.237Z" transform="translate(267.284 472.609)"/><path class="c" d="M-204.275-407.264s6.363-2.358,8.017-.5,2.254,5.513,2.254,5.513l-2.754,4.058-1.9.3-6.767-3.808-.2-1.65Z" transform="translate(274.251 481.132)"/><path class="a" d="M-203.964-394.913l.062.062c-.787-3.113-2.9-5.15-5.321-7.129a23.719,23.719,0,0,1-7.321-9.267c-.212-.508-1.021-.5-1.021.137a20.716,20.716,0,0,0,1.725,8.788,19.259,19.259,0,0,0,2.371,3.867c1.037,1.321,2.95,2.708,3.175,4.471C-209.618-388.621-202.7-391.054-203.964-394.913Z" transform="translate(236.456 471.223)"/><path class="a" d="M-198.108-418.646c-4.317-2.7-11.279,1.3-13.217,5.367-2.642,5.542.533,11.592,5.092,14.975.646.479,1.375-.312,1.246-.958-.771-3.833-3.613-8.959-.446-12.413,2.171-2.367,5.979-2.254,7.863-4.921A1.521,1.521,0,0,0-198.108-418.646Z" transform="translate(253.175 446.155)"/><path class="a" d="M-198.333-405.243c-.079-.208-.167-.412-.258-.617a2.6,2.6,0,0,0-2.9-1.179c-6.038,1.3-13.471,1.617-18.454,5.7-.167.137-.013.371.162.387,3.392.313,6.908-.521,10.3-.7,3.092-.163,6.321.221,9.354-.442A2.584,2.584,0,0,0-198.333-405.243Z" transform="translate(228.688 485.491)"/><path class="a" d="M-198.93-408.562c-3.2-.667-7.629,1.008-10.554,2.2a40.954,40.954,0,0,0-10.533,6.917c-.429.358.029,1.092.538.925,3.433-1.1,6.817-2.329,10.275-3.342,3.275-.963,6.492-1.138,9.8-1.8a2.535,2.535,0,0,0,1.808-1.812l.121-.525A2.115,2.115,0,0,0-198.93-408.562Z" transform="translate(228.147 480.392)"/><path class="a" d="M-216.073-414.062a.831.831,0,0,0-.083-.267l-.037-.3a1.477,1.477,0,0,0-.354-.617v0c0-.062-.008-.113-.013-.046l0,0c.021-.342.029-.721-.308-.921a1.755,1.755,0,0,0-2.238.729,2.069,2.069,0,0,0-.446,1.842,2.652,2.652,0,0,0,1.108,1.417A1.633,1.633,0,0,0-216.073-414.062Z" transform="translate(229.931 456.017)"/><path class="a" d="M-201.713-391.04c-1.017-2.1-2.963-3.475-4.538-5.142A44.226,44.226,0,0,1-211-402.015c-2.458-3.688-4.213-8.117-6.917-11.579a.49.49,0,0,0-.817.217c-.858,4.717,1.563,10.263,4.067,14.134,2.467,3.817,6.483,9.583,11.292,10.359A1.489,1.489,0,0,0-201.713-391.04Z" transform="translate(232.205 464.471)"/><path class="b" d="M-213.043-401.157l1.929,1.825-3.108,11.279s12.9,4.667,11.7-.233a63.629,63.629,0,0,0-3.492-9.883l3.967-4.4-5.963-4.354Z" transform="translate(247.039 486.046)"/><g transform="translate(8.475)"><path class="d" d="M-216.831-387.532a1.019,1.019,0,0,1-1-.808c-.138-.654-.288-1.342-.442-2.05-.842-3.888-1.8-8.3-1.8-11.363,0-8.221,3.488-17.084,11.138-17.38,6.579-4.6,12.117-6.783,25.2-6.783a28.174,28.174,0,0,1,6.6.65,1.018,1.018,0,0,1,.754,1.225,1.015,1.015,0,0,1-1.221.758,26.237,26.237,0,0,0-6.138-.6c-12.775,0-17.813,2.038-24.275,6.6a1.027,1.027,0,0,1-.579.183c-6.492.046-9.446,7.988-9.446,15.35,0,2.85.933,7.142,1.754,10.933.154.713.3,1.4.442,2.063a1.017,1.017,0,0,1-.788,1.2A.881.881,0,0,1-216.831-387.532Z" transform="translate(220.064 425.916)"/></g><g transform="translate(0 14.855)"><path class="d" d="M-221.06-338.562a1.017,1.017,0,0,1-1.017-.971c-.017-.342-.021-.683-.021-1.033,0-15.367,13.809-17.392,22.95-18.734,3.263-.479,6.95-1.021,7.146-2.033a1.09,1.09,0,0,1-.017-.258c.008-.183.017-.387.017-.617a5.878,5.878,0,0,0-1.9-4.258,8.286,8.286,0,0,0-1.8-1.058c-3.654-1.812-9.734-4.825-13.913-20.717a6.325,6.325,0,0,1-5.45-6.109,5.879,5.879,0,0,1,4.05-5.525c4.108-5.258,9.425-12.921,9.425-19.746a10.635,10.635,0,0,0-.113-1.558,1.018,1.018,0,0,1,.858-1.158,1.013,1.013,0,0,1,1.154.858,12.466,12.466,0,0,1,.138,1.858c0,7.567-5.742,15.755-10.059,21.255a1,1,0,0,1-.533.354,3.848,3.848,0,0,0-2.888,3.662,4.4,4.4,0,0,0,4.325,4.179,1.018,1.018,0,0,1,.892.762c3.954,15.567,9.625,18.38,13.017,20.059a9.577,9.577,0,0,1,2.288,1.4,7.91,7.91,0,0,1,2.542,5.746c0,.2,0,.383-.008.554a1.461,1.461,0,0,1,.021.233c0,2.829-3.733,3.375-8.9,4.133-8.954,1.313-21.213,3.113-21.213,16.721,0,.317.008.633.021.942a1.019,1.019,0,0,1-.971,1.063ZM-210.41-399h0Z" transform="translate(222.098 422.351)"/></g><g transform="translate(42.297 3.408)"><path class="d" d="M-185.838-393.823a1.058,1.058,0,0,1-.4-.083,1.019,1.019,0,0,1-.533-1.338,7.962,7.962,0,0,0,.513-3.017c0-17.154-5.846-24.8-18.95-24.8-.979,0-1.958.017-2.921.037s-1.887.038-2.8.038A1.015,1.015,0,0,1-211.947-424a1.019,1.019,0,0,1,1.017-1.021c.9,0,1.821-.017,2.758-.038.979-.017,1.971-.037,2.963-.037,14.317,0,20.984,8.529,20.984,26.838a10.057,10.057,0,0,1-.675,3.821A1.024,1.024,0,0,1-185.838-393.823Z" transform="translate(211.947 425.098)"/></g><g transform="translate(43.419 12.794)"><path class="d" d="M-210.662-364.813a1.02,1.02,0,0,1-1-.871,1.014,1.014,0,0,1,.858-1.154c14.629-2.142,22.359-12.046,22.359-28.642,0-8.833-2.1-11.517-5-15.234a39.488,39.488,0,0,1-6.358-10.734,1.023,1.023,0,0,1,.567-1.325,1.018,1.018,0,0,1,1.325.571,37.7,37.7,0,0,0,6.071,10.234c3.033,3.887,5.433,6.954,5.433,16.488,0,17.492-8.559,28.38-24.1,30.655A.914.914,0,0,1-210.662-364.813Z" transform="translate(211.678 422.845)"/></g><g transform="translate(47.443 67.37)"><path class="d" d="M-178.474-380.312a1.017,1.017,0,0,1-.983-.758,25.812,25.812,0,0,1-.546-3.038,24.535,24.535,0,0,0-.458-2.658c-2.538-10.15-12.384-10.9-20.3-11.509-5.342-.408-9.954-.763-9.954-4.533a4.2,4.2,0,0,1,.033-.5,17.147,17.147,0,0,1,2.029-5.908,1.025,1.025,0,0,1,1.383-.408,1.025,1.025,0,0,1,.408,1.383,14.962,14.962,0,0,0-1.8,5.2,1.446,1.446,0,0,0-.017.229c0,1.8,3.067,2.121,8.071,2.5,8.113.621,19.221,1.471,22.117,13.042a26.637,26.637,0,0,1,.5,2.879,22.369,22.369,0,0,0,.5,2.8,1.018,1.018,0,0,1-.729,1.242A.9.9,0,0,1-178.474-380.312Z" transform="translate(210.712 409.747)"/></g><g transform="translate(21.508 11.298)"><path class="d" d="M-202.91-414.173a15.687,15.687,0,0,1-13.879-7.492,1.015,1.015,0,0,1,.35-1.4,1.023,1.023,0,0,1,1.4.35,13.694,13.694,0,0,0,12.133,6.5,4.389,4.389,0,0,0,.683-.05,1.015,1.015,0,0,1,1.171.837,1.018,1.018,0,0,1-.838,1.171A6.57,6.57,0,0,1-202.91-414.173Z" transform="translate(216.936 423.204)"/></g><g transform="translate(27.688 9.988)"><path class="d" d="M-201.194-416.061c-6.3,0-11.159-2.013-14.05-5.825a1.012,1.012,0,0,1,.2-1.425,1.013,1.013,0,0,1,1.425.2c3.15,4.15,8.5,5.021,12.429,5.021a30.708,30.708,0,0,0,4.583-.358,1.021,1.021,0,0,1,1.158.854,1.014,1.014,0,0,1-.85,1.158A32.615,32.615,0,0,1-201.194-416.061Z" transform="translate(215.453 423.519)"/></g><g transform="translate(35.928 8.49)"><path class="d" d="M-192.607-413.6a.969.969,0,0,1-.354-.067l-.571-.208a20.17,20.17,0,0,1-6.7-3.458,26.411,26.411,0,0,1-2.667.146c-4.954,0-8.467-1.738-10.442-5.167a1.017,1.017,0,0,1,.375-1.388,1.022,1.022,0,0,1,1.392.375c1.942,3.379,5.667,4.658,11.579,3.958a1.019,1.019,0,0,1,.842.3c1.588,1.6,4,2.475,6.321,3.325l.575.213a1.017,1.017,0,0,1,.6,1.308A1.022,1.022,0,0,1-192.607-413.6Z" transform="translate(213.475 423.878)"/></g><g transform="translate(21.604 27.468)"><path class="d" d="M-215.9-413.529a1.018,1.018,0,0,1-.7-.279,1.015,1.015,0,0,1-.037-1.437c2.229-2.362,5.433-3.733,9.529-4.075a1.02,1.02,0,0,1,1.1.929,1.013,1.013,0,0,1-.929,1.1c-3.575.3-6.342,1.458-8.217,3.442A1.017,1.017,0,0,1-215.9-413.529Z" transform="translate(216.913 419.324)"/></g><g transform="translate(50.456 26.721)"><path class="d" d="M-200.227-415.965a1.03,1.03,0,0,1-.6-.2c-1.992-1.471-4.771-1.688-7.817-.675a1.016,1.016,0,0,1-1.287-.642,1.014,1.014,0,0,1,.642-1.287,13.468,13.468,0,0,1,4.246-.733,8.954,8.954,0,0,1,5.425,1.7,1.019,1.019,0,0,1,.217,1.425A1.021,1.021,0,0,1-200.227-415.965Z" transform="translate(209.989 419.503)"/></g><g transform="translate(48.394 33.542)"><path class="d" d="M-202.86-411.108a3.072,3.072,0,0,1-3.171-3.183,2.451,2.451,0,0,1,.3-1.158,8.525,8.525,0,0,0-3.046,1.813,1.019,1.019,0,0,1-1.437-.05,1.015,1.015,0,0,1,.05-1.438,10.021,10.021,0,0,1,6.625-2.742c2.658,0,4.008,1.146,4.008,3.4A3.271,3.271,0,0,1-202.86-411.108Zm.621-3.813a.806.806,0,0,0-.258.475.6.6,0,0,0,.375.45c.138,0,.258-.225.258-.408A.838.838,0,0,0-202.239-414.92Z" transform="translate(210.484 417.866)"/></g><g transform="translate(22.697 35.251)"><path class="d" d="M-209.556-410.656c-2.138,0-3.413-1.113-3.413-2.975a3.176,3.176,0,0,1,.1-.783,8.569,8.569,0,0,0-1.925,2.042,1.018,1.018,0,0,1-1.417.262,1.017,1.017,0,0,1-.263-1.412c1.692-2.463,4.046-3.933,6.3-3.933a3.792,3.792,0,0,1,3.9,3.625A3.458,3.458,0,0,1-209.556-410.656Zm.454-3.775a1.048,1.048,0,0,1-.2.079,1.994,1.994,0,0,0-.9.579C-209.114-413.777-209.1-414.135-209.1-414.431Z" transform="translate(216.651 417.456)"/></g><g transform="translate(40.28 27.948)"><path class="d" d="M-209.635-394.359a1.016,1.016,0,0,1-.913-.563,1.018,1.018,0,0,1,.454-1.363l.117-.058a5.981,5.981,0,0,0,1.842-1.233c-1.129-1.65-4.3-6.767-4.3-12.363,0-6.2,1.429-7.392,3.783-8.608.3-.158.617-.321.946-.517a1.017,1.017,0,0,1,1.4.35,1.013,1.013,0,0,1-.35,1.4c-.367.221-.717.4-1.054.579-1.675.867-2.683,1.388-2.683,6.8,0,5.492,3.463,10.563,4.158,11.525a1.115,1.115,0,0,1,.212.625c0,1.75-1.908,2.7-3.046,3.267l-.113.058A1.046,1.046,0,0,1-209.635-394.359Z" transform="translate(212.431 419.209)"/></g><g transform="translate(34.636 55.905)"><path class="d" d="M-206.012-409.024a16.75,16.75,0,0,1-7.188-1.537,1.017,1.017,0,0,1-.487-1.354,1.019,1.019,0,0,1,1.354-.488,14.74,14.74,0,0,0,6.321,1.342,18.16,18.16,0,0,0,3.913-.433,1.016,1.016,0,0,1,1.217.771,1.022,1.022,0,0,1-.775,1.217A20.153,20.153,0,0,1-206.012-409.024Z" transform="translate(213.786 412.499)"/></g><g transform="translate(39.219 60.784)"><path class="d" d="M-211.366-409.161a2.453,2.453,0,0,1-.5-.05,1.019,1.019,0,0,1-.8-1.2,1.02,1.02,0,0,1,1.2-.8,1.682,1.682,0,0,0,.538-.042,4.514,4.514,0,0,1,.758-.079,1.019,1.019,0,0,1,1.017,1.021,1.015,1.015,0,0,1-1.017,1.017,3.2,3.2,0,0,0-.437.05A4.5,4.5,0,0,1-211.366-409.161Z" transform="translate(212.686 411.328)"/></g><g transform="translate(30.032 73.211)"><path class="d" d="M-205.872-400.259a.994.994,0,0,1-.379-.075,69.212,69.212,0,0,1-8.121-4.042,1.02,1.02,0,0,1-.387-1.388,1.02,1.02,0,0,1,1.388-.387A69.783,69.783,0,0,0-206-402.43c2.575-1.788,5.379-3.583,9.013-5.771a1.021,1.021,0,0,1,1.4.346,1.022,1.022,0,0,1-.346,1.4c-3.808,2.292-6.692,4.146-9.354,6.013A1.018,1.018,0,0,1-205.872-400.259Z" transform="translate(214.89 408.346)"/></g><g transform="translate(26.802 77.225)"><path class="d" d="M-211.359-396.369a1.226,1.226,0,0,1-.217-.021,1.019,1.019,0,0,1-.733-.629c-.6-1.538-1.154-3.1-1.692-4.613-.513-1.437-1.042-2.921-1.6-4.367a1.016,1.016,0,0,1,.583-1.317,1.021,1.021,0,0,1,1.317.583c.562,1.471,1.1,2.967,1.612,4.417.363,1.021.738,2.067,1.121,3.1,2.046-2.017,4.1-4.071,6.121-6.121a1.015,1.015,0,0,1,1.438-.012,1.024,1.024,0,0,1,.013,1.442c-2.4,2.429-4.838,4.867-7.254,7.242A1.024,1.024,0,0,1-211.359-396.369Z" transform="translate(215.666 407.382)"/></g><g transform="translate(38.827 75.93)"><path class="d" d="M-205.539-397.234a1.022,1.022,0,0,1-.721-.3,56.976,56.976,0,0,0-6.108-5.55,1.015,1.015,0,0,1-.208-1.425,1.018,1.018,0,0,1,1.425-.2,50.521,50.521,0,0,1,5.325,4.733c.233-.483.462-.971.692-1.458a53.507,53.507,0,0,1,3.021-5.783,1.014,1.014,0,0,1,1.4-.317,1.018,1.018,0,0,1,.317,1.4,51.774,51.774,0,0,0-2.9,5.563c-.437.933-.875,1.863-1.337,2.775a1.011,1.011,0,0,1-.746.546A1.072,1.072,0,0,1-205.539-397.234Z" transform="translate(212.78 407.693)"/></g><g transform="translate(33.512 82.299)"><path class="d" d="M-209.546-399.579c-3.6,0-4.275-3.667-4.492-4.871a1.011,1.011,0,0,1,.817-1.183,1.015,1.015,0,0,1,1.183.817c.517,2.813,1.5,3.2,2.492,3.2a10.831,10.831,0,0,0,1.592-.167,12.794,12.794,0,0,1,1.821-.183c.642,0,1.221-1.246,1.55-3.338a1.024,1.024,0,0,1,1.163-.85,1.017,1.017,0,0,1,.846,1.162c-.525,3.358-1.721,5.063-3.558,5.063a11.264,11.264,0,0,0-1.517.158A12.372,12.372,0,0,1-209.546-399.579Z" transform="translate(214.055 406.164)"/></g><g transform="translate(32.807 86.699)"><path class="d" d="M-213.206-392.652c-.05,0-.1,0-.146-.008a1.017,1.017,0,0,1-.862-1.154c.292-2.067.708-4.142,1.112-6.15.283-1.408.575-2.867.821-4.3a1.018,1.018,0,0,1,1.175-.829,1.02,1.02,0,0,1,.833,1.175c-.254,1.463-.55,2.933-.833,4.354-.4,1.979-.808,4.029-1.1,6.038A1.017,1.017,0,0,1-213.206-392.652Z" transform="translate(214.224 405.109)"/></g><g transform="translate(41.013 86.695)"><path class="d" d="M-209.013-394.011a1.018,1.018,0,0,1-.983-.754q-.269-1.006-.55-2.012a67.5,67.5,0,0,1-1.7-7.15,1.023,1.023,0,0,1,.846-1.167,1.017,1.017,0,0,1,1.167.842,64.217,64.217,0,0,0,1.646,6.929c.188.679.375,1.354.554,2.033a1.016,1.016,0,0,1-.721,1.246A1.131,1.131,0,0,1-209.013-394.011Z" transform="translate(212.255 405.11)"/></g><g transform="translate(39.818 96.021)"><path class="d" d="M-209.684-400.087a16.51,16.51,0,0,1-1.962-.113,1.017,1.017,0,0,1-.888-1.133,1.021,1.021,0,0,1,1.133-.887,14.15,14.15,0,0,0,1.717.1,34.354,34.354,0,0,0,4.446-.387c1.117-.142,2.267-.292,3.429-.363a1.031,1.031,0,0,1,1.079.954,1.02,1.02,0,0,1-.954,1.079c-1.1.067-2.212.208-3.292.35A37.113,37.113,0,0,1-209.684-400.087Z" transform="translate(212.542 402.871)"/></g><g transform="translate(67.208 71.271)"><path class="d" d="M-197.566-395.306a.906.906,0,0,0,.179-.021,6.98,6.98,0,0,0,5.8-7.154c-.079-3.679-2.725-6.4-6.163-6.329a10.233,10.233,0,0,0-5.113,1.363,6.945,6.945,0,0,0-3.1,5.292,1.019,1.019,0,0,0,.958,1.075,1.02,1.02,0,0,0,1.075-.958,4.929,4.929,0,0,1,2.117-3.663,8.253,8.253,0,0,1,4.108-1.071,4.129,4.129,0,0,1,4.079,4.338,4.952,4.952,0,0,1-4.154,5.113,1.016,1.016,0,0,0-.8,1.2A1.018,1.018,0,0,0-197.566-395.306Z" transform="translate(205.968 408.811)"/></g><path class="d" d="M-173.282-391.484c-1.475-.462-2.8-.783-4.075-1.1-.321-.075-.642-.154-.967-.233a15.461,15.461,0,0,0,.183-2.779,18.428,18.428,0,0,0-.133-1.875c.908-.417,1.792-.875,2.654-1.325l.925-.479a1.014,1.014,0,0,0,.45-1.354,18.9,18.9,0,0,0-1.042-1.85,19.159,19.159,0,0,0-4.8-5.108,1.014,1.014,0,0,0-1.292.067l-.529.483c-.775.708-1.571,1.438-2.358,2.192-1.037-.387-2.092-.683-3.121-.971.125-1.421.237-2.871.237-4.321a1.02,1.02,0,0,0-.808-1,18.857,18.857,0,0,0-6.875-.208,1.017,1.017,0,0,0-.854.95c-.062,1.1-.079,2.217-.092,3.3-.008.388-.013.779-.021,1.167a28.621,28.621,0,0,0-2.6,1.854,50.616,50.616,0,0,0-5.763-1.467,1.021,1.021,0,0,0-.992.35,33.437,33.437,0,0,0-2.983,4.35,1.025,1.025,0,0,0,.138,1.212c.6.633,1.208,1.258,1.813,1.875l.212.217a16.235,16.235,0,0,0-.683,4.038,1.019,1.019,0,0,0,.971,1.063,1.028,1.028,0,0,0,1.067-.971,13.524,13.524,0,0,1,.767-4.05,1.016,1.016,0,0,0-.229-1.054l-.646-.662c-.421-.429-.842-.858-1.258-1.292a31.6,31.6,0,0,1,2.021-2.954,41.614,41.614,0,0,1,5.425,1.454,1.024,1.024,0,0,0,1-.179,25.446,25.446,0,0,1,3.263-2.329,1.018,1.018,0,0,0,.5-.85c.017-.579.025-1.163.033-1.742.012-.779.025-1.579.054-2.375a16.79,16.79,0,0,1,4.492.146c-.037,1.317-.158,2.654-.271,3.954l-.021.187a1.02,1.02,0,0,0,.742,1.071l.683.192a31.779,31.779,0,0,1,3.65,1.171,1.016,1.016,0,0,0,1.1-.213c.883-.858,1.8-1.7,2.683-2.5A16.97,16.97,0,0,1-177-401.38c.162.254.317.513.467.771-1.121.583-2.163,1.121-3.25,1.588a1.014,1.014,0,0,0-.6,1.1,17.9,17.9,0,0,1,.217,2.375,12.567,12.567,0,0,1-.329,3.242,1.018,1.018,0,0,0,.729,1.229c.663.171,1.3.325,1.938.479,1.033.25,2.021.492,3.088.8a18.689,18.689,0,0,1-2.713,6.529c-.5-.171-1-.333-1.5-.5-.717-.233-1.433-.467-2.142-.708a1.016,1.016,0,0,0-1.079.271,9.666,9.666,0,0,1-4.392,2.383,1.015,1.015,0,0,0-.721,1.054c.067.821.117,1.683.163,2.646h1.358v3.271a1.019,1.019,0,0,0,.763-1.012c-.05-1.675-.108-3.025-.2-4.263a11.551,11.551,0,0,0,4.042-2.225c.521.175,1.046.346,1.567.521.737.242,1.475.483,2.213.733a1.028,1.028,0,0,0,1.154-.363,20.7,20.7,0,0,0,3.654-8.9A1.021,1.021,0,0,0-173.282-391.484Z" transform="translate(265.875 471.377)"/></g></svg>