<svg xmlns="http://www.w3.org/2000/svg" xmlns:xlink="http://www.w3.org/1999/xlink" width="101" height="101" viewBox="0 0 101 101">
  <defs>
    <clipPath id="clip-Automatizaciones">
      <rect width="101" height="101"/>
    </clipPath>
  </defs>
  <g id="Automatizaciones" clip-path="url(#clip-Automatizaciones)">
    <g id="Grupo_6352" data-name="Grupo 6352">
      <path id="Trazado_7316" data-name="Trazado 7316" d="M2.46,11.962c2.8-.9,5.243-2.6,8.123-3.334,2.957-.756,6.108-.564,9.13-.819a1.593,1.593,0,0,0,.482-.122c-.029.039-.06.077-.088.117a.794.794,0,0,0,.68,1.186,5.031,5.031,0,0,0,3.35-1.772,1.308,1.308,0,0,0,1.027-1.893A14.154,14.154,0,0,1,23.933,2.4c-.3-1.074-2.171-.915-2.024.274a14.043,14.043,0,0,0,.488,2.37,1.76,1.76,0,0,0-.431.427A12.508,12.508,0,0,1,21.144,6.6l-.067.073a1.354,1.354,0,0,0-1.364-1.843C13.223,5.2,6.6,5.961,1.93,11.05a.55.55,0,0,0,.531.912" transform="translate(1.006 0.063)" fill="#e0dfe6"/>
      <path id="Trazado_7317" data-name="Trazado 7317" d="M.665,14.54a.662.662,0,0,0,.447-.173A23.881,23.881,0,0,1,17.048,8.409a24.665,24.665,0,0,1,3.6.266c.393-.315.835-.683.835-.905a.82.82,0,0,0-.1-.319,25.884,25.884,0,0,0-4.334-.372,25.225,25.225,0,0,0-16.83,6.3A.665.665,0,0,0,.665,14.54" transform="translate(2 -2.94)" fill="#525d7d"/>
      <path id="Trazado_7318" data-name="Trazado 7318" d="M44.327,4.735l-.09.073a6.11,6.11,0,0,0-1.6,1.669.665.665,0,1,0,1.155.66,5.047,5.047,0,0,1,1.279-1.29A6.074,6.074,0,0,0,46.1,4.885a1.886,1.886,0,0,0,.33-.631,1.509,1.509,0,0,0,.067-.425,3.184,3.184,0,0,0-.743-1.738A2.808,2.808,0,0,1,45.094.665a.665.665,0,1,0-1.33,0,3.919,3.919,0,0,0,.887,2.178,5.532,5.532,0,0,1,.41.667.816.816,0,0,1,.1.32c0,.222-.441.59-.835.905" transform="translate(-21.68 1)" fill="#525d7d"/>
      <path id="Trazado_7319" data-name="Trazado 7319" d="M29.356,42.37c-2.245,1.135-4.414,3.07-3.846,5.868.488,2.4,3.075,3.829,5.386,3.846a6.108,6.108,0,0,0,5.857-4.523,5.178,5.178,0,0,0-3.891-6.245c-2.615-.478-3.69,3.575-1.1,3.975,2.729.421.443,3.686-1.644,3.34-3.363-.557-1.306-3.975-.2-5.7.236-.368-.217-.739-.564-.564" transform="translate(-12.147 -21.974)" fill="#28d6d6"/>
      <path id="Trazado_7320" data-name="Trazado 7320" d="M34.045,42.032c1.556,3.192,1.323,6.913-1.917,8.992A8.224,8.224,0,0,1,22.56,50.1a.769.769,0,0,0-1.277.743c1.689,4.959,8.586,5.5,12.562,3.115C38.41,51.219,40.154,44.77,37,40.306a1.711,1.711,0,0,0-2.952,1.726" transform="translate(-9.824 -20.991)" fill="#e0dfe6"/>
      <path id="Trazado_7321" data-name="Trazado 7321" d="M28.427,51.605c3.429,0,8.023-4.262,8.023-8.621,0-2.537-1.793-4.589-2.862-5.588-1.35-1.259-3.319-1.389-5.057-1.5-.224-.015-.447-.029-.667-.046-4.773-.371-8.033,4.215-8.033,8.484,0,3.5,2.69,7.274,8.6,7.274m-1.1-14.448c.143,0,.288.005.435.017.225.017.453.032.682.047,1.59.1,3.234.213,4.237,1.149a6.74,6.74,0,0,1,2.44,4.615c0,3.52-3.928,7.29-6.693,7.29-3.5,0-7.266-1.86-7.266-5.944,0-3.465,2.477-7.175,6.165-7.175" transform="translate(-9.037 -18.94)" fill="#525d7d"/>
      <path id="Trazado_7322" data-name="Trazado 7322" d="M33.868,53.368a2.988,2.988,0,0,0,2.713-2.706,3.172,3.172,0,0,0-2.226-2.753,2.162,2.162,0,0,0-.727-.126,2.7,2.7,0,0,0-2.56,2.7,2.953,2.953,0,0,0,2.8,2.881m-.239-4.255a.833.833,0,0,1,.28.049c.651.232,1.343.837,1.343,1.5,0,.765-.993,1.375-1.383,1.375A1.637,1.637,0,0,1,32.4,50.487a1.4,1.4,0,0,1,1.23-1.374" transform="translate(-15.292 -25.595)" fill="#525d7d"/>
      <path id="Trazado_7323" data-name="Trazado 7323" d="M66,54.394a8.882,8.882,0,0,1-.246,1.627.665.665,0,1,0,1.292.318,10.214,10.214,0,0,0,.282-1.871A.665.665,0,1,0,66,54.394" transform="translate(-34.585 -28.925)" fill="#525d7d"/>
      <path id="Trazado_7324" data-name="Trazado 7324" d="M55.5,32.75a11.687,11.687,0,0,1,1.3,1.05.665.665,0,1,0,.908-.972,12.952,12.952,0,0,0-1.454-1.171A.665.665,0,0,0,55.5,32.75" transform="translate(-28.731 -16.553)" fill="#525d7d"/>
      <path id="Trazado_7325" data-name="Trazado 7325" d="M59.815,68.429a.665.665,0,0,0,.939-.059A14.323,14.323,0,0,0,61.892,66.9a.665.665,0,1,0-1.1-.743,13.169,13.169,0,0,1-1.033,1.333.665.665,0,0,0,.059.939" transform="translate(-31.166 -35.659)" fill="#525d7d"/>
      <path id="Trazado_7326" data-name="Trazado 7326" d="M11.831,35.411a12.338,12.338,0,0,0-1.17,1.463.665.665,0,1,0,1.1.75,10.981,10.981,0,0,1,1.043-1.3.665.665,0,0,0-.972-.909" transform="translate(-3.869 -18.592)" fill="#525d7d"/>
      <path id="Trazado_7327" data-name="Trazado 7327" d="M45.469,28.333a.665.665,0,1,0,.408-1.266,15.53,15.53,0,0,0-1.794-.462.665.665,0,1,0-.254,1.306,14.12,14.12,0,0,1,1.639.421" transform="translate(-22.095 -13.801)" fill="#525d7d"/>
      <path id="Trazado_7328" data-name="Trazado 7328" d="M39.232,79.936a11.569,11.569,0,0,1-1.662.21.665.665,0,0,0,.034,1.329h.035a12.953,12.953,0,0,0,1.854-.234.665.665,0,0,0-.26-1.3" transform="translate(-18.56 -43.484)" fill="#525d7d"/>
      <path id="Trazado_7329" data-name="Trazado 7329" d="M51.19,75.022a15,15,0,0,1-1.465.86.665.665,0,1,0,.607,1.183,16.4,16.4,0,0,0,1.594-.936.665.665,0,1,0-.737-1.108" transform="translate(-25.475 -40.694)" fill="#525d7d"/>
      <path id="Trazado_7330" data-name="Trazado 7330" d="M25.341,77.647a.665.665,0,0,0-.572,1.2,15.651,15.651,0,0,0,1.716.7.665.665,0,0,0,.426-1.26,14.353,14.353,0,0,1-1.57-.639" transform="translate(-11.575 -42.181)" fill="#525d7d"/>
      <path id="Trazado_7331" data-name="Trazado 7331" d="M20.929,30.541a.656.656,0,0,0,.275-.06,8.362,8.362,0,0,1,1.551-.532.665.665,0,0,0-.3-1.295,9.672,9.672,0,0,0-1.8.617.665.665,0,0,0,.276,1.27" transform="translate(-9.278 -14.938)" fill="#525d7d"/>
      <path id="Trazado_7332" data-name="Trazado 7332" d="M7.337,59.285a.664.664,0,0,0-.425.839,11.082,11.082,0,0,0,.739,1.732.665.665,0,0,0,1.176-.622,9.889,9.889,0,0,1-.651-1.524.665.665,0,0,0-.839-.425" transform="translate(-1.828 -31.979)" fill="#525d7d"/>
      <path id="Trazado_7333" data-name="Trazado 7333" d="M31.033,27.593a.7.7,0,0,0,.124-.012,14.219,14.219,0,0,1,1.68-.214.665.665,0,1,0-.09-1.328,15.747,15.747,0,0,0-1.837.234.665.665,0,0,0,.123,1.319" transform="translate(-14.902 -13.493)" fill="#525d7d"/>
      <path id="Trazado_7334" data-name="Trazado 7334" d="M7.2,46.476a.666.666,0,0,0-.818.465,12.1,12.1,0,0,0-.356,1.842.665.665,0,0,0,.587.736.715.715,0,0,0,.075,0,.665.665,0,0,0,.66-.591,10.784,10.784,0,0,1,.317-1.638.665.665,0,0,0-.465-.818" transform="translate(-1.35 -24.855)" fill="#525d7d"/>
      <path id="Trazado_7335" data-name="Trazado 7335" d="M14.015,70.3a.665.665,0,0,0,0,.94,16.956,16.956,0,0,0,1.372,1.236.665.665,0,0,0,.836-1.035A15.742,15.742,0,0,1,14.955,70.3a.664.664,0,0,0-.94,0" transform="translate(-5.691 -38.021)" fill="#525d7d"/>
      <path id="Trazado_7336" data-name="Trazado 7336" d="M64.4,43.69a.665.665,0,0,0,1.27-.4,11.521,11.521,0,0,0-.7-1.742.665.665,0,1,0-1.188.6A10.23,10.23,0,0,1,64.4,43.69" transform="translate(-33.459 -21.923)" fill="#525d7d"/>
      <path id="Trazado_7337" data-name="Trazado 7337" d="M0,0H30.742V36.991H0Z" transform="translate(2 1)" fill="none"/>
      <path id="Trazado_7260" data-name="Trazado 7260" d="M183.011,123.406c.144.108.285.221.421.344-.113-.137-.223-.276-.337-.411Z" transform="translate(-89.712 -48.46)" fill="#e9e8f0"/>
      <path id="Trazado_7261" data-name="Trazado 7261" d="M194.952,148.686l.082-.063-.2-.259c.039.108.079.215.118.322" transform="translate(-95.507 -60.728)" fill="#e9e8f0"/>
      <path id="Trazado_7262" data-name="Trazado 7262" d="M74.649,144.166l.018-.287a4.054,4.054,0,0,0-1.679.295c.745-.007,1.6-.012,1.661-.008" transform="translate(-35.779 -58.528)" fill="#e9e8f0"/>
      <path id="Trazado_7263" data-name="Trazado 7263" d="M80.031,147.823l.467-.2a6.247,6.247,0,0,0-1.884-2.131l-.264.436a5.78,5.78,0,0,1,1.681,1.9" transform="translate(-38.407 -59.317)" fill="#e9e8f0"/>
      <path id="Trazado_7264" data-name="Trazado 7264" d="M75.167,148.43l-.14-.49A11.506,11.506,0,0,1,73.81,148l.072.505a7.14,7.14,0,0,0,1.285-.07" transform="translate(-36.182 -60.52)" fill="#e9e8f0"/>
      <path id="Trazado_7265" data-name="Trazado 7265" d="M170.257,46.552l.039-.508a49.146,49.146,0,0,0-5.458.231q.424.242.853.467a32.5,32.5,0,0,1,4.565-.191" transform="translate(-80.803 -10.553)" fill="#e9e8f0"/>
      <path id="Trazado_7266" data-name="Trazado 7266" d="M20.787,54.413l.267-.047-.266,0Z" transform="translate(-10.19 -14.65)" fill="#e9e8f0"/>
      <path id="Trazado_7267" data-name="Trazado 7267" d="M182.775,64.249l.4-.311c-.453-.587-1.049-1.291-1.663-2,.045.314.088.627.136.941.416.489.808.961,1.125,1.371" transform="translate(-88.978 -18.362)" fill="#e9e8f0"/>
      <path id="Trazado_7268" data-name="Trazado 7268" d="M182.7,69.393l.575.018,0-.045.013-.465-.679-.022q.041.243.084.487l0,.027" transform="translate(-89.514 -21.764)" fill="#e9e8f0"/>
      <path id="Trazado_7269" data-name="Trazado 7269" d="M116.074,32.7c.569-2.037,1.1-4.082,1.641-6.129.678-2.59-2.395-4.006-4.093-2.853-.2-.575-.4-1.151-.617-1.718-.684-1.782-1.99-3.683-4.167-3.5a3.3,3.3,0,0,0-1.938.81.579.579,0,0,0-.425.212c-2.956,3.37-3.369,8.014-2.713,12.269.314,2.04,3.3,1.721,3.818,0,.5-1.656.817-3.363,1.195-5.049q.189-.843.379-1.687c.191.7.376,1.4.564,2.105q.746,2.767,1.491,5.534a2.543,2.543,0,0,0,4.865,0" transform="translate(-50.732 2.934)" fill="#28d6d6"/>
      <path id="Trazado_7270" data-name="Trazado 7270" d="M99.406,61.627c-1.317,3.724-.113,9.138,4.514,9.538,2.168.187,4.621-1.265,4.561-3.672a4.8,4.8,0,0,0-.814-2.342,2.041,2.041,0,0,0-.933-1.475c-.127-.082-.253-.164-.376-.248-.517-.587-1.046-1.125-1.485-1.585a2.248,2.248,0,0,0-3.322.1c-.015-.108-.029-.217-.048-.321-.211-1.142-1.772-.919-2.1,0" transform="translate(-48.483 -17.83)" fill="#e0dfe6"/>
      <path id="Trazado_7271" data-name="Trazado 7271" d="M154.535,69.425c1.2-.091,2.421-.266,3.108-1.382a3.932,3.932,0,0,0-.069-3.753,5.789,5.789,0,0,0-5.1-3.386,2.226,2.226,0,0,0-.925.148c0-.051,0-.1-.007-.153a1.105,1.105,0,0,0-2.16-.293,16.448,16.448,0,0,0-.738,3.748,7.578,7.578,0,0,0-.1,2.934c.737,2.741,3.814,2.3,5.986,2.137" transform="translate(-72.761 -17.33)" fill="#e0dfe6"/>
      <path id="Trazado_7272" data-name="Trazado 7272" d="M125.728,55.026q-.087.271-.158.548c-.021-.147-.042-.294-.061-.44-.368-2.776-.451-7.027-4.077-7.264a.984.984,0,0,0-.146,0,6.585,6.585,0,0,0-3.634-1.6,1.014,1.014,0,0,0-.71,1.713c.685.724,1.565,1.227,2.256,1.956a9.449,9.449,0,0,1,1.632,2.435,1.432,1.432,0,0,0,1.321.861c-.037.434-.076.828-.084,1.127-.037,1.493-.036,2.988-.051,4.482-.016,1.594.063,3.262-.056,4.9a2.27,2.27,0,0,0-4.153.487,7.414,7.414,0,0,1-4.417,4.972c-2.549.856-4.29-.909-6.659-1a.96.96,0,0,0-.956.956c.207,1.964,1.808,3.19,3.715,3.813a2.036,2.036,0,0,0-.626.381c-2.726.7-5.571.456-8.405.6a53.821,53.821,0,0,0-6.188.64,1.672,1.672,0,0,0-.935-.239q-2.3.061-4.588.029a14.585,14.585,0,0,0,6.166-7.723c.922-2.56-2.848-3.872-4.215-1.777-1.382,2.119-2.157,4.641-4.44,6.032-2.61,1.591-4.478-.16-6.9-1.02a.735.735,0,0,0-.923.7,3.935,3.935,0,0,0,1.59,3.154c-3.9-.557-7.973-1.909-11.885-1.916-.115,0-.2.163-.1.245,3.079,2.513,7.85,3.623,11.662,4.428a64.365,64.365,0,0,0,13.631,1.432,1.657,1.657,0,0,0,1.169-.451c2.648.06,5.3.075,7.942.289,2.836.229,5.525.506,8.171-.311a14.269,14.269,0,0,0,2.8.16c-2.8.565-5.764.866-8.644,1.5a1.652,1.652,0,0,0-1.593-.921c-4.078.108-8.319-.094-12.359.487-.886.127-.8,1.513,0,1.705,3.99.963,8.287,1.124,12.359,1.607a1.55,1.55,0,0,0,1.742-1.236c8.307,1.908,19.533.126,23.2-8.568a1.845,1.845,0,0,0,.07-.213c1.99-4.891-.614-11.825-.584-16.712a.96.96,0,0,0-1.878-.254" transform="translate(-33.333 -10.684)" fill="#e0dfe6"/>
      <path id="Trazado_7273" data-name="Trazado 7273" d="M149.4,146.02a1.941,1.941,0,0,0-.923-1.427,13.278,13.278,0,0,1-.814-3.539,9.4,9.4,0,0,1,.122-2.326c.106-.522.5-2.261.947-2.57a.379.379,0,1,0,.524.523,1.311,1.311,0,0,0-.123-1.684c-.705-.672-1.825-.321-2.683.2a1.094,1.094,0,0,0-1.852.354,12.665,12.665,0,0,0-.389,2.14,8.354,8.354,0,0,0-.794,2.223c-.339-1.5-.546-3.049.375-4.28a.772.772,0,0,0,.137-.754c.739-1.279.212-3.531-2.028-3.021a3.457,3.457,0,0,0-2.643,3.528,11.726,11.726,0,0,0,.262,2.405,8.372,8.372,0,0,0-.124,1.1,68.763,68.763,0,0,0,.449,9.233h9.771c0-.033,0-.063,0-.1-.035-.679-.123-1.333-.216-2.007" transform="translate(-68.261 -52.6)" fill="#e0dfe6"/>
      <path id="Trazado_7274" data-name="Trazado 7274" d="M116.43,135.123a2.892,2.892,0,0,0-.265-.142c-.375-.18-.669-.506-1.064-.682a4.085,4.085,0,0,0-2.844-.16,6.49,6.49,0,0,0-2.3,1.292c-.976.775-.923,1.353-1.033-.222a1.878,1.878,0,0,0-3.466-.939c-1.042,1.4-2.2,2.568-2.466,4.346a.872.872,0,0,0,1.263.972,10.5,10.5,0,0,0,1.33-.975,3.5,3.5,0,0,0,4.638,2.138,5.622,5.622,0,0,0,2.233-1.318,3.4,3.4,0,0,0,.564-.578,4.168,4.168,0,0,0,.385.552c1.6,1.423,3.649,1.079,5.348.079,2.77-1.631.455-5.362-2.325-4.362" transform="translate(-50.482 -53.396)" fill="#e0dfe6"/>
      <path id="Trazado_7275" data-name="Trazado 7275" d="M59.248,134.746a3.162,3.162,0,0,0-2.091-.565,2.148,2.148,0,0,0-2.019-2.866c-4.288.088-8.422,1.835-12.711,1.579s-8.7-2.261-12.464-4.208a.49.49,0,0,0-.495.846c3.668,2.691,7.119,5.52,11.691,6.542,3.291.736,6.536.141,9.8-.2-.114.05-.229.1-.342.148-.809.37-.365,1.6.434,1.6a18.038,18.038,0,0,1,4.652.536,44.087,44.087,0,0,0,.055,5.912,2.542,2.542,0,0,0,2.819,1.84,2.614,2.614,0,0,0,2.227-2.523,28.213,28.213,0,0,0-.144-4.528c-.082-1.472-.128-3.138-1.416-4.113" transform="translate(-14.336 -51.049)" fill="#e0dfe6"/>
      <path id="Trazado_7276" data-name="Trazado 7276" d="M18.5,95.788c-.134.957.054,1.9-.094,2.855-.034.216-.159.49-.224.738a.89.89,0,0,0-.5.2,1.772,1.772,0,0,0-.361,2.138,2.213,2.213,0,0,0,2.964.612,5.143,5.143,0,0,0,1.942-2.5,6.758,6.758,0,0,0,.717-4.052c-.4-2.153-4.133-2.249-4.448,0" transform="translate(-8.391 -34.146)" fill="#e0dfe6"/>
      <path id="Trazado_7277" data-name="Trazado 7277" d="M15.159,97.1a1.209,1.209,0,0,0-1.689,0l-.7.817a1.111,1.111,0,0,0,1.571,1.571l.817-.7a1.2,1.2,0,0,0,0-1.69" transform="translate(-6.105 -35.429)" fill="#e0dfe6"/>
      <path id="Trazado_7278" data-name="Trazado 7278" d="M8.668,94.258a1.522,1.522,0,0,0-1.853-1.052,7.215,7.215,0,0,1-2.378.378,1.323,1.323,0,0,0-1.3,1.15,1.309,1.309,0,0,0,.951,1.455,10.583,10.583,0,0,0,3.531-.08,1.521,1.521,0,0,0,1.052-1.852" transform="translate(-1.532 -33.659)" fill="#e0dfe6"/>
      <path id="Trazado_7279" data-name="Trazado 7279" d="M134.893,27.558a3.931,3.931,0,0,0,2.211.021,1.327,1.327,0,0,0-.705-2.558c-.106.035-.21.063-.318.089l-.032.009-.055,0a2.52,2.52,0,0,1-.284-.007c-.039-.013-.091-.029-.132-.04a1.331,1.331,0,0,0-1.517.7,15.28,15.28,0,0,0-5.471-9.572c-.607-.451-1.631.31-1.334,1.026a33.386,33.386,0,0,1,1.951,5.224,22.629,22.629,0,0,1,.274,5.885c-.081,3.062,4.663,3.057,4.755,0,.013-.418,0-.844-.033-1.272a1.322,1.322,0,0,0,.688.493" transform="translate(-62.356 4.125)" fill="#e0dfe6"/>
      <path id="Trazado_7280" data-name="Trazado 7280" d="M85.641,32.89c-.005.036-.008.051-.01.067,0,0,0-.021,0-.036-.005.008-.01.013-.017.024l.017-.027a.152.152,0,0,0-.04.043.781.781,0,0,1-.1.066l-.027.007a1.008,1.008,0,0,1-.1-.033.985.985,0,0,0-1.17.574,1,1,0,0,0,.406,1.238,2.269,2.269,0,0,0,3.437-1.8A1.209,1.209,0,0,0,86.83,31.8a1.225,1.225,0,0,0-1.189,1.086" transform="translate(-41.235 -3.59)" fill="#e0dfe6"/>
      <path id="Trazado_7281" data-name="Trazado 7281" d="M89,19.765a1.462,1.462,0,0,0,1.422-1.422A1.439,1.439,0,0,0,89,16.921a10.008,10.008,0,0,1-2.428-.164,1.3,1.3,0,1,0-.692,2.512,7.136,7.136,0,0,0,3.12.5" transform="translate(-41.628 3.804)" fill="#e0dfe6"/>
      <path id="Trazado_7282" data-name="Trazado 7282" d="M102.419,8.309l.727.557A1.342,1.342,0,0,0,104.178,9a1.338,1.338,0,0,0,.32-2.446L103.71,6.1a1.278,1.278,0,0,0-1.878,1.444,1.5,1.5,0,0,0,.587.764" transform="translate(-49.894 9.09)" fill="#e0dfe6"/>
      <path id="Trazado_7283" data-name="Trazado 7283" d="M136.608,15.023a2.856,2.856,0,0,0-.82-.076l-.556.063a1.458,1.458,0,0,0-.946.392,1.338,1.338,0,0,0,0,1.892,1.546,1.546,0,0,0,.946.392l.556.063a2.875,2.875,0,0,0,.82-.076,1.374,1.374,0,0,0,0-2.65" transform="translate(-65.634 4.677)" fill="#e0dfe6"/>
      <path id="Trazado_7284" data-name="Trazado 7284" d="M139.83,25.22a1.582,1.582,0,0,0,.727.878,1.6,1.6,0,0,0,1.558.768,1.471,1.471,0,0,0,1.013-.584,1.6,1.6,0,0,0,.278-1.354,1.982,1.982,0,0,0-2.945-1.26,1.414,1.414,0,0,0-.632,1.552" transform="translate(-68.517 0.542)" fill="#e0dfe6"/>
      <path id="Trazado_7285" data-name="Trazado 7285" d="M75.237,75.961a.765.765,0,0,1,.765.765c0,.037,0,.079,0,.116,4.788.393,10.641.571,17.837.571.674,0,1.326,0,1.965-.011a3.694,3.694,0,0,1,.218-.552.764.764,0,0,1,1.425.528c10.772-.217,16.239-1.482,19.06-4.306,2.89-2.892,2.885-7.278,2.878-13.349v-.892c0-6.616-.654-11.155-3.907-13.338-2.9-1.944-7.466-1.929-15.038-1.943H100.1c-1.973,0-3.956.045-5.931.11l0,.791a.765.765,0,0,1-1.529,0l0-.732c-1.8.069-3.585.148-5.346.23-2.836.131-5.738.261-8.633.333.008.149.014.3.021.451l.015.3a.764.764,0,0,1-.717.8c3.149-.067,6.306-.212,9.386-.354,4.172-.193,8.486-.393,12.736-.393h.341c7.258-.006,11.674,0,14.186,1.684,2.354,1.579,3.229,4.85,3.229,12.068v.894c.007,5.915.011,9.822-2.431,12.266-2.762,2.765-9.016,3.892-21.587,3.892-37.363,0-38.906-4.446-38.906-21.445,0-2.631,1.179-8.75,12.1-8.75.7,0,1.46.02,2.327.06,1.675.078,3.405.116,5.29.116q1.63,0,3.271-.036a.765.765,0,0,1-.757-.726l-.015-.3c-.008-.164-.015-.332-.023-.5-.827.014-1.655.027-2.477.027-1.86,0-3.568-.037-5.218-.114-.891-.041-1.675-.062-2.4-.062C58.5,44.159,53.406,48,53.406,54.438c0,8.682.416,14.644,5.975,18.268,3.08,2.008,7.731,3.289,15.093,4a.763.763,0,0,1,.763-.745" transform="translate(-26.18 -9.348)" fill="#525d7d"/>
      <path id="Trazado_7286" data-name="Trazado 7286" d="M99.868,30.449a.765.765,0,0,0,.756.726h.046a.767.767,0,0,0,.725-.8l-.015-.3c-.008-.148-.013-.3-.021-.451-.063-1.256-.122-2.539-.122-3.8,0-7.159,2.409-10.64,7.364-10.64,1.581,0,6.741.943,6.741,13.073l0,.8,0,.732a.765.765,0,0,0,1.529,0l0-.791,0-.746c0-9.144-3.092-14.6-8.271-14.6-5.9,0-8.893,4.094-8.893,12.169,0,1.28.06,2.568.122,3.829.008.165.015.333.023.5Z" transform="translate(-48.877 5.305)" fill="#525d7d"/>
      <path id="Trazado_7287" data-name="Trazado 7287" d="M117.153,29.006a.765.765,0,0,0-1.049-.262,13.423,13.423,0,0,0-1.29.93,5.02,5.02,0,0,1-1.728,1.066c-.221,0-.53-.612-.756-1.06-.471-.933-1.116-2.212-2.6-2.212-.766,0-1.3.632-1.869,1.3a6.358,6.358,0,0,1-.923.954.764.764,0,1,0,.918,1.223,7.577,7.577,0,0,0,1.172-1.188,4.332,4.332,0,0,1,.739-.759c.485.024.78.538,1.2,1.371s.959,1.9,2.121,1.9a4.941,4.941,0,0,0,2.669-1.39,12.546,12.546,0,0,1,1.136-.824.765.765,0,0,0,.262-1.049" transform="translate(-52.27 -1.465)" fill="#525d7d"/>
      <path id="Trazado_7288" data-name="Trazado 7288" d="M85.286,32.5h-4.9a.765.765,0,1,0,0,1.529h4.9a.765.765,0,1,0,0-1.529" transform="translate(-39.03 -3.934)" fill="#525d7d"/>
      <path id="Trazado_7289" data-name="Trazado 7289" d="M87.832,16.571a25.066,25.066,0,0,1-3.391-1.813.765.765,0,0,0-.787,1.311,26.163,26.163,0,0,0,3.61,1.921.765.765,0,0,0,.568-1.42" transform="translate(-40.825 4.819)" fill="#525d7d"/>
      <path id="Trazado_7290" data-name="Trazado 7290" d="M101.757,2.02A3.6,3.6,0,0,0,101.14.306a.765.765,0,0,0-1.224.918,2.272,2.272,0,0,1,.33,1.041,3.424,3.424,0,0,0,.907,2.074.765.765,0,0,0,1.081-1.081,1.978,1.978,0,0,1-.479-1.237" transform="translate(-48.904 12)" fill="#525d7d"/>
      <path id="Trazado_7291" data-name="Trazado 7291" d="M139.146,13.352a.765.765,0,0,0-.684-1.368,10.22,10.22,0,0,0-1.078.648,4.562,4.562,0,0,1-1.333.695.765.765,0,0,0,.185,1.506.756.756,0,0,0,.186-.023,5.833,5.833,0,0,0,1.8-.9,8.966,8.966,0,0,1,.921-.556" transform="translate(-66.408 6.165)" fill="#525d7d"/>
      <path id="Trazado_7292" data-name="Trazado 7292" d="M140.13,27.219a.764.764,0,0,0,1.026.342,5.911,5.911,0,0,1,1.244-.409,7.245,7.245,0,0,0,1.556-.525.765.765,0,0,0-.684-1.368,5.92,5.92,0,0,1-1.244.409,7.24,7.24,0,0,0-1.557.525.765.765,0,0,0-.342,1.026" transform="translate(-68.652 -0.342)" fill="#525d7d"/>
      <path id="Trazado_7293" data-name="Trazado 7293" d="M143.615,34.793a4.685,4.685,0,0,0-1.434.294,2.444,2.444,0,0,1-1.181.2.765.765,0,1,0-.371,1.484,2.43,2.43,0,0,0,.585.07,4.691,4.691,0,0,0,1.435-.294,3.452,3.452,0,0,1,.966-.221.765.765,0,1,0,0-1.529" transform="translate(-68.652 -5.056)" fill="#525d7d"/>
      <path id="Trazado_7294" data-name="Trazado 7294" d="M88,58.114a10.619,10.619,0,0,0-7.855,9.908c0,4.893,4.52,9.185,9.674,9.185A10.5,10.5,0,0,0,97.49,73.79a11.087,11.087,0,0,0,2.57-4.407.758.758,0,0,1-.515.2c-.4,0-.779.007-1.148.017a9.447,9.447,0,0,1-8.582,6.075,8.116,8.116,0,0,1-8.145-7.656,9.016,9.016,0,0,1,6.664-8.416c.2-.045.4-.074.609-.1.014-.117.025-.237.041-.353a.765.765,0,0,1,1.516.2c0,.032-.007.065-.011.1,4.043.262,8.35,3.581,8.35,7.975a5.027,5.027,0,0,1-.043.638c.245,0,.49-.009.749-.009a.764.764,0,0,1,.711.486,6.569,6.569,0,0,0,.113-1.116c0-5.077-4.855-9.531-10.389-9.531A8.967,8.967,0,0,0,88,58.114" transform="translate(-39.285 -16.38)" fill="#525d7d"/>
      <path id="Trazado_7295" data-name="Trazado 7295" d="M107.85,68.626c-.258,0-.5,0-.748.008a47.481,47.481,0,0,0-5.438.424c-1.291.162-2.311.289-2.6.037-.456-.4-.456-2.461-.455-5.576v-.493a23.412,23.412,0,0,1,.182-3c0-.032.007-.065.011-.1a.765.765,0,0,0-1.516-.2c-.015.116-.027.236-.04.353a25.141,25.141,0,0,0-.166,2.952v.493c0,4.267,0,5.864.972,6.723a2.406,2.406,0,0,0,1.7.525,18.142,18.142,0,0,0,2.1-.19,46.777,46.777,0,0,1,4.849-.4c.369-.01.747-.017,1.148-.017a.765.765,0,0,0,0-1.529" transform="translate(-47.59 -16.95)" fill="#525d7d"/>
      <path id="Trazado_7296" data-name="Trazado 7296" d="M142.464,76.906c4.779,0,9.032-5.538,9.032-9.9,0-4.87-4.718-9.305-9.9-9.305a10.676,10.676,0,0,0-4.329,1.087,9.569,9.569,0,0,0-5.557,8.393c0,5.274,4.923,9.729,10.751,9.729m-4.582-16.721a14.922,14.922,0,0,1,1.635-.62c-.016-.194-.037-.394-.051-.586a.765.765,0,1,1,1.525-.117c.01.129.024.264.035.394.189-.018.38-.03.573-.03,4.3,0,8.368,3.779,8.368,7.776a6.166,6.166,0,0,1-.082.931c.228.006.455.012.668.028a.765.765,0,1,1-.109,1.525c-.3-.021-.624-.029-.958-.031-1.106,3.017-3.99,5.921-7.021,5.921-4.912,0-9.222-3.832-9.222-8.2a7.979,7.979,0,0,1,4.64-6.992" transform="translate(-64.566 -16.283)" fill="#525d7d"/>
      <path id="Trazado_7297" data-name="Trazado 7297" d="M147.447,66.938c0,.176-.018.344-.032.5a2.049,2.049,0,0,0,.383,1.719c.6.66,1.773.9,4.33.9.8,0,1.593-.045,2.364-.088.811-.045,1.661-.084,2.447-.079.333,0,.658.009.957.031A.765.765,0,1,0,158,68.4c-.213-.015-.439-.021-.668-.028-.934-.023-1.965.02-2.93.074-.75.042-1.526.086-2.279.086-2.627,0-3.112-.309-3.2-.4a1.721,1.721,0,0,1,.007-.545c.02-.2.04-.421.04-.648,0-1.81-.173-3.659-.341-5.447-.057-.605-.109-1.2-.158-1.792-.011-.13-.025-.265-.035-.394a.765.765,0,0,0-1.525.117c.015.192.035.392.051.586.046.538.092,1.077.143,1.626.165,1.754.334,3.567.334,5.3" transform="translate(-72.018 -16.725)" fill="#525d7d"/>
      <path id="Trazado_7298" data-name="Trazado 7298" d="M96.314,109.705c-.025-.574-.049-1.161-.053-1.7,0-.038,0-.079,0-.116a.764.764,0,0,0-1.527-.019c0,.619.027,1.271.055,1.9.027.614.055,1.249.055,1.815a.763.763,0,0,0,.014.138q.724-.114,1.514-.21c0-.581-.028-1.2-.055-1.811" transform="translate(-46.437 -40.513)" fill="#525d7d"/>
      <path id="Trazado_7299" data-name="Trazado 7299" d="M137.654,108.122a.767.767,0,0,0-1.026.342,3.928,3.928,0,0,0-.392,1.682,7.744,7.744,0,0,0,.163,1.4c.03.168.057.33.082.493q.777.047,1.555.092c-.033-.3-.082-.58-.132-.855a6.546,6.546,0,0,1-.139-1.128,2.145,2.145,0,0,1,.23-1,.754.754,0,0,0,.057-.156.765.765,0,0,0-.4-.87" transform="translate(-66.783 -40.962)" fill="#525d7d"/>
      <path id="Trazado_7300" data-name="Trazado 7300" d="M8.327,92.265A.766.766,0,0,1,9.2,92.9c.028.178.053.369.079.553a.737.737,0,0,0,.071-.039c2.13-1.491,3-4.122,3.773-6.444.158-.476.313-.944.475-1.39a3.245,3.245,0,0,1-1.091-1.869,7.864,7.864,0,0,0-3.211-1.8c-.043.148-.089.29-.141.42a.765.765,0,1,1-1.42-.568c.018-.046.034-.1.051-.152a9.719,9.719,0,0,0-1.1-.063C2.374,81.551,0,84.1,0,88.738,0,92.861,1.958,94.2,2.906,94.2c.773,0,2.173-1.318,3.342-3.456a3.578,3.578,0,0,0,1.438,2.294.762.762,0,0,1,.641-.768m-.95-7.706a.767.767,0,0,0-.852.642,12.353,12.353,0,0,1-3.674,7.425c-.387-.213-1.322-1.207-1.322-3.889,0-3.807,1.686-5.657,5.155-5.657a6.674,6.674,0,0,1,5.343,2.359c-.119.342-.236.692-.354,1.048-.683,2.06-1.388,4.185-2.884,5.432-.6-.291-1.159-.937-1.159-2.677A19.37,19.37,0,0,1,7.886,86.6c.062-.432.12-.839.157-1.2a.765.765,0,0,0-.665-.835" transform="translate(0 -27.976)" fill="#525d7d"/>
      <path id="Trazado_7301" data-name="Trazado 7301" d="M26.97,102.41c-.015-.2-.029-.391-.037-.586,0,.014-.011.026-.015.04a.756.756,0,0,0,.051.547" transform="translate(-13.181 -37.914)" fill="#525d7d"/>
      <path id="Trazado_7302" data-name="Trazado 7302" d="M15.551,72.36a.764.764,0,0,0,.994-.426c.052-.13.1-.271.141-.42a19.311,19.311,0,0,0,.472-3.493c.275-3.465.625-6.121,2.38-6.157A6.016,6.016,0,0,1,20.129,65a29.275,29.275,0,0,1-.212,3.02,31.316,31.316,0,0,0-.225,3.255,8.688,8.688,0,0,0,.2,2.033,3.2,3.2,0,0,0,1.092,1.862,4.346,4.346,0,0,0,1.175.629c.722.279,1.051.406,1.051,1.722a3.646,3.646,0,0,1-.922,1.889,9.3,9.3,0,0,0-.944,1.515.763.763,0,0,1,1.317.494c0,.1.013.192.019.289a6.9,6.9,0,0,1,.849-1.405,4.811,4.811,0,0,0,1.21-2.781c0-2.183-.96-2.735-2.03-3.148-.834-.323-1.493-.577-1.493-3.1a30.321,30.321,0,0,1,.216-3.1A30.778,30.778,0,0,0,21.659,65c0-1.4-.2-4.667-2.085-4.667-3.342,0-3.674,4.2-3.941,7.566a16.578,16.578,0,0,1-.457,3.313c-.017.051-.033.107-.051.152a.765.765,0,0,0,.426.994" transform="translate(-7.387 -17.576)" fill="#525d7d"/>
      <path id="Trazado_7303" data-name="Trazado 7303" d="M53.876,128.545c.1-1.059.2-2.154.2-3.244,0-2.569-.344-3.836-1.227-4.519-1.117-.864-2.734-.445-5.181.19-.859.223-1.816.472-2.891.708.021.146.045.291.064.441a.765.765,0,1,1-1.518.189c-.014-.112-.032-.218-.047-.328a41.063,41.063,0,0,1-7.551.682,33.144,33.144,0,0,1-5.271-.392c-.014,0-.028.006-.042.006a.765.765,0,0,1-.259-.051c-6.076-1.051-9.211-3.889-10.931-7.26-.035.012-.068.027-.1.038a.757.757,0,0,1-.242.039.763.763,0,0,1-.28-1.473,32.419,32.419,0,0,1-1.671-7.931c-.081-.665-.161-1.293-.248-1.9-.027-.184-.051-.375-.079-.553a.765.765,0,0,0-1.51.241c.117.735.216,1.541.32,2.394.891,7.314,2.236,18.368,20.318,18.368a45.907,45.907,0,0,0,12.328-1.742c1.864-.484,3.337-.867,3.86-.461.426.33.633,1.412.633,3.309,0,1.021-.1,2.081-.189,3.106-.1,1.056-.195,2.147-.195,3.23a13.578,13.578,0,0,0,.164,2.154h1.545a11.809,11.809,0,0,1-.18-2.154c0-1.014.1-2.07.189-3.092" transform="translate(-7.391 -38.268)" fill="#525d7d"/>
      <path id="Trazado_7304" data-name="Trazado 7304" d="M27.706,100.259a.768.768,0,0,0-.732.8c.008.2.022.393.037.588a17.789,17.789,0,0,0,2.457,7.758l.107-.09a.764.764,0,1,1,1,1.161c-.081.069-.165.138-.247.207.22.3.446.586.684.863a13.555,13.555,0,0,0,6.383,4.2.759.759,0,0,1,1.37.333,13.477,13.477,0,0,0,2.487.234,19.53,19.53,0,0,0,6.611-.991c.014-.009.025-.02.039-.028a.764.764,0,0,1,.31-.1,26.715,26.715,0,0,0,3.662-1.783c3.526-1.953,7.523-4.165,19.308-4.165,3.512,0,7.083.218,10.536.429,1.6.1,3.2.2,4.8.274a.765.765,0,1,0,.075-1.528q-1.059-.051-2.114-.114l-1.555-.091-1.114-.067c-3.476-.213-7.07-.432-10.629-.432a67,67,0,0,0-8.023.427q-.791.1-1.515.21a28.057,28.057,0,0,0-10.512,3.72,17.327,17.327,0,0,1-9.881,2.706c-5.836,0-12.227-4.732-12.727-13.505-.006-.1-.014-.191-.018-.289a.759.759,0,0,0-.8-.732" transform="translate(-13.222 -37.146)" fill="#525d7d"/>
      <path id="Trazado_7305" data-name="Trazado 7305" d="M159.267,120.594a33.474,33.474,0,0,0-11.774-3.373,1.92,1.92,0,0,0-.661-.053c-.323-.021-.5-.024-.513-.024a.769.769,0,0,0-.82.767c0,.341.168.752.97.779l.311.007c2.14.146,11.088,1.119,17.2,7.1a18.88,18.88,0,0,1,5.342,10.064.763.763,0,0,1,.257,1.381l-.023.014a26.474,26.474,0,0,1,.234,3.551.736.736,0,0,0,.014.139h1.5a.735.735,0,0,0,.014-.139c0-11.588-6.556-17.388-12.056-20.213" transform="translate(-71.323 -45.424)" fill="#525d7d"/>
      <path id="Trazado_7306" data-name="Trazado 7306" d="M152.378,135.626c.127,0,.258,0,.4,0,4.009,0,6.838,1.092,8.862,2.743a10.988,10.988,0,0,1,.725-1.406,14.923,14.923,0,0,0-9.126-2.855c-.083.344-.174.686-.287,1.022a.758.758,0,0,1-.574.5" transform="translate(-74.696 -53.738)" fill="#525d7d"/>
      <path id="Trazado_7307" data-name="Trazado 7307" d="M177.915,151.46a.765.765,0,1,1-.6-1.406c.13-.056.264-.106.4-.159a17.026,17.026,0,0,0-4.189-8.17,7.718,7.718,0,0,0-.557,1.131.75.75,0,0,1-.216.3c2.626,2.841,3.528,6.749,4.014,9.841h1.547c-.077-.5-.166-1.033-.271-1.585-.039.017-.082.032-.12.048" transform="translate(-84.68 -57.474)" fill="#525d7d"/>
      <path id="Trazado_7308" data-name="Trazado 7308" d="M148.214,135.656a.712.712,0,0,1-.141-.023.764.764,0,0,1-.483-.967c.057-.17.1-.343.15-.516-1.86.133-3.339.757-3.339,3.445a.766.766,0,0,0,.018.163c.015.071,1.294,5.963,1.914,11.524h1.539c-.584-5.344-1.78-11.017-1.941-11.768.01-1.353.284-1.79,2.284-1.859" transform="translate(-70.785 -53.76)" fill="#525d7d"/>
      <path id="Trazado_7309" data-name="Trazado 7309" d="M151.1,129.342a.711.711,0,0,0,.141.023.779.779,0,0,0,.1.016.733.733,0,0,0,.152-.024.756.756,0,0,0,.573-.5c.113-.337.2-.679.286-1.023.191-.788.321-1.586.444-2.368a19.552,19.552,0,0,1,.67-3.145.765.765,0,0,0-1.451-.484,21.007,21.007,0,0,0-.73,3.39,23.845,23.845,0,0,1-.521,2.629c-.047.173-.093.346-.15.516a.764.764,0,0,0,.483.967" transform="translate(-73.814 -47.469)" fill="#525d7d"/>
      <path id="Trazado_7310" data-name="Trazado 7310" d="M170.314,137.029a.758.758,0,0,0,1.216.836.751.751,0,0,0,.216-.3,7.646,7.646,0,0,1,.557-1.132c.118-.2.241-.41.368-.62a7.7,7.7,0,0,0,1.458-4.118.765.765,0,0,0-1.529,0,6.3,6.3,0,0,1-1.235,3.324c-.077.126-.154.255-.231.384a10.992,10.992,0,0,0-.725,1.406c-.031.073-.065.144-.093.219" transform="translate(-83.464 -52.183)" fill="#525d7d"/>
      <path id="Trazado_7311" data-name="Trazado 7311" d="M180.855,156.988a.765.765,0,0,0,1,.4c.039-.017.081-.032.12-.048.492-.205,1.014-.4,1.524-.584a15.9,15.9,0,0,0,3.357-1.521l.023-.014a.765.765,0,0,0-.848-1.272,14.5,14.5,0,0,1-3.054,1.37c-.439.16-.888.328-1.329.5-.132.053-.266.1-.4.159a.765.765,0,0,0-.4,1" transform="translate(-88.625 -63.403)" fill="#525d7d"/>
      <path id="Trazado_7312" data-name="Trazado 7312" d="M27.652,119a.764.764,0,1,0-1-1.161l-.107.09a14.962,14.962,0,0,1-5.005,3.033c-.014,0-.025.012-.038.017a.763.763,0,0,0,.28,1.473.754.754,0,0,0,.242-.04c.036-.012.068-.026.1-.038a16.206,16.206,0,0,0,5.274-3.167c.082-.069.166-.138.247-.207" transform="translate(-10.305 -45.674)" fill="#525d7d"/>
      <path id="Trazado_7313" data-name="Trazado 7313" d="M46.862,131.362c.024-.156.047-.308.072-.456a.749.749,0,0,0,0-.239.759.759,0,0,0-1.37-.333.753.753,0,0,0-.137.32c-.025.154-.05.313-.075.476-.185,1.2-.395,2.567-1.364,3.213a.764.764,0,0,0-.212,1.06.816.816,0,0,0,.637.341c.014,0,.028-.006.042-.006a.759.759,0,0,0,.381-.122c1.53-1.02,1.806-2.813,2.027-4.253" transform="translate(-21.395 -51.734)" fill="#525d7d"/>
      <path id="Trazado_7314" data-name="Trazado 7314" d="M67.607,129.688a.763.763,0,0,0-.245,1.016,12.246,12.246,0,0,1,1.491,4.521c.016.11.034.216.047.328a.764.764,0,0,0,.758.67.874.874,0,0,0,.1-.006.765.765,0,0,0,.664-.853c-.019-.151-.042-.3-.064-.442a13.637,13.637,0,0,0-1.665-4.977.771.771,0,0,0-1.043-.285c-.014.008-.025.019-.039.028" transform="translate(-32.971 -51.511)" fill="#525d7d"/>
      <path id="Trazado_7315" data-name="Trazado 7315" d="M119.621,132.774q0-.525.022-1.048a.764.764,0,0,0-.239-.588.754.754,0,0,0-.6-.206c-1.646.16-3.318.174-4.891.174l-1.325,0a41.26,41.26,0,0,0-6.737.4.765.765,0,0,0-.641.777q.012.405.012.81c0,.842-.035,1.706-.068,2.542-.034.851-.069,1.73-.069,2.6,0,.374.006.746.021,1.12a.765.765,0,0,0,.764.734c1.938-.043,3.9-.043,5.788-.043,2.556,0,5.2,0,7.8-.106a.765.765,0,0,0,.725-.881,41.108,41.108,0,0,1-.567-6.283m-7.961,5.741c-1.653,0-3.354,0-5.043.029q0-.154,0-.309c0-.842.035-1.707.068-2.542.034-.851.069-1.73.069-2.6,0-.058,0-.116,0-.174a43.769,43.769,0,0,1,5.837-.281l1.325,0c1.34,0,2.754-.01,4.178-.109,0,.082,0,.165,0,.247a40.053,40.053,0,0,0,.459,5.667c-2.3.074-4.63.074-6.891.074" transform="translate(-51.513 -52.181)" fill="#525d7d"/>
      <path id="Trazado_7338" data-name="Trazado 7338" d="M0,0H100V83.523H0Z" transform="translate(0 12)" fill="none"/>
    </g>
  </g>
</svg>
