<svg width="128" height="123" viewBox="0 0 128 123" fill="none" xmlns="http://www.w3.org/2000/svg">
<g clip-path="url(#clip0_107_202)">
<path d="M127.51 48.9998C126.71 42.1498 125.57 35.3198 124.59 28.4998C123.56 21.3298 123.58 12.6098 120.32 6.07977C119.36 4.15977 115.98 4.52977 115.58 6.69977C115.52 7.01977 115.48 7.33977 115.43 7.65977C114.95 6.31977 114.47 5.08977 114 4.03977C112.39 0.43977 106.51 2.99977 107.66 6.70977C110.38 15.5298 112.64 24.1598 112.01 33.5098C111.76 37.2898 111.09 42.2798 106.99 43.7798C102.66 45.3598 96.6603 44.8398 92.0803 45.2198C88.1103 45.5498 84.1403 45.8798 80.1703 46.1898C72.1403 46.1798 64.1103 46.3598 56.1003 47.0498C51.0103 47.4898 45.9203 48.0598 40.8103 47.9798C37.2703 47.9298 29.0603 48.7498 26.6803 45.8798C25.2803 44.1998 25.5803 39.9298 25.3503 37.9398C25.0403 35.3298 24.7503 32.7198 24.5703 30.0898C24.2603 25.4698 24.3103 20.7398 23.4403 16.1798C23.3303 15.6198 22.3903 15.4598 22.1603 16.0098C18.4803 24.6098 17.7203 37.5798 19.8403 46.6598C22.1803 56.6798 36.1103 54.4798 43.6803 53.6898C46.8303 53.3598 49.9603 53.0098 53.0903 52.6698C59.0603 52.7798 65.0903 52.4298 70.7603 52.3098C80.2603 52.1098 90.1503 52.4098 99.7403 51.6598C105.87 51.9198 112 52.0798 118.12 51.7598C119.47 51.6898 120.28 50.8098 120.55 49.7898C120.98 53.4298 121.09 57.1298 120.08 60.5498C119.52 60.2598 118.83 60.1898 118.22 60.3098C116.99 60.5498 116.38 61.2398 115.3 61.7698C113.79 62.5098 112.26 62.7898 110.58 63.1098C106.08 63.9698 101.55 64.5898 96.9903 64.9998C88.6803 65.7398 80.3203 65.8198 72.0003 66.3998C71.9503 66.3998 71.9403 66.4698 71.9903 66.4898C74.2203 67.1698 76.4603 67.7198 78.7103 68.1598C74.5503 68.0898 70.3803 68.0098 66.2203 67.9498C53.6003 67.7698 40.2403 67.0498 27.9903 70.2698C27.3103 70.4498 27.3403 71.4298 27.9903 71.6298C41.9703 75.8198 57.7103 75.0998 72.2303 75.3398L94.2603 75.6998C100.91 75.8098 108.31 76.8698 114.83 75.2098C126.57 72.2298 128.76 59.3298 127.55 49.0098L127.51 48.9998ZM118.09 46.4798C117.03 46.4998 115.98 46.5098 114.92 46.5198C116.91 44.2398 118.16 41.2698 118.86 37.9298C119.11 39.7498 119.37 41.5798 119.62 43.3998C119.81 44.7598 120.03 46.1598 120.23 47.5798C119.83 46.9298 119.12 46.4698 118.09 46.4898V46.4798Z" fill="#E0DFE6"/>
<path d="M105.548 94.4444L104.546 89.3091H105.548H109.557L108.305 94.4444H105.548Z" fill="#28D6D6"/>
<path d="M19.8789 6.14352L21.1314 53.9887L117.824 51.6089L116.822 17.7917L115.945 4.89101L111.687 2.26074H28.8973H22.6348L19.8789 6.14352Z" fill="#28D6D6"/>
<path d="M124.74 101.63C123.78 95.1202 121.59 85.9302 115.65 82.2002C114.16 81.2602 112.03 82.1602 111.6 83.8502C109.55 91.8702 115.59 100.08 114.35 108.14C113.74 112.1 110.36 114.32 106.44 113.8C103.11 113.36 101.59 110.67 98.7496 109.52C96.6596 112.9 100.34 117.89 102.96 119.9C107.85 123.64 114.75 123.22 119.49 119.51C125.04 115.16 125.69 108.18 124.73 101.64L124.74 101.63Z" fill="#E0DFE6"/>
<path d="M72.7709 88.7399C71.3809 85.7299 66.1509 86.4399 65.5509 89.6799C64.9709 92.8199 65.1209 95.7699 65.2309 98.9499C65.2809 100.43 66.1509 107.25 64.9509 108.24C64.4609 108.65 57.5609 108.31 56.0709 108.37C52.4209 108.53 48.7809 108.69 45.1309 108.86C37.7809 109.19 30.5509 109.92 23.2609 110.85C19.9509 111.27 16.6209 111.62 13.3209 112.09C11.1009 112.41 6.04092 114.51 4.85092 112.18C4.66092 111.81 3.99092 111.77 3.82092 112.18C0.700925 119.31 11.0109 118.61 15.3109 118.75C26.2909 119.11 37.1509 119.23 48.1209 118.63C53.4209 118.34 58.7309 118.13 64.0309 117.77C67.7109 117.52 71.0609 116.9 73.1409 113.53C75.0809 110.38 74.9209 106.17 74.9509 102.61C74.9909 97.7899 74.8209 93.1499 72.7809 88.7299L72.7709 88.7399Z" fill="#E0DFE6"/>
<path d="M24.7095 70.2301C23.0295 70.2301 21.4095 69.5501 20.2295 68.3601C19.0295 67.1401 18.3695 65.4601 18.4295 63.7501C19.1295 42.1301 19.1395 28.3501 18.4495 7.03008C18.3895 5.17008 19.1095 3.35008 20.4195 2.02008C21.7195 0.700077 23.5495 -0.039923 25.3895 7.70062e-05C58.5095 0.650077 78.6595 0.840077 110.53 0.290077C112.51 0.250077 114.48 1.03008 115.9 2.43008C117.32 3.82008 118.14 5.77008 118.15 7.76008C118.2 27.4301 118.67 40.9901 120.05 61.5001C120.2 63.6901 119.41 65.8501 117.9 67.4501C116.39 69.0401 114.31 69.9401 112.08 69.9201C77.8595 69.5501 56.6695 69.7301 24.8095 70.2401C24.7795 70.2401 24.7395 70.2401 24.7095 70.2401V70.2301ZM25.2595 3.00008C24.2495 3.00008 23.2595 3.41008 22.5395 4.13008C21.8095 4.87008 21.3995 5.89008 21.4395 6.93008C22.1295 28.3201 22.1195 42.1501 21.4195 63.8401C21.3895 64.7301 21.7295 65.6101 22.3595 66.2501C22.9895 66.8901 23.8395 67.2301 24.7495 67.2301C56.6395 66.7201 77.8395 66.5401 112.1 66.9101C113.46 66.9401 114.77 66.3701 115.71 65.3801C116.65 64.3901 117.13 63.0501 117.04 61.6901C115.66 41.1101 115.18 27.5001 115.14 7.76008C115.14 6.57008 114.65 5.40008 113.79 4.57008C112.94 3.74008 111.77 3.28008 110.57 3.29008C78.6595 3.84008 58.4795 3.64008 25.3195 3.00008C25.2995 3.00008 25.2695 3.00008 25.2495 3.00008H25.2595Z" fill="#525D7D"/>
<path d="M20.2305 54.5601C19.4105 54.5601 18.7405 53.9001 18.7305 53.0801C18.7305 52.2501 19.3905 51.5701 20.2105 51.5601L117.92 50.5201C118.75 50.5101 119.43 51.1801 119.44 52.0001C119.44 52.8301 118.78 53.5101 117.96 53.5201C117.96 53.5201 20.2505 54.5601 20.2305 54.5601Z" fill="#525D7D"/>
<path d="M29.1492 18.3198C28.6992 18.3198 28.2592 18.1198 27.9592 17.7398C27.4492 17.0898 27.5692 16.1398 28.2192 15.6398L33.4692 11.5598C34.1192 11.0498 35.0692 11.1698 35.5692 11.8198C36.0792 12.4698 35.9592 13.4198 35.3092 13.9198L30.0592 17.9998C29.7892 18.2098 29.4592 18.3198 29.1392 18.3198H29.1492Z" fill="#525D7D"/>
<path d="M30.3108 26.4802C29.9108 26.4802 29.5208 26.3202 29.2208 26.0102C28.6508 25.4102 28.6708 24.4602 29.2708 23.8902C33.4908 19.8802 37.8808 16.3802 41.6308 13.4902C42.2908 12.9802 43.2308 13.1002 43.7308 13.7602C44.2408 14.4202 44.1208 15.3602 43.4608 15.8602C39.7808 18.7102 35.4608 22.1402 31.3408 26.0602C31.0508 26.3402 30.6808 26.4702 30.3108 26.4702V26.4802Z" fill="#525D7D"/>
<path d="M3.82977 118.6C2.88977 118.6 1.97977 118.23 1.30977 117.57C0.629766 116.9 0.229766 115.97 0.229766 115.02C0.209766 111.62 0.169766 108.22 0.129766 104.82C0.0697656 99.5899 0.00976562 94.1899 0.00976562 88.8799C0.00976562 87.9599 0.389766 87.0699 1.05977 86.4299C1.72977 85.7899 2.62977 85.4499 3.55977 85.4999C10.6398 85.8499 18.1798 86.01 27.2698 86.01C34.2298 86.01 41.3298 85.9099 48.1998 85.8199C53.5598 85.7499 59.0898 85.6699 64.5498 85.6399C65.4798 85.6299 66.3798 86.0099 67.0298 86.6699C67.6798 87.3299 68.0398 88.24 68.0198 89.16C67.9898 90.54 67.9798 91.9099 67.9798 93.2899C67.9798 96.9699 68.0598 100.71 68.1398 104.33C68.2198 107.97 68.2998 111.73 68.2998 115.44C68.2998 116.88 67.1298 118.05 65.6998 118.05C41.7698 118.09 27.9098 118.21 3.88977 118.58H3.83977L3.82977 118.6ZM3.37977 88.4999C3.27977 88.4999 3.18977 88.5399 3.11977 88.6099C3.04977 88.6799 2.99977 88.7799 2.99977 88.8799C2.99977 94.1699 3.05977 99.5699 3.11977 104.79C3.15977 108.2 3.19977 111.61 3.21977 115.01C3.21977 115.17 3.28977 115.32 3.39977 115.43C3.50977 115.54 3.66977 115.6 3.82977 115.6C27.7398 115.23 41.5898 115.11 65.2898 115.07C65.2898 111.52 65.1998 107.91 65.1298 104.42C65.0498 100.78 64.9698 97.0199 64.9698 93.3099C64.9698 91.9099 64.9798 90.52 65.0098 89.12C65.0098 89 64.9598 88.8799 64.8798 88.7899C64.7898 88.6999 64.6898 88.67 64.5498 88.65C59.1098 88.68 53.5698 88.75 48.2198 88.83C41.3398 88.92 34.2298 89.0199 27.2498 89.0199C18.0998 89.0199 10.5198 88.86 3.36977 88.51L3.37977 88.4999Z" fill="#525D7D"/>
<path d="M11.6197 97.2901C10.9997 97.2901 10.3997 97.0201 9.88969 96.5101C9.72969 96.3501 9.59969 96.1401 9.52969 95.9201C9.45969 95.7201 9.42969 95.5201 9.42969 95.3201C9.42969 94.8701 9.58969 94.5301 9.68969 94.3301C9.81969 93.6301 10.4297 93.1001 11.1697 93.1001C11.3697 93.1001 11.5697 93.1401 11.7497 93.2101C13.6097 93.3401 13.6697 94.9301 13.6697 95.1201C13.6697 95.2701 13.6497 95.4301 13.6297 95.5801C13.6297 96.6301 12.6097 97.2801 11.6397 97.2801L11.6197 97.2901Z" fill="#525D7D"/>
<path d="M21.8697 97.1999C21.5397 97.1999 20.5397 97.1999 20.0097 96.3499C19.4997 95.5399 19.8897 94.7399 20.0097 94.4799C20.1497 93.6799 20.9397 93.0999 21.7297 93.2299C22.4497 92.9399 23.2797 93.2499 23.6297 93.9499C23.7897 94.2599 23.9597 94.6799 23.9597 95.1599C23.9597 96.2299 22.9597 97.1999 21.8697 97.1999Z" fill="#525D7D"/>
<path d="M33.0497 96.9598C32.4697 96.9598 31.9197 96.7098 31.4097 96.1998C31.0997 95.8998 30.9297 95.4798 30.9297 95.0398C30.9297 94.3498 31.3597 93.6898 32.0197 93.3598C32.0697 93.3298 32.1197 93.3098 32.1697 93.2898C32.7597 92.7298 33.6697 92.7098 34.2397 93.2898C35.3197 94.3698 35.0697 95.3798 34.9097 95.7598C34.6097 96.4898 33.8697 96.9598 33.0397 96.9598H33.0497Z" fill="#525D7D"/>
<path d="M44.1795 96.7698C42.9795 96.7698 41.9395 95.7498 41.9395 94.5998C41.9395 93.9298 42.2995 93.3498 42.8995 93.0498C42.9295 93.0298 42.9695 93.0198 42.9995 92.9998C43.2295 92.8598 43.4895 92.7798 43.7795 92.7798H44.4095C45.4295 92.7798 46.2295 93.6298 46.2295 94.7098C46.2295 95.2098 46.0595 95.6898 45.7495 96.0598C45.3595 96.5198 44.8095 96.7698 44.1795 96.7698Z" fill="#525D7D"/>
<path d="M55.0791 96.6501C54.3291 96.6501 53.7391 96.2301 53.3191 95.4001C53.1891 95.1401 53.1191 94.8601 53.1191 94.5901C53.1191 94.0601 53.3491 93.5601 53.7991 93.1101C54.1891 92.7201 54.7491 92.5901 55.2391 92.7201C55.6591 92.7101 56.3691 92.7201 56.9291 93.2601C57.2691 93.5901 57.4591 94.0401 57.4591 94.5201C57.4591 94.8801 57.3391 95.2301 57.1191 95.5301C56.9091 95.8101 56.2791 96.6501 55.0691 96.6501H55.0791Z" fill="#525D7D"/>
<path d="M11.1399 106.58C10.5399 106.58 10.0299 106.31 9.61992 105.76C9.24992 105.39 9.12992 104.89 9.24992 104.42C9.28992 104 9.50992 103.59 9.87992 103.32C10.2499 102.75 10.8799 102.47 11.6599 102.56C12.5999 102.56 13.3699 103.33 13.3699 104.26V104.67C13.3699 105.38 12.9099 106.57 11.1499 106.57L11.1399 106.58Z" fill="#525D7D"/>
<path d="M21.6491 105.89C20.4091 105.89 19.5391 104.79 19.5391 103.8C19.5391 103.52 19.6091 103.25 19.7391 103.01C20.1791 101.88 21.0391 101.76 21.3891 101.76C21.5591 101.76 21.7291 101.79 21.8791 101.84C21.9591 101.84 22.0291 101.84 22.1091 101.84C23.0591 101.84 23.8291 102.6 23.8291 103.54C23.8291 103.99 23.8491 104.72 23.2691 105.3C22.8791 105.7 22.3291 105.9 21.6491 105.9V105.89ZM22.3491 104.49C22.3491 104.49 22.3391 104.51 22.3291 104.52C22.3291 104.51 22.3391 104.5 22.3491 104.49Z" fill="#525D7D"/>
<path d="M32.7307 105.24C32.0407 105.24 31.6207 104.95 31.3807 104.71C30.8707 104.19 30.8807 103.55 30.8807 103.3C30.8807 103.23 30.8807 103.15 30.9007 103.08C30.8207 102.62 30.9607 102.13 31.3207 101.77C31.7207 101.36 32.3007 101.16 32.8807 101.22C33.5207 101.28 34.1007 101.64 34.4707 102.2C34.6607 102.49 34.7607 102.82 34.7607 103.17C34.7607 104.21 33.7507 105.23 32.7307 105.23V105.24Z" fill="#525D7D"/>
<path d="M44.6394 105.4C44.0994 105.4 43.1094 105.19 42.5094 103.77C42.4094 103.55 42.3594 103.31 42.3594 103.07C42.3594 102.73 42.4594 102.47 42.5494 102.29C42.7294 101.66 43.2994 101.11 44.1994 101.11C44.5194 101.11 44.8094 101.21 45.0494 101.37C46.5694 101.67 46.6594 102.92 46.6594 103.19C46.6594 105.27 44.9794 105.38 44.6394 105.38V105.4Z" fill="#525D7D"/>
<path d="M55.3494 105.22C54.2494 105.22 53.3594 104.39 53.3594 103.36C53.3594 102.82 53.5294 102.4 53.7994 102.1C53.9094 101.71 54.1794 101.36 54.5694 101.17C54.8994 101.01 55.2394 100.92 55.5794 100.92C56.7294 100.92 57.7294 101.94 57.7294 103.1C57.7294 104.39 56.3094 105.21 55.3394 105.21L55.3494 105.22Z" fill="#525D7D"/>
<path d="M27.6104 111.85C26.8604 111.85 26.2104 111.29 26.1204 110.52C26.0304 109.7 26.6204 108.95 27.4404 108.86C29.8204 108.59 32.2004 108.53 34.5004 108.47C35.8504 108.44 37.2504 108.4 38.6104 108.32C39.4404 108.28 40.1504 108.9 40.1904 109.73C40.2404 110.56 39.6104 111.27 38.7804 111.31C37.3704 111.39 35.9504 111.43 34.5704 111.46C32.3304 111.52 30.0204 111.57 27.7804 111.83C27.7204 111.83 27.6604 111.83 27.6104 111.83V111.85Z" fill="#525D7D"/>
<path d="M55.6309 87.4601C54.8009 87.4601 54.1309 86.7901 54.1309 85.9601C54.1309 83.0501 54.4009 80.0601 54.6509 77.1701C54.9009 74.3401 55.1609 71.4201 55.1609 68.6401C55.1609 67.8101 55.8309 67.1401 56.6609 67.1401C57.4909 67.1401 58.1609 67.8101 58.1609 68.6401C58.1609 71.5501 57.8909 74.5401 57.6409 77.4301C57.3909 80.2601 57.1309 83.1801 57.1309 85.9601C57.1309 86.7901 56.4609 87.4601 55.6309 87.4601Z" fill="#525D7D"/>
<path d="M79.039 94.2398C78.249 94.2398 77.589 93.6198 77.539 92.8298L76.159 69.2498C76.109 68.4198 76.739 67.7098 77.569 67.6698C78.399 67.6198 79.109 68.2498 79.149 69.0798L80.529 92.6598C80.579 93.4898 79.949 94.1998 79.119 94.2498C79.089 94.2498 79.059 94.2498 79.029 94.2498L79.039 94.2398Z" fill="#525D7D"/>
<path d="M66.9908 101.3C66.3208 101.3 65.7108 100.84 65.5408 100.16C65.3408 99.3602 65.8308 98.5402 66.6308 98.3402C68.4508 97.8802 69.9508 97.8002 78.2908 97.3302C80.3208 97.2202 82.7508 97.0802 85.7008 96.9102C84.9808 96.3102 84.1108 95.7902 83.5108 95.7902C78.1708 95.7902 72.6408 95.7902 67.2808 95.6202C66.4508 95.5902 65.8008 94.9002 65.8308 94.0702C65.8608 93.2402 66.5808 92.6102 67.3808 92.6202C72.6908 92.7902 78.1908 92.7902 83.5108 92.7902C86.1208 92.7902 90.0008 96.0602 90.0008 98.2502C90.0008 99.0402 89.3808 99.7002 88.5908 99.7502C84.3808 100 81.0708 100.18 78.4508 100.33C70.3508 100.79 68.8908 100.87 67.3508 101.25C67.2308 101.28 67.1108 101.3 66.9908 101.3Z" fill="#525D7D"/>
<path d="M107.51 120.78C97.9295 120.78 95.0195 114.75 95.0195 94.9899C95.0195 87.3599 99.1695 79.6299 107.11 79.6299C113.02 79.6299 118.12 83.8699 118.97 89.4899L119.01 89.7899C119.72 94.4699 120.38 98.8899 120.38 103.54C120.38 112.26 119.39 120.78 107.51 120.78ZM107.11 82.6299C101.14 82.6299 98.0195 88.8499 98.0195 94.9899C98.0195 114.61 100.82 117.78 107.51 117.78C115.08 117.78 117.38 114.45 117.38 103.54C117.38 99.1099 116.73 94.7999 116.04 90.2399L116 89.9399C115.47 86.3999 112.17 82.6399 107.11 82.6399V82.6299Z" fill="#525D7D"/>
<path d="M106.71 89.8501C105.9 89.8501 105.23 89.2001 105.21 88.3901C105.15 86.1501 105.07 84.1401 104.95 82.2301C104.9 81.4001 105.53 80.6901 106.35 80.6401C107.17 80.5801 107.89 81.2201 107.94 82.0401C108.06 83.9901 108.15 86.0401 108.21 88.3101C108.23 89.1401 107.58 89.8301 106.71 89.8501Z" fill="#525D7D"/>
<path d="M106.811 100.22C105.981 100.22 105.311 99.5499 105.311 98.7199C105.311 97.6799 105.311 96.6499 105.311 95.6099C105.311 94.7799 105.981 94.1099 106.811 94.1099C107.661 94.1099 108.311 94.7799 108.311 95.6099C108.311 96.6499 108.311 97.6899 108.311 98.7299C108.311 99.5599 107.641 100.23 106.811 100.23V100.22Z" fill="#525D7D"/>
<path d="M107.141 101.61C102.191 101.61 98.121 99.9399 95.381 96.7799C94.841 96.1499 94.901 95.2099 95.531 94.6599C96.151 94.1199 97.101 94.1799 97.651 94.8099C99.801 97.2899 103.091 98.5999 107.141 98.5999C110.731 98.5999 113.961 96.8699 117.011 93.3199C117.551 92.6899 118.501 92.6199 119.131 93.1599C119.761 93.6999 119.831 94.6499 119.291 95.2799C115.681 99.4799 111.601 101.61 107.141 101.61Z" fill="#525D7D"/>
<path d="M106.7 97.1C103.39 97.1 102.83 95.17 102.83 90.86C102.83 87.19 104.01 86.97 107.73 86.79L108.56 86.75C109.12 86.55 109.82 86.73 110.27 87.18C110.92 87.84 110.97 88.85 110.96 90.01V90.15C110.96 94.88 110.54 97.1 106.7 97.1ZM106.12 94.08C106.29 94.1 106.58 94.1 106.7 94.1C107.22 94.1 107.54 94.08 107.64 94.03C107.72 93.89 107.96 93.14 107.96 90.15V89.98C107.96 89.98 107.96 89.86 107.96 89.78H107.87C107.05 89.82 106.27 89.86 105.84 89.92C105.83 90.16 105.83 90.49 105.83 90.79C105.83 93.09 106.01 93.83 106.12 94.07V94.08Z" fill="#525D7D"/>
</g>
<defs>
<clipPath id="clip0_107_202">
<rect width="127.8" height="122.5" fill="white"/>
</clipPath>
</defs>
</svg>
