<svg xmlns="http://www.w3.org/2000/svg" width="146.789" height="30" viewBox="0 0 146.789 30">
  <g id="Grupo_5547" data-name="Grupo 5547" transform="translate(-21.001 -21)">
    <g id="Grupo_3642" data-name="Grupo 3642" transform="translate(21.001 21)">
      <g id="Grupo_1" data-name="Grupo 1">
        <path id="Trazado_1" data-name="Trazado 1" d="M-592.248,150.9V137.073c0-1.628-1.791-2.947-4-2.947s-4,1.319-4,2.947V155.9a2.183,2.183,0,0,0,.03.358C-599.7,156.228-592.484,156.978-592.248,150.9Z" transform="translate(600.253 -132.579)" fill="#38afbd"/>
        <path id="Trazado_2" data-name="Trazado 2" d="M-507.879,150.9V137.073c0-1.628,1.791-2.947,4-2.947s4,1.319,4,2.947V155.9a2.2,2.2,0,0,1-.03.358C-500.422,156.228-507.643,156.978-507.879,150.9Z" transform="translate(533.957 -132.579)" fill="#38afbd"/>
        <path id="Trazado_3" data-name="Trazado 3" d="M-567.392,129.648a4.353,4.353,0,0,0-5.659.089l-10.075,9.309h-.037l-10.255-9.149a4.35,4.35,0,0,0-5.66,0,3.3,3.3,0,0,0,0,5.05l11.864,10.586V155.7c0,1.628,1.793,2.947,4,2.947s4-1.319,4-2.947v-9.992l11.915-11.008A3.306,3.306,0,0,0-567.392,129.648Z" transform="translate(600.251 -128.647)" fill="#28d6d6"/>
      </g>
      <g id="Grupo_3643" data-name="Grupo 3643" transform="translate(42.805 4.956)">
        <path id="Trazado_4" data-name="Trazado 4" d="M-440.731,162.783c0,.164-.006.318-.017.464s-.024.266-.035.359h-6.078a3.771,3.771,0,0,0,.28,1.139,2.465,2.465,0,0,0,.525.779,2.069,2.069,0,0,0,.7.456,2.22,2.22,0,0,0,.806.149,2.824,2.824,0,0,0,1.06-.193,3.935,3.935,0,0,0,.937-.543l1.068,1.156a4.523,4.523,0,0,1-1.366.893,4.651,4.651,0,0,1-1.8.316,3.8,3.8,0,0,1-1.532-.316,3.576,3.576,0,0,1-1.27-.928,4.488,4.488,0,0,1-.858-1.506,6.078,6.078,0,0,1-.315-2.032,6.53,6.53,0,0,1,.3-2.067,4.34,4.34,0,0,1,.823-1.5,3.43,3.43,0,0,1,1.27-.919,4.16,4.16,0,0,1,1.638-.315,3.739,3.739,0,0,1,1.708.368,3.474,3.474,0,0,1,1.209,1,4.328,4.328,0,0,1,.718,1.471A6.509,6.509,0,0,1-440.731,162.783Zm-1.822-.666a3.96,3.96,0,0,0-.167-.893,2.123,2.123,0,0,0-.394-.735,1.865,1.865,0,0,0-.657-.5,2.242,2.242,0,0,0-.955-.184,1.83,1.83,0,0,0-1.445.6,3.019,3.019,0,0,0-.657,1.708Z" transform="translate(448.63 -154.797)" fill="#fff"/>
        <path id="Trazado_5" data-name="Trazado 5" d="M-405.882,167.565v-.911a4.107,4.107,0,0,1-1.121.788,3.154,3.154,0,0,1-1.4.316,4.017,4.017,0,0,1-1.13-.167,2.916,2.916,0,0,1-1.025-.534,2.772,2.772,0,0,1-.744-.963,3.266,3.266,0,0,1-.289-1.436,2.946,2.946,0,0,1,.28-1.331,2.588,2.588,0,0,1,.77-.928,3.3,3.3,0,0,1,1.156-.543,5.72,5.72,0,0,1,1.454-.175,5.091,5.091,0,0,1,2.049.35v-.683a1.477,1.477,0,0,0-.447-1.156,1.86,1.86,0,0,0-1.287-.4,5.414,5.414,0,0,0-1.287.14,4.61,4.61,0,0,0-1.112.438l-.7-1.366a5.668,5.668,0,0,1,1.419-.613,6.459,6.459,0,0,1,1.734-.21,3.882,3.882,0,0,1,2.5.762,2.79,2.79,0,0,1,.954,2.321v6.305Zm0-3.923a3.36,3.36,0,0,0-.867-.3,6.12,6.12,0,0,0-1.235-.105,2.314,2.314,0,0,0-1.384.368,1.168,1.168,0,0,0-.508,1,1.46,1.46,0,0,0,.438,1.1,1.858,1.858,0,0,0,1.331.42,2.435,2.435,0,0,0,1.322-.368,3.15,3.15,0,0,0,.9-.805Z" transform="translate(422.048 -154.797)" fill="#fff"/>
        <path id="Trazado_6" data-name="Trazado 6" d="M-367.77,165.043a2.606,2.606,0,0,1-.289,1.287,2.374,2.374,0,0,1-.762.832,3.242,3.242,0,0,1-1.094.456,5.935,5.935,0,0,1-1.3.14,5.6,5.6,0,0,1-1.883-.333,6.421,6.421,0,0,1-1.638-.841l.823-1.366a5.079,5.079,0,0,0,1.34.683,4.266,4.266,0,0,0,1.34.228q1.682,0,1.681-1.016a.944.944,0,0,0-.569-.84,13.136,13.136,0,0,0-1.568-.7,9.59,9.59,0,0,1-1.252-.569,3.658,3.658,0,0,1-.841-.622,1.964,1.964,0,0,1-.464-.744,2.954,2.954,0,0,1-.14-.955,2.475,2.475,0,0,1,.228-1.086,2.126,2.126,0,0,1,.648-.788,2.93,2.93,0,0,1,1-.473,4.785,4.785,0,0,1,1.261-.158,5.164,5.164,0,0,1,1.69.28,5.234,5.234,0,0,1,1.427.736l-.788,1.384a4.271,4.271,0,0,0-1.138-.6,3.91,3.91,0,0,0-1.244-.193,1.554,1.554,0,0,0-.963.237.737.737,0,0,0-.3.6.753.753,0,0,0,.07.324.927.927,0,0,0,.263.306,2.915,2.915,0,0,0,.517.324q.324.167.849.377.77.3,1.349.569a4.205,4.205,0,0,1,.972.613,2.163,2.163,0,0,1,.587.8A2.832,2.832,0,0,1-367.77,165.043Z" transform="translate(395.601 -154.797)" fill="#fff"/>
        <path id="Trazado_7" data-name="Trazado 7" d="M-292.516,167.565V162.6a2.843,2.843,0,0,0-.357-1.677,1.321,1.321,0,0,0-1.105-.454,1.357,1.357,0,0,0-1.114.445,2.668,2.668,0,0,0-.366,1.633v5.014h-2.435V162.6a2.847,2.847,0,0,0-.357-1.677,1.321,1.321,0,0,0-1.106-.454,1.357,1.357,0,0,0-1.114.445,2.671,2.671,0,0,0-.366,1.633v5.014h-2.434v-9.189h2.434l-.017.613a2.752,2.752,0,0,1,.8-.574,2.746,2.746,0,0,1,1.219-.239,3.427,3.427,0,0,1,1.456.272,3.144,3.144,0,0,1,1.088.9,4.337,4.337,0,0,1,1.132-.832,3.94,3.94,0,0,1,1.8-.342,3.545,3.545,0,0,1,1.5.289,2.546,2.546,0,0,1,1.017.841,3.737,3.737,0,0,1,.579,1.331,7.606,7.606,0,0,1,.184,1.743v5.184Z" transform="translate(344.307 -154.797)" fill="#fff"/>
        <path id="Trazado_8" data-name="Trazado 8" d="M-241.563,167.572v-.613a2.549,2.549,0,0,1-.875.573,3.075,3.075,0,0,1-1.191.226,4.019,4.019,0,0,1-1.261-.2,3.285,3.285,0,0,1-1.095-.6,3.02,3.02,0,0,1-.779-1.016,3.292,3.292,0,0,1-.3-1.454,2.943,2.943,0,0,1,.289-1.331,2.641,2.641,0,0,1,.8-.955,3.649,3.649,0,0,1,1.182-.569,5.305,5.305,0,0,1,1.463-.193,4.106,4.106,0,0,1,1.051.114,4.428,4.428,0,0,1,.718.254v-.455a1.165,1.165,0,0,0-.324-.832,1.306,1.306,0,0,0-.99-.341,6.987,6.987,0,0,0-.744.035,4.824,4.824,0,0,0-.613.105,4.054,4.054,0,0,0-.569.184,5.561,5.561,0,0,0-.6.289l-.929-1.681q.4-.227.78-.4a5.12,5.12,0,0,1,.788-.289,6.511,6.511,0,0,1,.867-.175,7.65,7.65,0,0,1,1.016-.062,5.2,5.2,0,0,1,1.527.211,3.351,3.351,0,0,1,1.18.622,2.816,2.816,0,0,1,.767,1.017,3.308,3.308,0,0,1,.273,1.376v6.169Zm0-3.843a2.533,2.533,0,0,0-.67-.289,4.041,4.041,0,0,0-1-.1,1.58,1.58,0,0,0-1.036.3,1.055,1.055,0,0,0-.357.858,1.282,1.282,0,0,0,.313.858,1.356,1.356,0,0,0,1.08.368,2.046,2.046,0,0,0,1.036-.254,1.647,1.647,0,0,0,.636-.587Z" transform="translate(303.967 -154.797)" fill="#fff"/>
        <path id="Trazado_9" data-name="Trazado 9" d="M-205.457,147.774a1.328,1.328,0,0,1-.412.972,1.328,1.328,0,0,1-.972.412,1.328,1.328,0,0,1-.972-.412,1.327,1.327,0,0,1-.412-.972,1.329,1.329,0,0,1,.412-.972,1.329,1.329,0,0,1,.972-.411,1.329,1.329,0,0,1,.972.411A1.33,1.33,0,0,1-205.457,147.774Zm-2.592,11.332v-9.2h2.435v9.2Z" transform="translate(276.093 -146.337)" fill="#fff"/>
        <path id="Trazado_10" data-name="Trazado 10" d="M-187.007,158.971v-11.56l2.435-1.209v12.768Z" transform="translate(260.866 -146.203)" fill="#fff"/>
        <path id="Trazado_11" data-name="Trazado 11" d="M-164.263,147.774a1.328,1.328,0,0,1-.412.972,1.329,1.329,0,0,1-.972.412,1.328,1.328,0,0,1-.972-.412,1.327,1.327,0,0,1-.412-.972,1.329,1.329,0,0,1,.412-.972,1.329,1.329,0,0,1,.972-.411,1.33,1.33,0,0,1,.972.411A1.33,1.33,0,0,1-164.263,147.774Zm-2.592,11.332v-9.2h2.435v9.2Z" transform="translate(246.529 -146.337)" fill="#fff"/>
        <path id="Trazado_12" data-name="Trazado 12" d="M-140.572,167.565V162.6a2.6,2.6,0,0,0-.4-1.677,1.452,1.452,0,0,0-1.149-.454,1.494,1.494,0,0,0-1.158.445,2.449,2.449,0,0,0-.409,1.633v5.014h-2.435v-9.189h2.435l-.012.613a2.577,2.577,0,0,1,.869-.574,3.235,3.235,0,0,1,1.29-.239,2.981,2.981,0,0,1,2.58,1.13,5.11,5.11,0,0,1,.825,3.074v5.184Z" transform="translate(231.525 -154.797)" fill="#fff"/>
        <path id="Trazado_13" data-name="Trazado 13" d="M-100.512,166a10.721,10.721,0,0,1-.167,2,3.639,3.639,0,0,1-.606,1.471,3.111,3.111,0,0,1-1.211.972,6.077,6.077,0,0,1-1.984.49l-.86-1.822a8.459,8.459,0,0,0,1.161-.245,1.985,1.985,0,0,0,.742-.385,1.259,1.259,0,0,0,.384-.613,3.3,3.3,0,0,0,.1-.893,4.214,4.214,0,0,1-.814.538,2.455,2.455,0,0,1-1.13.239,3.448,3.448,0,0,1-1.384-.281,2.987,2.987,0,0,1-1.138-.884,4.444,4.444,0,0,1-.77-1.524,7.659,7.659,0,0,1-.28-2.215,7.119,7.119,0,0,1,.236-1.892,4.5,4.5,0,0,1,.692-1.48,3.168,3.168,0,0,1,1.121-.963,3.289,3.289,0,0,1,1.524-.342,2.816,2.816,0,0,1,1.112.212,2.954,2.954,0,0,1,.832.512v-.526h2.435Zm-2.435-4.747a1.922,1.922,0,0,0-1.638-.783q-1.444,0-1.444,2.33a3.678,3.678,0,0,0,.431,2.035,1.336,1.336,0,0,0,1.154.626,1.685,1.685,0,0,0,.9-.209,2.241,2.241,0,0,0,.6-.556Z" transform="translate(204.497 -154.797)" fill="#fff"/>
        <path id="Trazado_14" data-name="Trazado 14" d="M-334.394,158.86H-336.3l-1.559,4.536q-.105.3-.228.674t-.237.744q-.114.368-.21.692t-.149.534a5.264,5.264,0,0,0-.131-.517l-.21-.709q-.114-.385-.237-.77t-.228-.683l-1.506-4.5h-1.979s3.635,8.106,3.076,9.627c-.372,1.014-1.394,1.314-2.7,1.4l.638,1.453a4.719,4.719,0,0,0,3.079-1.436C-337.609,168.5-334.394,158.86-334.394,158.86Z" transform="translate(372.803 -155.287)" fill="#fff"/>
      </g>
    </g>
  </g>
</svg>
